<svg width="43" height="46" viewBox="0 0 43 46" fill="none" xmlns="http://www.w3.org/2000/svg">
<path d="M36.2815 0C36.2815 0 39.9496 1.73055 41.7234 7.24197C42.5698 9.87541 42.0996 11.4743 41.7845 12.5211L41.3142 19.2448L31.9872 28.2625L25.3763 34.0241L11.5225 33.0591L7.53564 26.9458L12.9427 16.1684L22.3121 12.8851L31.1529 9.32615L35.7219 4.60852L36.2815 0Z" fill="white"/>
<path d="M21.5015 31.3398H21.5551H21.5015Z" stroke="black" stroke-miterlimit="10"/>
<path d="M20.51 31.2522H20.5599H20.51Z" stroke="black" stroke-miterlimit="10"/>
<path d="M19.5479 31.1836H19.5699H19.5479Z" stroke="black" stroke-miterlimit="10"/>
<path d="M25.6003 31.9126L25.701 31.9323L25.6003 31.9126Z" stroke="black" stroke-miterlimit="10"/>
<path d="M29.6624 25.1436L29.6829 25.1333L29.6624 25.1436Z" stroke="black" stroke-miterlimit="10"/>
<path d="M29.6377 25.1568L29.6536 25.1484L29.6377 25.1568Z" stroke="black" stroke-miterlimit="10"/>
<path d="M24.0454 31.6499L24.1395 31.664L24.0454 31.6499Z" stroke="black" stroke-miterlimit="10"/>
<path d="M29.6907 25.1278L29.7214 25.1116L29.6907 25.1278Z" stroke="black" stroke-miterlimit="10"/>
<path d="M25.0811 31.8186L25.1525 31.8308L25.0811 31.8186Z" stroke="black" stroke-miterlimit="10"/>
<path d="M24.5891 31.7349L24.6691 31.748L24.5891 31.7349Z" stroke="black" stroke-miterlimit="10"/>
<path d="M29.8381 25.0486C31.1182 24.3358 32.3544 23.5469 33.54 22.686C32.3548 23.5474 31.1186 24.3364 29.8381 25.0486V25.0486Z" stroke="black" stroke-miterlimit="10"/>
<path d="M33.7751 22.5159L33.9886 22.3579L33.7751 22.5159Z" stroke="black" stroke-miterlimit="10"/>
<path d="M29.73 25.1106L29.7688 25.0898L29.73 25.1106Z" stroke="black" stroke-miterlimit="10"/>
<path d="M29.7837 25.0788L29.8345 25.0515L29.7837 25.0788Z" stroke="black" stroke-miterlimit="10"/>
<path d="M33.5532 22.6775L33.7611 22.5261L33.5532 22.6775Z" stroke="black" stroke-miterlimit="10"/>
<path d="M23.0261 31.5071L23.1155 31.5184L23.0261 31.5071Z" stroke="black" stroke-miterlimit="10"/>
<path d="M23.5791 31.5825H23.6026H23.5791Z" stroke="black" stroke-miterlimit="10"/>
<path d="M22.0205 31.3926L22.0863 31.3992L22.0205 31.3926Z" stroke="black" stroke-miterlimit="10"/>
<path d="M22.5359 31.45H22.5594H22.5359Z" stroke="black" stroke-miterlimit="10"/>
<path d="M10.1511 31.2184C10.1511 31.2184 20.2212 29.2687 25.3762 30.3399C25.3762 30.3399 26.8631 23.4742 29.6377 22.0361L30.154 23.1365C30.154 23.1365 37.3301 19.3049 41.7835 12.615L41.3132 19.2447L30.9384 29.7615L22.312 37.1615L10.1511 31.2184Z" fill="#3778B3"/>
<path d="M33.7751 22.5159L33.761 22.5262L33.5532 22.6776L33.5419 22.6861C32.3557 23.547 31.1189 24.336 29.8381 25.0487V25.0487L29.7873 25.0759L29.7742 25.0825L29.7337 25.1042L29.7262 25.1089L29.6942 25.1258L29.6867 25.1305L29.666 25.1408L29.6575 25.1455L29.6416 25.154L28.9832 24.1194C28.0427 25.154 26.1617 32.0198 26.1617 32.0198C26.0093 31.9884 25.8569 31.9571 25.7046 31.9257L25.6039 31.906C25.4553 31.8777 25.3058 31.8505 25.1562 31.8241L25.0848 31.8119C24.9484 31.7875 24.8101 31.7639 24.6728 31.7414L24.5929 31.7282L24.1405 31.6577L24.0464 31.6436L23.6044 31.5796H23.5799L23.1163 31.5175L23.0269 31.5062L22.5632 31.4498H22.5388C22.3883 31.4323 22.2378 31.4153 22.0873 31.399L22.0215 31.3924L21.5588 31.3445H21.5052C21.35 31.3294 21.1948 31.3144 21.0415 31.3012H21.0311L20.5609 31.2617H20.511C20.1941 31.2363 19.8809 31.2147 19.5705 31.1949H19.548C19.0673 31.1648 18.598 31.1413 18.1428 31.1225C18.5633 32.4136 19.2638 33.5959 20.1943 34.5848C21.1248 35.5737 22.2622 36.3448 23.5254 36.8429C24.7886 37.3411 26.1462 37.554 27.5012 37.4664C28.8562 37.3789 30.1751 36.993 31.3637 36.3365C32.5522 35.6799 33.581 34.7688 34.3765 33.6684C35.172 32.568 35.7146 31.3054 35.9654 29.971C36.2161 28.6365 36.169 27.2631 35.8273 25.9489C35.4856 24.6348 34.8577 23.4124 33.9886 22.3691V22.3691L33.7751 22.5159Z" fill="#479FC6"/>
<path d="M35.6506 5.9092C35.0383 6.93624 34.125 8.07521 32.7876 9.31104C26.6743 14.9541 24.6051 15.8006 24.6051 15.8006L25.3576 16.8352C25.3576 16.8352 23.1944 17.6816 15.8584 17.3054C15.8584 17.3054 14.2679 24.8154 11.0862 29.5594C11.0862 29.5594 16.1875 22.9955 16.7518 18.6692C16.7518 18.6692 23.9938 18.8573 28.038 17.7287L26.8154 16.0357C26.8154 16.0357 40.4801 8.13728 36.2816 0.0939941C37.4789 3.0538 35.6506 5.9092 35.6506 5.9092Z" fill="#DCE0E8"/>
<path d="M3.67672 24.2972C2.95198 23.7952 2.2832 23.2169 1.68188 22.5723C2.3647 24.3959 3.4209 26.6014 5.05081 29.0947C4.34476 27.5776 3.88109 25.959 3.67672 24.2981V24.2972Z" fill="#479FC6"/>
<path d="M3.67673 24.2973C2.8519 17.5923 6.47006 11.3304 12.4282 9.73715C16.0116 8.77971 19.7031 9.70799 22.6497 11.953C22.4067 10.6717 21.959 9.43798 21.3236 8.2991C19.6155 6.58408 17.4368 5.41463 15.0635 4.93891C12.6903 4.46319 10.2292 4.7026 7.99205 5.62682C5.75494 6.55103 3.84248 8.11846 2.49696 10.1305C1.15145 12.1426 0.433417 14.5088 0.433838 16.9293C0.433838 16.9293 0.433838 17.0233 0.433838 17.1964C0.463184 18.6239 0.743334 20.0352 1.26149 21.3657C1.38188 21.7456 1.52076 22.1469 1.67814 22.5695C2.28049 23.2154 2.95054 23.7947 3.67673 24.2973V24.2973Z" fill="#8FCFE5"/>
<path d="M19.6662 36.8146C20.4246 36.611 21.1592 36.3273 21.8576 35.9682C20.1039 34.8174 18.7938 33.1043 18.1425 31.1104C15.2392 30.9919 12.9039 31.0869 12.0188 31.1339L11.7132 31.1518H11.7075H11.6765H11.668H11.6398C11.6196 31.1583 11.5977 31.1573 11.5782 31.149C11.5586 31.1407 11.5427 31.1257 11.5333 31.1066C11.5239 31.0875 11.5218 31.0657 11.5272 31.0452C11.5326 31.0246 11.5452 31.0067 11.5627 30.9947L17.8519 26.5602L20.3085 24.8296C20.5618 24.956 20.8494 24.9966 21.1277 24.9453C21.4544 24.885 21.7462 24.7035 21.9447 24.4372C22.1431 24.1708 22.2336 23.8392 22.1979 23.509C22.1622 23.1787 22.003 22.8742 21.7522 22.6564C21.5014 22.4385 21.1776 22.3236 20.8456 22.3344C20.5864 22.3477 20.3366 22.436 20.1267 22.5886C19.9168 22.7412 19.7558 22.9516 19.6634 23.1941C19.5685 23.4334 19.5498 23.6961 19.6097 23.9465L18.3523 24.8296L10.9222 30.0664C10.9065 30.0768 10.8877 30.0815 10.869 30.0797C10.8502 30.0779 10.8327 30.0696 10.8193 30.0564C10.806 30.0431 10.7976 30.0256 10.7956 30.0069C10.7936 29.9882 10.7981 29.9693 10.8084 29.9536C11.5956 28.8522 12.2897 27.575 12.8926 26.263C12.1482 26.4019 11.3926 26.4718 10.6353 26.4718C8.14751 26.4747 5.71852 25.7151 3.67554 24.2954C3.87991 25.9563 4.34358 27.5749 5.04963 29.0921C6.22238 30.8721 7.51381 32.5711 8.91515 34.1774C11.9427 36.7243 15.8656 37.8304 19.6662 36.8146Z" fill="#6CA3C4"/>
<path d="M12.4281 9.737C6.46997 11.3302 2.85181 17.5922 3.67664 24.2971C5.71963 25.7168 8.14861 26.4764 10.6365 26.4735C11.3937 26.4734 12.1493 26.4035 12.8937 26.2647C14.8716 21.9665 15.8582 17.3053 15.8582 17.3053C18.8678 17.4596 21.0066 17.4078 22.4822 17.294C22.9285 15.548 22.9853 13.7252 22.6487 11.9547C19.703 9.70784 16.0115 8.77955 12.4281 9.737Z" fill="#7FBBD6"/>
<path d="M32.4481 9.6214C32.56 9.51888 32.6738 9.41543 32.7886 9.30915C34.125 8.07519 35.0383 6.93623 35.6506 5.90919C35.6506 5.90919 37.4789 3.05378 36.2816 0.0939815C36.2784 0.0854537 36.2724 0.0782685 36.2646 0.0735923C36.2567 0.0689162 36.2476 0.0670236 36.2385 0.0682217C36.2295 0.0694199 36.2211 0.0736385 36.2148 0.0801927C36.2084 0.0867469 36.2045 0.0952519 36.2036 0.104327C36.1142 0.80313 35.6562 3.70838 34.0667 5.27716C31.8823 4.58144 29.5465 4.51293 27.3251 5.07942C25.1037 5.64591 23.0859 6.82466 21.5015 8.4815V8.4815C21.4422 8.42036 21.3829 8.35923 21.3228 8.29904C21.9643 9.44877 22.4144 10.6953 22.6555 11.9896C25.4808 9.81797 28.9974 8.86146 32.4481 9.6214Z" fill="#94DAED"/>
<path d="M26.9102 37.4776C25.1151 37.4811 23.3584 36.9579 21.8577 35.9728C21.1594 36.3319 20.4248 36.6157 19.6663 36.8193C15.8657 37.835 11.9428 36.7252 8.91626 34.1802C11.9137 37.6394 15.9701 41.4419 21.4552 45.4184V45.4532L21.4787 45.4353L21.5022 45.4532V45.4184C25.6612 42.404 28.9981 39.4931 31.6748 36.7487C30.9024 36.9688 30.1089 37.1071 29.3076 37.1616C28.5257 37.3714 27.7197 37.4776 26.9102 37.4776V37.4776Z" fill="#4E99C3"/>
<path d="M22.4834 17.2923C24.6052 17.1277 25.3576 16.8352 25.3576 16.8352L24.6052 15.8006C24.6052 15.8006 26.5972 14.9852 32.4472 9.6233C28.9964 8.86336 25.4798 9.81986 22.6555 11.9915C22.9848 13.7506 22.9257 15.5603 22.4824 17.2941L22.4834 17.2923Z" fill="#85C6DD"/>
<path d="M29.3076 37.1617C30.1085 37.1055 30.9013 36.9656 31.673 36.7441C32.5364 35.8609 33.3283 34.9957 34.06 34.1501L34.0224 34.1182C32.8052 35.5978 31.1572 36.6616 29.3076 37.1617Z" fill="#0098C2"/>
<path d="M41.7843 12.6134C41.7505 12.7347 41.7138 12.8551 41.6752 12.9755C41.663 13.015 41.6489 13.0545 41.6357 13.094C41.6084 13.1739 41.5821 13.2539 41.5529 13.3338C41.537 13.3799 41.5191 13.4279 41.5012 13.473C41.4739 13.5454 41.4476 13.6169 41.4184 13.6893C41.3996 13.7382 41.379 13.7834 41.3592 13.8351C41.331 13.9038 41.3018 13.9724 41.2727 14.0411C41.251 14.0909 41.2294 14.1398 41.2068 14.1887C41.1767 14.2565 41.1457 14.3242 41.1128 14.391C41.0902 14.4399 41.0676 14.485 41.0441 14.5367L40.9425 14.7399C40.919 14.786 40.8955 14.8339 40.8711 14.8791C40.8344 14.9496 40.7958 15.0202 40.7573 15.0907C40.7347 15.133 40.7121 15.1753 40.6886 15.2167C40.6435 15.2986 40.5946 15.3785 40.5504 15.4594L40.4977 15.5534C40.4319 15.6644 40.3651 15.7735 40.2964 15.8836L40.2832 15.9024L40.255 15.9466C40.1992 16.0337 40.1428 16.1212 40.0857 16.209C40.0613 16.2466 40.035 16.2842 40.0096 16.3218L39.8675 16.5306L39.7801 16.6548C39.734 16.7197 39.686 16.7846 39.6409 16.8485L39.5468 16.9755C39.4998 17.0385 39.4528 17.1015 39.4048 17.1636L39.3108 17.2877C39.2618 17.3508 39.212 17.4138 39.1622 17.4758C39.1311 17.5153 39.1001 17.5558 39.0681 17.5943C39.0154 17.6592 38.9628 17.7241 38.9092 17.7881L38.8151 17.8963C38.7562 17.9671 38.696 18.0376 38.6345 18.1079C38.611 18.1361 38.5875 18.1643 38.563 18.1916C38.4784 18.2856 38.3938 18.3844 38.3082 18.4794C38.2141 18.5734 38.1285 18.6769 38.0382 18.7738L37.9978 18.817L37.7721 19.0578C37.7476 19.0832 37.7232 19.1076 37.6997 19.133L37.4993 19.3371L37.4156 19.4208L37.2275 19.6089L37.141 19.6926L36.9454 19.8807L36.8617 19.9597L36.6557 20.1478L36.5833 20.2156L36.3547 20.4225L36.303 20.4686C35.9183 20.8128 35.5318 21.141 35.149 21.4523L35.1264 21.4702L34.8565 21.6865L34.8207 21.7147C34.737 21.7815 34.6533 21.8464 34.5706 21.9113L34.5367 21.9386L34.2818 22.1342L34.2574 22.1521L33.9846 22.3581C35.3593 24.0066 36.1151 26.0834 36.1216 28.2298C36.1281 30.3763 35.3849 32.4576 34.0204 34.1145L34.058 34.1465C38.1445 29.4251 40.2597 25.3461 41.3526 22.344C41.4551 22.0618 41.5633 21.7872 41.6752 21.5107C41.7015 21.4448 41.7279 21.3799 41.7533 21.3141C42.8273 18.5137 42.837 15.4167 41.7805 12.6096L41.7843 12.6134Z" fill="#8FCFE5"/>
</svg>
