<svg width="485" height="220" viewBox="0 0 485 220" fill="none" xmlns="http://www.w3.org/2000/svg">
<g clip-path="url(#clip0_553_5283)">
<path d="M484.941 132.136C484.413 149.973 480.42 175.09 472.478 194.003C472.219 194.62 471.955 195.231 471.688 195.837C470.217 199.2 468.507 202.454 466.572 205.574C466.057 206.396 465.528 207.196 464.986 207.965C462.42 211.616 459.596 214.631 456.502 216.793C455.484 217.514 454.405 218.147 453.279 218.684C453.268 218.692 453.255 218.698 453.242 218.702L453.167 218.739C453.128 218.758 453.088 218.776 453.049 218.792C452.515 219.042 451.974 219.265 451.427 219.462L421.518 219.622L379.18 219.846L369.729 219.896L265.542 219.595L115.436 219.165H114.831L32.6177 218.939C32.6177 218.939 11.8786 205.673 3.47527 181.846C3.26037 181.232 3.05029 180.61 2.85143 179.984C0.824526 173.64 -0.134164 167.004 0.0144905 160.347C0.532485 136.557 7.43961 86.3577 79.8161 74.6222C147.701 63.6143 129.646 -6.41089 229.736 0.481043C269.229 3.18973 286.752 30.1324 317.276 22.9567C398.946 3.7491 440.257 21.9951 462.04 53.5088L462.191 53.7268C462.915 54.7846 463.619 55.8564 464.303 56.942C467.141 61.4786 469.642 66.218 471.784 71.1217C473.307 74.5858 474.686 78.128 475.92 81.7481C476.102 82.277 476.28 82.8075 476.455 83.3396C476.46 83.3506 476.464 83.3619 476.467 83.3733C478.088 88.2746 479.474 93.2913 480.672 98.3576C480.876 99.2221 481.074 100.088 481.267 100.954C481.552 102.23 481.825 103.507 482.086 104.785C482.277 105.709 482.462 106.634 482.641 107.559C482.83 108.536 483.013 109.511 483.189 110.486C483.579 112.634 483.943 114.781 484.283 116.929C484.583 118.912 484.779 120.91 484.87 122.914C485.016 125.679 485.038 128.777 484.941 132.136Z" fill="#EBF3FA"/>
<path d="M365.865 70.9483C365.865 70.9483 369.489 62.8415 378.152 63.7358C378.152 63.7358 390.731 50.2245 404.146 61.9343C404.146 61.9343 418.405 59.0333 428.965 64.4475C436.005 68.0569 438.331 71.8427 438.331 71.8427L365.865 70.9483Z" fill="#F8FCFF"/>
<path d="M198.283 43.5395C198.283 43.5395 202.467 35.3654 212.474 36.2742C212.474 36.2742 227.002 22.6506 242.494 34.4582C242.494 34.4582 258.962 31.5315 271.158 36.9906C279.289 40.6289 281.975 44.4467 281.975 44.4467L198.283 43.5395Z" fill="#F8FCFF"/>
<path d="M259.937 64.9126C259.937 64.9126 262.704 59.5096 269.319 60.1043C269.319 60.1043 278.923 51.0983 289.166 58.9038C289.166 58.9038 300.052 56.9692 308.115 60.5771C313.491 62.9813 315.266 65.5072 315.266 65.5072L259.937 64.9126Z" fill="#F8FCFF"/>
<path d="M108.105 219.165L30.9193 218.939C30.9193 218.939 11.4472 205.673 3.55859 181.844C32.0018 189.903 41.9944 211.157 51.947 207.726C62.5346 204.075 107.166 204.072 108.105 219.165Z" fill="#A8D29F"/>
<path d="M482.643 107.572C482.248 111.939 481.698 117.189 481.039 122.978C480.71 125.882 480.357 128.922 479.982 132.062C477.758 150.704 474.82 172.83 472.474 190.052C472.203 192.053 471.936 193.985 471.683 195.838C469.686 200.34 467.456 204.447 464.981 207.966C462.415 211.618 459.591 214.632 456.498 216.795C455.479 217.515 454.4 218.148 453.274 218.686H313.401C313.401 218.686 310.237 206.505 330.283 205.923C365.595 204.896 345.849 188.355 367.316 187.812C369.516 187.772 371.717 187.853 373.909 188.054C376.25 188.254 378.606 188.168 380.926 187.799C381.428 187.72 381.927 187.629 382.42 187.523C382.851 187.43 383.278 187.329 383.702 187.217C383.755 187.204 383.808 187.191 383.863 187.175C384.607 186.98 385.345 186.752 386.068 186.499C386.217 186.448 386.368 186.395 386.514 186.339C387.576 185.95 388.617 185.506 389.631 185.007C390.523 184.571 391.396 184.097 392.25 183.585C392.678 183.331 393.097 183.068 393.507 182.798C393.668 182.696 393.82 182.591 393.977 182.478C394.135 182.364 394.28 182.272 394.433 182.167C395.585 181.364 396.699 180.503 397.773 179.583L398.023 179.365C398.105 179.296 398.184 179.222 398.269 179.152C398.5 178.949 398.729 178.743 398.957 178.533C399.33 178.191 399.697 177.844 400.057 177.491C400.881 176.687 401.675 175.856 402.438 174.999C403.041 174.327 403.622 173.643 404.187 172.944C405.93 170.782 407.522 168.502 408.949 166.12C414.707 156.511 417.144 146.497 415.315 142.342L415.284 142.27C414.734 141.075 413.817 140.384 412.511 140.347C409.722 140.311 406.939 140.062 404.188 139.602C394.272 137.839 384.334 132.165 387.635 114.026C391.899 90.6113 410.366 95.6441 416.439 85.5802C422.512 75.5164 430.872 63.3514 452.668 65.6578C460.641 66.5008 466.987 68.2078 471.789 71.1072C473.312 74.5713 474.691 78.1134 475.925 81.7336C476.106 82.2625 476.285 82.793 476.46 83.3251C476.465 83.3361 476.469 83.3473 476.472 83.3588C478.093 88.2601 479.479 93.2768 480.676 98.3431C480.881 99.2076 481.079 100.073 481.271 100.94C481.557 102.215 481.83 103.492 482.091 104.77C482.28 105.714 482.464 106.648 482.643 107.572Z" fill="#A8D29F"/>
<path d="M404.183 123.093V218.795H453.045C453.083 218.779 453.123 218.761 453.162 218.742L453.237 218.705H456.498V218.688H453.274C454.4 218.15 455.479 217.517 456.498 216.796C459.591 214.634 462.418 211.619 464.981 207.968C467.456 204.442 469.686 200.342 471.683 195.84C471.951 195.236 472.215 194.625 472.474 194.006V123.093H404.183Z" fill="#F9DDBF"/>
<path d="M484.941 132.136C484.413 149.973 480.42 175.09 472.478 194.003V123.093H473.203L481.044 122.987L484.872 122.936C485.016 125.678 485.038 128.777 484.941 132.136Z" fill="#FFF3E9"/>
<path d="M480.673 98.367C480.878 99.2314 481.076 100.097 481.268 100.963L480.762 102.004L470.516 123.093L468.182 127.901L467.461 129.385H399.481L404.183 123.295L404.336 123.098L434.742 83.3394L434.923 83.5044L455.415 83.4435L466.992 83.4067L476.469 83.3778C478.09 88.2839 479.475 93.3006 480.673 98.367Z" fill="#ED9F4A"/>
<path d="M482.088 104.796L473.203 123.082L472.485 124.561L470.15 129.37H402.169L404.188 126.754L407.019 123.093L436.216 85.2997L437.606 83.4998L455.423 83.4469L466.999 83.4117L476.46 83.3828C478.082 88.2841 479.467 93.3008 480.665 98.3671C480.87 99.2316 481.068 100.097 481.26 100.964C481.551 102.241 481.827 103.518 482.088 104.796Z" fill="#F9DDBF"/>
<path d="M484.872 122.933C484.781 120.929 484.585 118.932 484.285 116.948C483.943 114.801 483.578 112.653 483.191 110.505C483.015 109.53 482.832 108.554 482.643 107.578C482.463 106.654 482.278 105.729 482.088 104.804C481.826 103.522 481.553 102.245 481.268 100.973C481.076 100.108 480.878 99.2424 480.673 98.3769C479.475 93.3105 478.09 88.2938 476.468 83.3925C476.465 83.3811 476.462 83.3699 476.457 83.3589H455.277H434.75L434.901 83.564L436.224 85.3271L464.579 123.093L468.182 127.902L469.295 129.386L471.22 131.941L472.483 131.96L479.992 132.072L484.946 132.146C485.039 128.777 485.016 125.679 484.872 122.933Z" fill="#ED9F4A"/>
<path d="M424.384 112.425H425.363C426.91 112.425 428.394 113.039 429.488 114.133C430.581 115.226 431.196 116.708 431.196 118.254V133.76H418.355V118.445C418.355 116.847 418.99 115.315 420.121 114.185C421.251 113.055 422.785 112.42 424.384 112.42V112.425Z" fill="#EFCDAF"/>
<path d="M425.365 112.053H424.385C422.689 112.056 421.063 112.73 419.863 113.928C418.663 115.126 417.987 116.75 417.981 118.445V134.128H431.57V118.256C431.568 116.612 430.914 115.035 429.751 113.872C428.588 112.709 427.01 112.055 425.365 112.053ZM430.817 133.385H425.124V119.396H430.822L430.817 133.385ZM418.726 119.396H424.16V133.385H418.726V119.396ZM430.819 118.455H418.726C418.728 116.956 419.324 115.52 420.385 114.46C421.445 113.401 422.882 112.805 424.382 112.803H425.362C426.808 112.807 428.194 113.383 429.216 114.406C430.238 115.429 430.813 116.815 430.814 118.261L430.819 118.455Z" fill="#FFF3E9"/>
<path d="M444.313 112.425H445.293C446.839 112.426 448.321 113.041 449.414 114.134C450.507 115.227 451.12 116.709 451.12 118.254V133.76H438.291V118.445C438.291 116.847 438.926 115.315 440.056 114.185C441.187 113.055 442.72 112.42 444.319 112.42L444.313 112.425Z" fill="#EFCDAF"/>
<path d="M445.293 112.053H444.313C442.617 112.056 440.991 112.73 439.791 113.928C438.591 115.126 437.914 116.75 437.909 118.445V134.128H451.5V118.256C451.499 116.611 450.844 115.034 449.68 113.871C448.516 112.708 446.938 112.054 445.293 112.053ZM450.745 133.385H445.047V119.396H450.745V133.385ZM438.652 119.396H444.085V133.385H438.652V119.396ZM450.745 118.455H438.652C438.653 116.956 439.25 115.52 440.31 114.46C441.37 113.401 442.807 112.805 444.306 112.803H445.286C446.733 112.807 448.119 113.383 449.141 114.406C450.163 115.429 450.737 116.815 450.739 118.261L450.745 118.455Z" fill="#FFF3E9"/>
<path d="M430.195 142.235L414.264 175.015H365.865L391.097 142.355L430.195 142.235Z" fill="#ED9F4A"/>
<path d="M431.645 142.235L415.714 175.015H367.314L392.548 142.355L431.645 142.235Z" fill="#F9DDBF"/>
<path d="M415.608 175.015V218.704L367.316 218.798V175.015H415.608Z" fill="#F9DDBF"/>
<path d="M456.502 175.023V216.803C455.484 217.523 454.405 218.156 453.279 218.694H456.502V218.711H415.608V175.023H456.502Z" fill="#FFF3E9"/>
<path d="M460.998 176.954H417.066L391.097 142.354L404.183 142.357L434.273 142.363L460.998 176.954Z" fill="#ED9F4A"/>
<path d="M401.271 182.293V218.798H380.925V182.628C380.925 179.887 382.015 177.259 383.954 175.321C385.893 173.383 388.523 172.294 391.265 172.293C393.919 172.294 396.464 173.348 398.34 175.223C400.216 177.098 401.27 179.641 401.271 182.293Z" fill="#EFCDAF"/>
<path d="M460.998 176.954H458.132L418.355 142.357L434.274 142.363L460.998 176.954Z" fill="#E58638"/>
<path d="M391.208 173.581C393.462 173.581 395.624 174.476 397.218 176.069C398.812 177.662 399.707 179.822 399.707 182.075V217.362H382.419V182.356C382.422 180.028 383.348 177.796 384.996 176.15C386.644 174.505 388.878 173.581 391.208 173.581Z" fill="#FFF3E9"/>
<path d="M398.575 182.189V182.494H383.621V182.436C383.621 180.421 384.421 178.489 385.847 177.065C387.272 175.641 389.205 174.84 391.221 174.84C392.186 174.84 393.143 175.03 394.035 175.399C394.928 175.768 395.738 176.309 396.421 176.992C397.104 177.674 397.646 178.484 398.016 179.376C398.385 180.268 398.575 181.224 398.575 182.189Z" fill="#F9DDBF"/>
<path d="M398.266 179.168C397.855 178.218 397.258 177.361 396.508 176.648C395.759 175.935 394.874 175.379 393.905 175.015C393.047 174.694 392.137 174.531 391.221 174.534C390.182 174.534 389.153 174.739 388.194 175.136C387.234 175.533 386.362 176.116 385.627 176.85C384.893 177.584 384.31 178.456 383.913 179.415C383.516 180.374 383.311 181.402 383.311 182.441V182.811H398.888V182.192C398.89 181.152 398.678 180.123 398.266 179.168ZM383.937 182.183C383.97 181.223 384.193 180.279 384.594 179.405C384.994 178.532 385.564 177.747 386.27 177.095C386.431 176.954 386.58 176.82 386.751 176.693C388.03 175.693 389.608 175.151 391.232 175.153C392.741 175.151 394.21 175.636 395.421 176.536C395.581 176.661 395.751 176.794 395.902 176.93C396.725 177.662 397.366 178.575 397.773 179.597C398.1 180.42 398.268 181.296 398.267 182.181L383.937 182.183ZM397.937 179.187C397.933 179.179 397.93 179.171 397.927 179.163C397.878 179.056 397.825 178.95 397.767 178.842C397.709 178.735 397.679 178.671 397.631 178.589L397.578 178.498L397.527 178.41L397.51 178.382C397.485 178.339 397.458 178.298 397.429 178.254C397.4 178.211 397.347 178.124 397.302 178.06C397.257 177.996 397.214 177.934 397.167 177.87L397.077 177.749C397.034 177.692 396.991 177.636 396.944 177.579C396.898 177.523 396.859 177.475 396.814 177.419C396.77 177.363 396.725 177.313 396.678 177.259C396.632 177.204 396.59 177.163 396.543 177.115C396.497 177.067 396.481 177.047 396.447 177.014C396.414 176.98 396.346 176.913 396.287 176.865C396.228 176.817 396.202 176.783 396.159 176.744L396.077 176.672L395.891 176.924C396.714 177.655 397.355 178.568 397.762 179.591L398.012 179.373C397.993 179.315 397.966 179.25 397.937 179.19V179.187Z" fill="#EFCDAF"/>
<path d="M396.189 200.648C396.189 200.542 396.22 200.439 396.279 200.351C396.338 200.264 396.421 200.195 396.519 200.155C396.616 200.114 396.724 200.104 396.827 200.125C396.931 200.145 397.026 200.196 397.101 200.271C397.175 200.345 397.226 200.44 397.247 200.544C397.267 200.647 397.257 200.755 397.216 200.852C397.176 200.95 397.108 201.033 397.02 201.092C396.932 201.15 396.829 201.182 396.723 201.182C396.581 201.182 396.446 201.125 396.345 201.025C396.245 200.925 396.189 200.789 396.189 200.648Z" fill="#EFCDAF"/>
<path d="M396.098 176.663L395.897 176.93L391.97 182.182L391.503 182.804H391.205L390.667 182.182L386.269 177.095L386.06 176.855L386.532 176.448L386.743 176.693L391.328 181.997L395.413 176.537L395.599 176.289L396.098 176.663Z" fill="#EFCDAF"/>
<path d="M401.085 183.591H381.93V185.013H401.085V183.591Z" fill="#EFCDAF"/>
<path d="M383.701 186.347V216.016H398.5V186.347H383.701ZM398.341 215.86H383.86V186.505H398.341V215.86Z" fill="#EFCDAF"/>
<path d="M466.572 205.575C466.057 206.397 465.528 207.197 464.986 207.966C462.42 211.617 459.596 214.632 456.502 216.794C455.484 217.515 454.405 218.148 453.279 218.686C453.268 218.693 453.255 218.699 453.242 218.703L453.167 218.74C453.128 218.759 453.088 218.777 453.05 218.793C452.515 219.043 451.974 219.266 451.427 219.463L421.518 219.623C422.64 214.478 425.562 210.888 429.672 208.466C430.454 208.007 431.261 207.595 432.091 207.23C432.349 207.115 432.609 207.003 432.877 206.897C433.33 206.713 433.791 206.54 434.264 206.376C434.661 206.238 435.066 206.107 435.478 205.984C436.393 205.706 437.343 205.463 438.318 205.251C442.241 204.397 446.596 204.047 451.131 204.047C453.826 204.047 456.584 204.169 459.344 204.384C461.783 204.577 464.2 204.975 466.572 205.575Z" fill="#82B378"/>
<path d="M435.497 210.444C435.497 210.444 430.421 191.873 426.544 192.852C422.666 193.832 435.497 210.444 435.497 210.444Z" fill="#82B378"/>
<path d="M437.109 212.22C437.109 212.22 424 198.116 421.019 200.776C418.038 203.437 437.109 212.22 437.109 212.22Z" fill="#82B378"/>
<path d="M438.432 215.346C438.432 215.346 439.272 196.112 435.281 195.862C431.289 195.612 438.432 215.346 438.432 215.346Z" fill="#82B378"/>
<path d="M156.256 89.9829C156.256 89.9829 168.35 111.104 165.923 118.389C163.497 125.674 155.382 126.138 155.382 126.138L156.256 89.9829Z" fill="#F9DDBF"/>
<path d="M162.527 219.968H145.643C144.434 219.149 145.964 211.132 145.964 211.132C145.964 211.132 150.571 209.385 151.367 212.938C152.162 216.492 157.236 217.619 159.921 218.053C161.763 218.351 162.344 219.359 162.527 219.968Z" fill="#233862"/>
<path d="M137.487 219.968H120.598C119.387 219.149 120.919 211.132 120.919 211.132C120.919 211.132 125.528 209.385 126.323 212.938C127.119 216.492 132.193 217.619 134.876 218.053C136.723 218.351 137.302 219.359 137.487 219.968Z" fill="#233862"/>
<path d="M157.985 138.193C157.985 138.193 157.225 147.649 156.333 159.029C155.121 174.48 151.843 212.791 151.843 212.791C151.843 212.791 149.701 214.62 144.947 213.62C144.947 213.62 140.906 200.403 139.697 185.318C139.677 185.071 139.66 184.821 139.641 184.573C138.518 169.216 136.768 136.88 136.768 136.88L157.985 138.193Z" fill="#2B478B"/>
<path d="M158.243 134.921C158.243 134.921 157.225 147.655 156.333 159.03L139.709 185.316C139.69 185.069 139.672 184.819 139.653 184.571C138.531 169.214 136.781 136.878 136.781 136.878L158.243 134.921Z" fill="#233862"/>
<path d="M153.399 134.922C153.399 134.922 141.34 164.926 137.487 176.288C134.741 184.386 126.999 212.799 126.999 212.799C126.999 212.799 123.631 213.823 120.8 211.837C120.8 211.837 117.914 182.809 123.74 174.624C126.827 170.282 124.506 129.483 137.023 129.134C149.54 128.785 153.399 134.922 153.399 134.922Z" fill="#2B478B"/>
<path d="M148.021 90.7042C146.429 91.551 144.585 91.799 142.825 91.403C141.571 91.1214 140.376 90.6176 139.299 89.9156C138.796 89.6 138.322 89.2424 137.88 88.8466C137.88 88.8466 137.942 88.7568 138.04 88.5789C138.584 87.6493 140.232 84.3075 139.499 78.9382C139.49 78.8677 140.021 78.9671 140.826 79.1578C143.218 79.7236 148.028 81.0811 148.241 81.1469H148.249C148.249 81.1469 148.307 82.2768 148.506 84.3011C148.522 84.479 148.539 84.6666 148.56 84.8589C148.584 85.0961 148.608 85.3493 148.639 85.6074C148.868 87.715 148.021 90.7042 148.021 90.7042Z" fill="#FFB27D"/>
<path d="M148.512 84.3059C144.941 85.1249 139.61 79.855 139.61 79.855C139.987 79.5736 140.397 79.341 140.832 79.1626C143.225 79.7284 148.034 81.0859 148.248 81.1516H148.256C148.256 81.1516 148.313 82.28 148.512 84.3059Z" fill="#ED975D"/>
<path d="M159.87 129.869C159.61 133.309 158.883 135.769 157.289 135.769C157.289 135.769 150.206 138.263 141.733 138.334C140.08 138.347 137.735 138.024 135.792 137.693C133.808 137.356 132.235 137.018 132.235 137.018C130.531 136.625 128.654 135.575 128.905 133.634C129.038 132.601 129.136 131.275 129.202 129.74C129.202 129.642 129.202 129.542 129.215 129.443C129.401 124.955 129.375 118.757 129.394 112.83C129.411 109.19 129.446 105.652 129.569 102.667C129.569 102.667 127.898 90.9412 129.752 89.0179C131.927 86.774 138.309 86.0768 138.71 86.1634C138.829 86.1377 138.951 86.1073 139.073 86.0864C139.073 86.0864 144.623 89.1141 148.663 86.8493C148.663 86.8493 154.555 88.1893 156.25 89.9812C156.835 90.5966 159.169 94.3824 159.233 98.5384C159.321 104.334 159.095 110.918 159.095 110.92C159.156 111.861 159.255 113.074 159.368 114.459C159.486 115.935 159.618 117.603 159.728 119.341C159.783 120.218 159.834 121.104 159.876 122.006C160.007 124.768 160.049 127.544 159.87 129.869Z" fill="#F9DDBF"/>
<path d="M138.742 86.1699C138.742 86.1699 144.76 92.371 149.061 91.1016C149.061 91.1016 149.633 90.2634 147.696 89.9957C145.759 89.728 143.667 89.837 138.742 86.1699Z" fill="#F2CCAA"/>
<path d="M149.726 80.8648C148.639 81.2293 147.52 81.4901 146.384 81.6437C143.646 82.0139 140.046 81.796 138.916 78.4846C137.01 72.9118 134.576 69.57 140.182 67.2941C143.183 66.076 145.104 66.0119 146.408 66.4767C147.54 66.8774 148.209 67.6787 148.714 68.4721C149.803 70.1775 151.994 79.8903 149.726 80.8648Z" fill="#FFB27D"/>
<path d="M149.144 65.1062C150.411 65.414 150.98 67.4078 149.774 68.2364C147.614 69.7238 144.973 69.1404 144.001 69.5732C142.607 70.1918 142.356 72.5287 142.331 73.2708C142.307 74.0128 142.208 74.6411 140.316 74.1956C140.09 74.1197 139.843 74.1346 139.628 74.2372C138.842 74.7036 139.846 76.9619 140.149 77.4428C140.149 77.4428 140.583 79.06 139.616 79.8469C139.501 79.9415 137.601 80.7701 133.024 73.7708C132.304 72.6713 131.617 70.195 132.729 67.8117C133.84 65.4284 137.27 62.4777 141.388 62.4761C144.641 62.4825 146.459 64.4555 149.144 65.1062Z" fill="#163560"/>
<path d="M149.768 77.268C149.768 77.268 149.885 77.9893 148.207 78.5647C148.207 78.5647 146.798 79.0455 146.541 78.3082C146.541 78.3082 147.661 77.2424 149.768 77.268Z" fill="white"/>
<path d="M143.691 125.765C143.691 125.765 148.217 128.749 149.963 128.94C151.152 129.07 155.846 128.879 155.871 128.286C155.908 127.448 153.004 126.563 152.252 126.227C151.5 125.89 150.908 125.497 150.919 125.177C150.93 124.856 153.83 125.927 153.516 125.219C153.201 124.51 150.52 123.279 149.872 123.161C149.224 123.042 147.133 123.75 146.32 123.375C145.507 123 143.691 125.765 143.691 125.765Z" fill="#ED975D"/>
<path d="M145.682 123.147C146.283 124.269 143.695 125.765 143.695 125.765C143.695 125.765 136.542 129.164 129.208 129.741C129.208 129.644 129.208 129.544 129.221 129.445C129.407 124.957 129.382 118.759 129.401 112.832C129.401 112.835 144.689 121.287 145.682 123.147Z" fill="#F2CCAA"/>
<path d="M131.327 87.9297C131.327 87.9297 128.229 89.2376 124.545 96.1167C120.861 102.996 117.376 117.562 118.869 119.931C120.362 122.3 132.94 127.722 143.903 126.276C143.903 126.276 146.629 123.8 146.075 122.846C146.075 122.846 127.691 115.356 127.68 114.46C127.669 113.564 134.238 105.847 134.611 102.005C134.985 98.1634 131.327 87.9297 131.327 87.9297Z" fill="#F9DDBF"/>
<path d="M149.514 105.33C149.514 105.33 149.296 107.687 149.514 108.298C149.733 108.909 155.993 109.045 156.152 108.473C156.311 107.9 156.545 106.16 156.152 105.854C155.759 105.548 149.514 105.33 149.514 105.33Z" fill="#FFB27D"/>
<path d="M153.647 127.211H152.239C150.56 127.206 148.951 126.537 147.764 125.35C146.577 124.164 145.908 122.556 145.903 120.878V114.812C145.903 111.327 145.98 108.24 149.726 107.083L156.312 107.58C162.002 109.151 159.983 111.327 159.983 114.812V120.878C159.978 122.556 159.309 124.164 158.122 125.35C156.935 126.537 155.326 127.206 153.647 127.211Z" fill="#FFB27D"/>
<path d="M156.159 107.495C156.159 107.495 157.711 107.892 158.821 107.28C160.425 106.399 162.336 105.903 162.67 105.499C163.237 104.817 165.999 102.005 165.999 102.005L167.327 102.89C167.327 102.89 166.044 108.085 165.013 109.013C163.982 109.941 162.126 113.234 159 113.701C157.376 113.943 156.159 107.495 156.159 107.495Z" fill="#FFB27D"/>
<path d="M165.999 102.005C165.999 102.005 165.518 100.699 165.916 100.528C166.313 100.356 166.557 101.307 166.557 101.307C166.557 101.307 167.599 99.1461 168.658 100.079C169.716 101.012 167.335 102.89 167.335 102.89L165.999 102.005Z" fill="#FFB27D"/>
<path d="M149.487 107.154C149.487 107.154 147.935 107.553 146.825 106.94C145.221 106.057 143.31 105.564 142.976 105.16C142.41 104.477 139.648 101.664 139.648 101.664L138.321 102.55C138.321 102.55 139.604 107.745 140.635 108.673C141.666 109.601 143.521 112.895 146.647 113.361C148.27 113.603 149.487 107.154 149.487 107.154Z" fill="#FFB27D"/>
<path d="M139.647 101.664C139.647 101.664 140.128 100.358 139.73 100.186C139.333 100.015 139.097 100.967 139.097 100.967C139.097 100.967 138.054 98.8048 136.996 99.7392C135.938 100.674 138.319 102.551 138.319 102.551L139.647 101.664Z" fill="#FFB27D"/>
<path d="M158.872 118.389C158.872 118.389 162.56 120.005 164.503 120.575C166.315 121.107 168.557 122.38 168.603 122.585C168.65 122.79 168.674 124.589 167.755 124.941C166.836 125.294 156.864 126.719 155.382 126.139C155.382 126.139 156.447 118.993 158.872 118.389Z" fill="#FFB27D"/>
<path d="M168.465 118.843C168.465 118.843 166.701 118.966 165.675 120.255C165.536 120.422 165.349 120.542 165.139 120.599C164.929 120.657 164.707 120.648 164.503 120.575C164.503 120.575 161.736 122.338 163.499 125.674C163.499 125.674 167.224 125.441 167.755 124.941C168.286 124.441 168.465 118.843 168.465 118.843Z" fill="white"/>
<path d="M167.755 124.941C167.755 124.941 169.617 124.502 169.952 122.639C170.287 120.777 169.941 119.017 168.715 118.862C167.49 118.706 166.716 119.37 166.379 120.258C166.042 121.145 165.056 125.031 167.755 124.941Z" fill="#AFCDFB"/>
<path d="M153.445 92.7623C153.445 92.7623 157.161 92.6021 158.577 96.1282C159.993 99.6543 160.272 105.73 156.986 106.687C154.741 107.34 152.335 106.88 150.17 106.046C149.029 105.609 148.639 104.647 147.986 103.886C143.796 99.0019 145.149 93.1983 153.445 92.7623Z" fill="#FFB27D"/>
<path d="M145.903 117.511C145.903 117.511 153.208 119.077 159.975 117.511C159.975 117.511 160.748 118.83 160.848 119.222C161.061 120.059 160.678 121.431 159.174 123.178C156.959 125.743 149.391 127.666 146.742 126.02C144.418 124.581 143.893 119.678 145.903 117.511Z" fill="white"/>
<path d="M154.077 120.62C155.435 121.093 157.403 122.191 159.174 123.184C160.824 124.104 162.727 125.84 162.727 126.05C162.727 126.26 162.352 128.02 161.379 128.161C160.405 128.302 150.363 127.486 149.048 126.593C148.584 126.433 148.176 126.144 147.872 125.759C147.568 125.375 147.38 124.911 147.332 124.423C147.046 121.894 148.286 118.605 154.077 120.62Z" fill="#FFB27D"/>
<path d="M163.417 122.364C163.417 122.364 161.675 122.096 160.383 123.125C160.21 123.257 160.001 123.332 159.784 123.342C159.567 123.351 159.352 123.294 159.169 123.178C159.169 123.178 156.08 124.287 157.062 127.927C157.062 127.927 160.75 128.525 161.374 128.155C161.998 127.784 163.417 122.364 163.417 122.364Z" fill="white"/>
<path d="M161.379 128.155C161.379 128.155 163.292 128.137 164.029 126.391C164.767 124.646 164.822 122.856 163.661 122.434C162.5 122.013 161.598 122.487 161.074 123.277C160.549 124.067 158.728 127.645 161.379 128.155Z" fill="#AFCDFB"/>
<path d="M154.93 103.394C154.93 103.394 155.681 104.277 156.665 103.956C157.65 103.636 157.804 102.565 157.804 102.565C156.794 102.609 155.809 102.893 154.93 103.394Z" fill="white"/>
<path d="M150.214 101.135C150.214 101.135 148.77 99.872 148.315 100.789C147.859 101.706 148.903 103.047 149.758 103.063C150.613 103.079 150.78 101.545 150.214 101.135Z" fill="#ED975D"/>
<path d="M150.427 101.092C150.427 101.092 149.327 100.13 148.984 100.827C148.64 101.524 149.434 102.552 150.084 102.565C150.733 102.577 150.86 101.401 150.427 101.092Z" fill="#FFB27D"/>
<path d="M149.131 94.615C149.131 94.615 150.916 97.0384 154.664 96.9487C154.664 96.9487 156.138 96.7371 156.762 95.7835C156.762 95.7835 155.58 96.2643 154.954 96.0575C154.954 96.0575 158.482 95.5174 158.444 94.5734C158.405 93.6293 156.545 92.5699 155.192 92.408C154.114 92.2798 150.862 92.3006 149.87 92.8408C148.879 93.3809 148.855 94.2993 149.131 94.615Z" fill="#FF9843"/>
<path d="M150.722 92.5698C150.722 92.5698 146.631 93.235 145.903 96.4934C145.611 97.8045 146.224 99.7166 146.224 99.7166C146.224 99.7166 146.14 95.8379 149.412 95.6744C151.792 95.5574 153.351 95.3154 153.351 95.3154L150.722 92.5698Z" fill="#FF9843"/>
<path d="M151.311 112.105C151.311 112.153 151.296 112.2 151.269 112.241C151.242 112.281 151.204 112.313 151.159 112.331C151.114 112.35 151.065 112.355 151.017 112.345C150.97 112.336 150.926 112.312 150.892 112.278C150.857 112.244 150.834 112.2 150.825 112.152C150.815 112.105 150.82 112.056 150.839 112.011C150.857 111.966 150.889 111.928 150.929 111.901C150.969 111.874 151.017 111.859 151.065 111.859C151.13 111.859 151.193 111.885 151.239 111.931C151.285 111.977 151.311 112.04 151.311 112.105Z" fill="#ED975D"/>
<path d="M157.462 112.105C157.463 112.154 157.449 112.201 157.422 112.242C157.395 112.283 157.356 112.315 157.311 112.334C157.266 112.353 157.216 112.358 157.168 112.349C157.12 112.339 157.076 112.316 157.041 112.281C157.007 112.247 156.983 112.203 156.973 112.155C156.964 112.107 156.969 112.057 156.987 112.012C157.006 111.967 157.037 111.928 157.078 111.901C157.119 111.874 157.167 111.859 157.215 111.859C157.248 111.859 157.28 111.865 157.31 111.878C157.34 111.89 157.367 111.908 157.39 111.931C157.413 111.953 157.431 111.981 157.444 112.01C157.456 112.04 157.462 112.072 157.462 112.105Z" fill="#ED975D"/>
<path d="M162.615 116.751C162.519 116.39 162.344 116.054 162.103 115.769C161.862 115.483 161.56 115.254 161.22 115.099C160.346 114.693 159.106 114.151 158.542 114.049C157.619 113.881 155.737 112.767 155.583 113.348C155.429 113.93 156.912 114.591 156.92 115.224C156.928 115.857 152.751 117.41 152.866 118.067C152.982 118.724 154.167 120.195 155.783 119.803C157.4 119.41 161.414 118.469 162.341 118.21C162.836 118.072 162.788 117.389 162.615 116.751Z" fill="#ED975D"/>
<path d="M208.449 209.061C208.449 209.061 207.782 210.247 208.288 211.56C208.611 212.333 208.641 213.196 208.373 213.99C208.324 214.132 208.236 214.257 208.118 214.351C208.001 214.445 207.86 214.505 207.711 214.522C207.561 214.54 207.41 214.516 207.274 214.451C207.138 214.387 207.023 214.286 206.941 214.16L203.078 208.34C203.001 208.223 202.949 208.091 202.925 207.953C202.902 207.815 202.908 207.673 202.943 207.537C202.977 207.401 203.04 207.274 203.127 207.164C203.214 207.054 203.323 206.963 203.447 206.898C203.907 206.655 204.44 206.367 204.837 206.131C205.706 205.617 206.943 206.01 206.943 206.01L208.449 209.061Z" fill="#2C3A64"/>
<path d="M219.2 197.302C218.177 200.507 208.818 210.605 208.818 210.605C208.818 210.605 204.808 207.665 204.911 205.54C204.911 205.54 209.841 196.367 209.892 195.242C209.905 194.974 209.344 193.875 208.489 192.338C208.373 192.129 208.253 191.916 208.127 191.697C206.65 189.076 204.523 185.48 202.857 182.481L202.738 182.268C201.247 179.57 200.159 177.398 200.31 176.932C200.746 175.574 213.579 173.746 213.579 173.746C213.579 173.746 220.223 194.096 219.2 197.302Z" fill="#35488B"/>
<path d="M208.126 191.703C206.649 189.082 204.523 185.486 202.857 182.487L202.738 182.274V179.068L207.198 178.389L208.126 191.703Z" fill="#2C3A64"/>
<path d="M191.947 212.208C191.947 212.208 191.246 215.118 191.956 216.333C192.396 217.045 192.562 217.893 192.421 218.718C192.395 218.866 192.327 219.003 192.227 219.114C192.126 219.226 191.996 219.306 191.852 219.347C191.707 219.388 191.554 219.388 191.41 219.347C191.266 219.305 191.136 219.224 191.036 219.112L186.305 213.971C186.209 213.868 186.137 213.746 186.092 213.613C186.047 213.48 186.03 213.339 186.043 213.199C186.056 213.059 186.098 212.924 186.166 212.801C186.235 212.679 186.329 212.572 186.441 212.488C186.856 212.168 187.338 211.809 187.694 211.512C188.471 210.871 189.754 211.062 189.754 211.062L191.947 212.208Z" fill="#2C3A64"/>
<path d="M207.316 175.645C207.316 175.645 202.345 192.955 200.482 197.31C199.199 200.34 192.962 214.345 192.962 214.345C192.962 214.345 186.744 212.451 187.164 210.534C187.164 210.534 191.134 196.172 191.844 194.548C192.766 192.442 192.187 178.102 195.693 175.52C199.199 172.938 207.316 175.645 207.316 175.645Z" fill="#35488B"/>
<path d="M207.286 151.749C207.286 151.749 215.154 143.472 215.587 142.389C216.02 141.305 217.659 131.811 217.659 131.811L219.704 131.891C219.704 131.891 220.241 143.08 219.567 145.324C218.894 147.567 209.653 157.634 209.653 157.634L207.286 151.749Z" fill="#FFB27D"/>
<path d="M205.815 149.313C205.57 148.94 205.381 148.534 205.253 148.106C204.997 147.205 204.888 146.269 204.932 145.333C204.943 144.93 204.979 144.527 205.041 144.128L199.622 141.897C199.808 143.105 199.861 144.33 199.782 145.55C199.622 148.088 198.937 149.686 198.937 149.686L199.03 149.93C198.426 150.044 197.786 150.175 197.106 150.328L204.115 154.03L208.168 149.819C208.168 149.819 207.604 149.42 205.815 149.313Z" fill="#FFB27D"/>
<path d="M205.253 148.106C202.289 148.266 199.791 145.549 199.791 145.549L204.932 145.333C204.889 146.269 204.997 147.205 205.253 148.106Z" fill="#EA9C68"/>
<path d="M195.385 152.058C195.385 152.058 188.866 144.925 185.803 142.798C185.803 142.798 181.085 133.461 180.713 132.851C180.341 132.24 178.404 133.575 178.404 133.575C178.404 133.575 180.62 142.847 182.37 145.506C184.119 148.165 189.599 157.117 192.954 157.189C196.309 157.261 195.385 152.058 195.385 152.058Z" fill="#FFB27D"/>
<path d="M206.556 146.341C206.556 146.341 200.783 148.385 198.366 143.866C195.752 138.991 197.856 135.107 199.837 134.692C203.79 133.867 206.236 135.197 207.07 136.747C207.904 138.297 209.735 145.243 206.556 146.341Z" fill="#FFB27D"/>
<path d="M203.71 143.876C203.71 143.876 204.387 144.719 205.913 144.25C205.913 144.25 207.307 143.878 206.896 142.945C205.758 142.87 204.629 143.199 203.71 143.876Z" fill="white"/>
<path d="M199.548 145.42C199.548 145.42 198.689 143.448 198.682 142.358C198.682 142.358 196.981 140.525 197.837 139.965C198.693 139.406 199.28 140.526 199.46 140.286C199.64 140.046 199.649 136.162 200.743 136.194C201.837 136.226 205.973 137.14 207.613 135.471C209.254 133.803 204.481 128.206 197.415 131.107C190.349 134.008 192.49 141.946 199.548 145.42Z" fill="#2C3A64"/>
<path d="M194.091 134.564C194.091 134.564 193.68 133.603 193.975 132.881C193.975 132.881 194.073 133.843 194.487 134.242C194.901 134.641 194.091 134.564 194.091 134.564Z" fill="#2C3A64"/>
<path d="M194.185 133.865C194.185 133.865 193.278 133.838 192.912 134.564C193.093 134.427 193.31 134.347 193.537 134.333C193.763 134.318 193.989 134.371 194.185 134.484V133.865Z" fill="#2C3A64"/>
<path d="M213.14 177.996C206.186 180.32 197.053 180.096 194.798 179.998C194.461 179.984 194.278 179.971 194.278 179.971C193.477 179.865 192.895 179.277 192.835 178.573C192.827 178.48 192.827 178.387 192.835 178.294L194.068 167.586L192.925 162.361L192.284 159.374L190.797 152.565C193.72 150.921 196.423 149.946 198.928 149.409C199.972 150.225 201.995 151.384 204.117 150.956C205.711 150.635 206.014 149.847 205.918 149.023C209.324 149.244 211.154 149.961 211.154 149.961L215.385 174.542C215.641 176.012 214.703 177.474 213.14 177.996Z" fill="#F99746"/>
<path d="M187.23 153.812C187.23 153.812 191.608 156.312 192.093 158.532C192.093 158.532 198.159 153.685 198.921 149.409C197.931 149.455 196.956 149.664 196.035 150.028C195.501 149.846 194.939 149.761 194.375 149.776L191.007 147.484C191.007 147.484 187.397 148.749 187.23 153.812Z" fill="#F99746"/>
<path d="M205.915 149.023C205.915 149.023 207.679 148.72 208.321 148.823C208.321 148.823 208.619 148.552 209.36 148.451L213.002 145.665C213.002 145.665 215.786 148.069 215.407 151.765C215.407 151.765 212.373 153.975 212.378 154.456C212.383 154.937 212.465 157.662 212.465 157.662L205.915 149.023Z" fill="#F99746"/>
<path d="M217.659 131.803C217.63 131.25 217.503 130.707 217.282 130.2C216.937 129.487 216.945 127.557 217.316 127.635C217.686 127.714 217.582 128.416 217.981 128.3C218.38 128.185 218.842 125.906 219.386 126.065C219.93 126.223 220.375 126.941 220.348 128.575C220.321 130.208 219.707 131.876 219.707 131.876L217.659 131.803Z" fill="#FFB27D"/>
<path d="M180.666 132.84C180.494 132.245 180.429 131.624 180.474 131.006C180.573 130.12 179.847 128.075 179.481 128.294C179.116 128.514 179.481 129.221 179.024 129.248C178.567 129.275 177.217 127.026 176.699 127.397C176.181 127.767 175.976 128.695 176.614 130.418C177.252 132.141 178.525 133.684 178.525 133.684L180.666 132.84Z" fill="#FFB27D"/>
<path d="M251.032 143.5C251.032 143.5 248.145 143.695 246.971 144.423C245.797 145.15 244.726 145.431 244.941 145.766C245.156 146.101 247.21 145.388 247.252 145.766C247.293 146.144 245.435 147.277 244.915 147.361C244.396 147.444 243.22 147.614 243.43 148.285C243.64 148.957 245.63 149.167 247.218 149.209C248.806 149.25 252.671 146.689 252.671 146.689L251.032 143.5Z" fill="#FFB27D"/>
<path d="M253.133 147.109C256.051 147.109 265.685 140.675 268.923 138.077C269.203 137.859 269.47 137.625 269.724 137.377C270.932 136.148 275.095 130.083 278.049 124.681C279.751 121.57 281.051 118.679 281.154 117.06C281.523 111.277 278.479 103.191 278.479 103.191C269.476 106.323 268.536 113.507 268.536 113.507L263.921 130.668C263.676 131.581 263.154 132.396 262.426 133L250.228 143.136C249.808 144.872 252.158 147.111 253.133 147.109Z" fill="#F9DDBF"/>
<path d="M268.923 138.077C269.203 137.859 269.471 137.625 269.724 137.377C270.932 136.148 275.095 130.083 278.049 124.681C278.433 121.416 278.17 118.355 276.824 116.214C276.822 116.214 269.168 129.672 268.923 138.077Z" fill="#F2CCAA"/>
<path d="M274.109 191.564L275.64 197.941L276.587 201.89L279.739 215.033C279.739 215.033 282.44 215.865 285.245 215.033C285.936 211.82 286.294 208.543 286.313 205.256C286.329 202.419 286.069 199.286 285.239 196.329C284.908 195.128 284.469 193.96 283.925 192.84C279.476 183.761 274.109 191.564 274.109 191.564Z" fill="#FFB27D"/>
<path d="M271.497 218.87H286.315C286.315 218.87 286.549 216.626 285.896 214.487C285.8 214.166 285.682 213.851 285.543 213.546C285.543 213.546 282.236 214.294 279.384 213.546C279.384 213.546 276.701 215.828 275.079 216.529C273.458 217.229 271.667 216.856 271.497 218.87Z" fill="#2B478B"/>
<path d="M275.64 197.943L276.587 201.892C279.531 203.738 282.857 204.889 286.313 205.258C286.329 202.421 286.069 199.287 285.238 196.33C283.877 195.639 282.49 195.279 281.308 195.484C278.367 195.999 276.619 197.072 275.64 197.943Z" fill="#E8945B"/>
<path d="M279.193 218.87H286.315C286.315 218.87 286.549 216.626 285.896 214.486C284.108 215.042 280.469 216.439 279.193 218.87Z" fill="#1F396D"/>
<path d="M285.922 191.564L287.452 197.941L288.4 201.89L291.552 215.033C291.552 215.033 294.251 215.865 297.056 215.033C297.747 211.82 298.105 208.543 298.124 205.256C298.142 202.419 297.881 199.286 297.052 196.329C296.72 195.128 296.28 193.96 295.737 192.84C291.289 183.761 285.922 191.564 285.922 191.564Z" fill="#FFB27D"/>
<path d="M297.356 213.544C297.356 213.544 294.048 214.296 291.195 213.544C291.195 213.544 288.514 215.828 286.892 216.528C285.271 217.229 283.48 216.849 283.31 218.872H298.128C298.128 218.872 298.436 215.914 297.356 213.544Z" fill="#2B478B"/>
<path d="M287.452 197.943L288.399 201.892C291.343 203.738 294.669 204.889 298.124 205.258C298.142 202.421 297.881 199.287 297.051 196.33C295.688 195.639 294.301 195.279 293.121 195.484C290.18 195.999 288.432 197.072 287.452 197.943Z" fill="#E8945B"/>
<path d="M271.973 198.845C277.509 202.358 300.565 199.847 300.754 196.441C300.754 196.441 299.612 187.925 299.224 184.358C299.064 182.875 298.989 181.691 299.082 181.07C301.487 165.203 303.493 146.531 303.251 142.96C303.216 142.456 303.192 142.197 303.192 142.197C303.192 142.197 301.462 142.051 298.83 141.95C291.177 141.647 275.897 141.7 273.366 146.7C270.781 151.794 270.717 181.389 270.717 181.389C270.715 189.535 271.973 198.845 271.973 198.845Z" fill="#F99746"/>
<path d="M299.225 184.362C299.064 182.88 298.989 181.695 299.082 181.075C301.487 165.208 303.494 146.535 303.251 142.964C303.216 142.461 303.192 142.201 303.192 142.201C303.192 142.201 301.462 142.056 298.83 141.955C294.87 144.283 292.295 148.254 292.295 148.254C292.295 148.254 293.09 177.934 299.225 184.362Z" fill="#ED7D2B"/>
<path d="M288.638 80.2124C288.638 78.1496 287.452 76.6607 285.163 76.526C283.484 76.4202 281.164 77.438 281.164 79.5008C281.164 81.5636 282.836 83.9549 284.902 83.9549C285.393 83.9549 285.88 83.858 286.334 83.6699C286.787 83.4817 287.2 83.2059 287.547 82.8583C287.894 82.5106 288.169 82.098 288.356 81.644C288.544 81.19 288.639 80.7035 288.638 80.2124Z" fill="#BBD2EF"/>
<path d="M285.458 95.1248C285.458 95.1248 294.439 87.0372 287.53 80.8232C286.86 80.2221 286.045 79.8052 285.165 79.6131C282.746 79.0858 277.373 78.3453 274.654 81.3473C271.728 84.5785 270.57 87.0388 273.01 89.9847C275.451 92.9306 285.458 95.1248 285.458 95.1248Z" fill="#D5E5FB"/>
<path d="M297.183 148.685C296.931 149.801 296.851 150.95 296.946 152.091C297.177 154.693 297.653 156.12 299.342 156.966C299.342 156.966 301.292 158.3 301.587 156.567C301.882 154.835 301.293 154.774 301.765 152.342C302.236 149.911 301.88 148.064 300.482 146.97L297.183 148.685Z" fill="#FFB27D"/>
<path d="M277.352 95.0443C277.352 95.0443 277.473 96.3778 277.7 98.1777C277.809 99.0577 277.943 100.051 278.102 101.053C278.214 101.774 278.341 102.496 278.477 103.194L281.539 113.528L288.727 101.901C288.727 101.901 287.038 100.505 284.748 92.9351C284.727 92.8533 284.711 92.8101 284.711 92.8101L277.352 95.0443Z" fill="#FFB27D"/>
<path d="M273.163 146.013C273.07 147.173 273.363 147.385 273.363 147.385C273.363 147.385 277.783 148.988 288.9 148.431C290.102 148.373 291.234 148.311 292.293 148.247C299.457 147.826 303.288 147.385 303.288 147.385C303.288 147.385 309.156 133.849 298.132 117.173C296.792 115.151 295.315 113.223 293.712 111.403C291.927 109.367 291.533 106.644 290.858 104.057C290.664 103.315 291.223 103.151 290.944 102.454C290.944 102.454 288.933 101.885 288.727 101.885C287.585 102.892 286.079 104.846 282.341 105.232C279.813 105.495 278.824 104.071 278.465 103.219C277.502 103.567 276.503 104.168 275.685 104.56C268.911 107.811 268.289 114.113 268.289 114.113C268.289 114.113 274.515 134.569 274.901 137.124C275.073 138.271 273.645 140.038 273.163 146.013Z" fill="#F9DDBF"/>
<path d="M277.7 98.1748C277.809 99.0547 277.943 100.048 278.102 101.05C285.96 97.9969 284.955 93.7207 284.748 92.9321C284.727 92.8504 284.711 92.8071 284.711 92.8071C284.711 92.8071 280.684 95.6649 277.7 98.1748Z" fill="#E8945B"/>
<path d="M276.067 99.1974C276.067 99.1974 284.858 99.4795 284.95 94.0061C285.041 88.5326 286.233 84.8799 280.63 84.4696C275.026 84.0593 273.894 86.1284 273.413 87.9476C272.932 89.7667 273.783 98.9827 276.067 99.1974Z" fill="#FFB27D"/>
<path d="M275.301 83.6487C275.301 83.6487 275.852 94.0795 286.57 93.1051C286.57 93.0986 286.342 79.1497 275.301 83.6487Z" fill="#D5E5FB"/>
<path d="M277.352 84.5576C277.352 84.5576 274.175 86.4954 273.182 89.6015C273.187 89.5951 269.644 84.6666 277.352 84.5576Z" fill="#D5E5FB"/>
<path d="M292.293 148.257C299.457 147.835 303.288 147.394 303.288 147.394C303.288 147.394 309.156 133.859 298.132 117.182C295.901 122.378 290.637 136.273 292.293 148.257Z" fill="#F2CCAA"/>
<path d="M288.727 101.898C288.727 101.898 297.226 103.643 301.021 108.027C303.923 111.393 307.1 127.816 307.1 130.53C307.1 133.125 304.117 146.915 302.254 149.56C302.192 149.65 302.106 149.722 302.006 149.768C301.906 149.814 301.796 149.832 301.686 149.821L296.896 149.314C296.802 149.304 296.711 149.275 296.628 149.229C296.545 149.183 296.473 149.12 296.415 149.046C296.357 148.971 296.314 148.885 296.29 148.794C296.266 148.702 296.26 148.607 296.274 148.513L298.966 131.08L289.519 114.335C289.519 114.335 283.949 107.73 288.727 101.898Z" fill="#F9DDBF"/>
<path d="M297.149 149.826C297.149 149.826 295.889 153.448 296.226 153.783C296.562 154.118 297.443 152.65 297.443 152.65L297.149 149.826Z" fill="#FFB27D"/>
<path d="M274.977 95.506C274.977 95.506 275.236 96.402 275.657 96.4853C276.077 96.5687 276.749 96.7097 277.337 96.4853C277.504 96.4262 277.657 96.3336 277.787 96.2132C277.917 96.0927 278.021 95.947 278.092 95.7849C277.087 95.4621 276.023 95.3668 274.977 95.506Z" fill="white"/>
<path d="M115.859 149.77L113.542 150.199C113.542 150.199 107.198 140.422 107.015 137.444C106.84 134.599 101.123 122.144 107.817 114.364C108.125 114.004 108.455 113.661 108.803 113.339C108.814 113.325 108.827 113.312 108.841 113.302L108.874 113.356C109.01 113.584 109.542 114.544 110.156 116.666C111.132 119.984 112.338 126.143 112.623 136.779C112.629 136.782 114.183 145.889 115.859 149.77Z" fill="#F4A671"/>
<path d="M115.859 149.77C115.859 149.77 117.971 152.119 118.035 152.975C118.12 154.11 117.242 155.979 116.669 155.798C116.097 155.617 116.028 154.695 115.867 153.991C115.707 153.288 114.948 152.533 114.993 152.852C115.038 153.171 115.474 154.421 115.341 154.615C115.208 154.809 115.04 154.775 114.714 154.179C114.323 153.459 113.479 152.454 113.592 151.712C113.71 150.911 113.726 150.751 113.431 149.789C113.136 148.827 112.629 147.673 112.629 147.673L114.4 147.295L115.859 149.77Z" fill="#F4A671"/>
<path d="M66.1591 215.413L63.3895 216.855C62.2483 215.334 61.2013 213.744 60.2543 212.095C59.2199 210.271 58.2689 208.226 58.0364 206.551C57.4703 202.483 53.1627 195.798 53.6102 194.66C54.0576 193.522 62.6037 191.552 62.6037 191.552C62.6037 191.552 64.2731 202.982 65.3845 210.37C65.7084 212.528 65.9843 214.336 66.1591 215.413Z" fill="#FFB27D"/>
<path d="M66.159 215.413L63.3894 216.855C62.2482 215.334 61.2012 213.744 60.2542 212.095C62.0821 211.958 63.8464 211.365 65.386 210.371C65.7084 212.528 65.9842 214.336 66.159 215.413Z" fill="white"/>
<path d="M59.8678 194.162C59.8678 194.162 56.3702 199.095 54.2549 206.022C53.7561 207.655 52.0578 209.688 50.3402 211.496C48.674 213.249 46.9901 214.788 46.3679 215.546L43.5486 214.19C44.2235 212.322 45.045 210.51 46.0055 208.771C46.5144 207.842 47.1185 206.969 47.808 206.165C48.7061 205.16 48.4094 192.474 49.3043 191.637C50.1991 190.801 59.8678 194.162 59.8678 194.162Z" fill="#FFB27D"/>
<path d="M51.9326 171.537H51.9461C51.9343 171.552 51.9326 171.537 51.9326 171.537Z" fill="#FFB27D"/>
<path d="M59.1605 175.896L51.9438 171.545C51.9839 171.529 52.1299 171.311 52.6703 169.751C52.864 169.2 53.0015 168.631 53.0809 168.052C53.0809 168.006 53.0937 167.963 53.0969 167.918C53.1429 167.57 53.1499 167.219 53.1178 166.87L54.6974 167.442L57.621 168.5C57.5873 169.24 57.6915 169.761 57.8487 170.12C58.2304 170.989 58.9424 170.994 58.9616 170.994L59.1605 175.896Z" fill="#FFB27D"/>
<path d="M57.8504 170.12C56.946 170.202 56.0356 170.055 55.2026 169.694C54.3696 169.333 53.6407 168.768 53.0826 168.052C53.0313 167.985 53.0056 167.947 53.0056 167.947L53.0986 167.918L54.7023 167.437L57.6258 168.495C57.5889 169.24 57.6932 169.761 57.8504 170.12Z" fill="#ED985F"/>
<path d="M57.9914 169.105C57.9914 169.105 51.7145 169.795 51.5862 165.552C51.4579 161.31 50.5294 159.37 54.8738 158.992C59.2182 158.614 60.2414 160.176 60.498 161.612C61.2966 166.095 59.7603 168.915 57.9914 169.105Z" fill="#FFB27D"/>
<path d="M46.2844 154.705C46.1978 154.509 46.1353 154.384 46.1353 154.384C46.2029 154.482 46.2534 154.59 46.2844 154.705Z" fill="#D35C2B"/>
<path d="M60.0105 171.418C60.0105 171.418 66.0292 166.797 66.6707 165.267C67.3121 163.736 70.0769 158.136 70.7906 157.565C70.7906 157.565 72.2868 157.373 72.5001 158.407C72.7134 159.441 71.076 165.586 69.9342 167.442C68.7924 169.298 63.3189 175.585 61.5212 176.497L60.0105 171.418Z" fill="#FFB27D"/>
<path d="M74.6363 154.733C74.5368 155.269 74.3155 155.844 74.0605 156.142C73.7238 156.538 73.1881 157.333 72.8498 157.847C72.6317 158.168 72.4937 158.404 72.4937 158.404L70.7858 157.57C70.7858 157.57 70.7473 154.674 71.8779 154.06C71.918 154.039 71.9373 154.02 71.9773 154.02C72.4007 153.791 72.8461 153.604 73.3068 153.464C73.8424 153.326 74.2594 153.304 74.4984 153.445C74.7373 153.586 74.7565 154.139 74.6363 154.733Z" fill="#FFB27D"/>
<path d="M55.2106 161.064C52.9895 160.502 53.8395 164.43 53.2862 164.166C52.6575 163.865 51.5782 163.869 51.7482 164.626C51.9182 165.382 52.1652 165.655 52.2935 166.128C52.4218 166.6 52.2935 167.538 51.7755 167.349C51.2575 167.16 46.456 161.678 49.8511 157.412C53.2461 153.145 63.3558 155.772 60.1709 160.239C59.5999 161.021 56.7919 161.464 55.2106 161.064Z" fill="#2B478B"/>
<path d="M65.7806 202.365C65.7806 202.365 59.6048 203.66 56.662 203.261C52.6977 202.724 49.184 202.634 45.4746 200.634C45.4746 200.634 47.4456 190.847 47.5674 190.376C47.7422 189.69 49.0027 184.433 50.167 179.567C51.2319 175.118 52.2166 170.997 52.2166 170.997C52.2166 170.997 55.1561 173.08 56.8673 172.348C58.5784 171.615 58.3603 170.779 58.3603 170.779C58.3603 170.779 59.4829 170.327 60.0057 170.494C60.5285 170.66 62.0232 169.814 62.0232 169.814C62.0232 169.814 63.6718 171.087 63.7343 173.821C63.7441 174.26 63.7152 174.698 63.6477 175.132L62.4594 176.502C62.4594 176.502 65.1472 192.883 65.7806 202.365Z" fill="#F99746"/>
<path d="M70.7423 218.817H62.4768C62.3884 217.988 62.3992 217.151 62.5089 216.324C62.5366 216.18 62.6077 216.049 62.7126 215.947C63.3554 216.174 64.0567 216.174 64.6996 215.947C65.2456 215.751 65.7437 215.441 66.1605 215.038C66.2471 215.12 67.9551 216.747 68.7441 216.747C69.5331 216.747 70.7904 217.133 70.7423 218.817Z" fill="#AA443E"/>
<path d="M50.3368 211.501C48.6706 213.254 46.9867 214.793 46.3645 215.551L43.5452 214.195C44.22 212.327 45.0416 210.515 46.002 208.776C46.4802 209.52 47.1165 210.15 47.8656 210.621C48.6148 211.092 49.4585 211.392 50.3368 211.501Z" fill="white"/>
<path d="M46.9757 214.821C46.9757 214.821 46.8731 216.615 47.4712 216.854C48.0694 217.092 49.184 217.679 49.184 218.817H45.0448C45.0448 218.817 42.1886 217.413 41.8086 216.817C41.4285 216.22 43.7106 213.675 43.7106 213.675C43.7106 213.675 45.1122 215.225 46.9757 214.821Z" fill="#AA443E"/>
<path d="M53.8265 185.675C53.8265 185.675 55.6387 185.337 56.3475 185.8C57.0564 186.263 57.2664 186.991 56.7565 187.287C55.1528 188.217 53.5347 187.189 53.5347 187.189L53.8265 185.675Z" fill="#FFB27D"/>
<path d="M52.2903 171.561C52.2903 171.561 46.7062 172.742 44.5043 181.418C44.3987 181.837 44.3976 182.275 44.5014 182.694C44.6051 183.114 44.8105 183.501 45.0993 183.822C46.1113 184.944 48.3436 186.584 53.5348 187.188C54.1009 187.254 54.1763 185.816 54.1763 185.816C54.1185 185.931 50.6481 183.572 49.1727 182.309C48.9049 182.082 48.9161 181.601 49.1102 181.306C49.6089 180.545 50.446 179.222 50.7267 178.554C51.1388 177.571 53.8507 172.008 52.2903 171.561Z" fill="#FFB27D"/>
<path d="M52.2181 170.994C52.2181 170.994 48.9354 171.228 46.2588 174.794C46.2588 174.794 47.1633 178.076 51.4163 178.951C51.4163 178.951 54.0448 173.044 52.2181 170.994Z" fill="#F99746"/>
<path d="M51.4162 156.11C51.4162 156.11 48.2585 155.251 46.1352 157.553C44.0119 159.854 47.0974 164.081 44.1354 166.393C41.1734 168.706 42.3393 170.432 43.5452 170.995C46.2587 172.261 50.4026 170.686 49.5591 168.548C49.0851 167.37 48.9082 166.094 49.0438 164.831C49.1794 163.569 49.6235 162.36 50.3369 161.309L51.4162 156.11Z" fill="#2B478B"/>
<path d="M94.3231 192.214L94.3327 192.293C94.3327 192.341 94.3439 192.384 94.3455 192.421C94.6996 195.517 95.3062 198.579 96.1593 201.576C97.4459 206.199 99.1697 210.688 101.307 214.985L103.827 214.751C103.827 214.751 102.449 208.896 102.329 200.943C102.247 195.381 102.779 188.797 104.827 182.471C106.025 178.77 106.975 175.247 107.722 171.945C110.163 161.173 110.477 152.781 110.419 148.412C110.391 146.255 110.27 145.078 110.27 145.078L96.1096 147.075L95.4489 147.168C95.5451 153.688 95.5884 162.544 95.6093 169.466C95.6093 171.136 95.6173 172.694 95.6205 174.079C95.6205 176.002 95.6205 177.59 95.6205 178.69V180.358C94.8186 182.211 94.3744 184.287 94.2076 186.483C94.0795 188.393 94.1182 190.311 94.3231 192.214Z" fill="#F99746"/>
<path d="M99.7581 212.307C99.6972 211.986 99.609 211.56 99.5095 211.101C98.1884 208.002 97.0693 204.82 96.1594 201.576C99.726 201.874 101.484 201.393 102.33 200.935C102.372 203.64 102.556 206.342 102.882 209.028C103.254 210.42 103.939 212.645 104.723 213.578C105.969 215.062 107.344 216.338 109 217.178C109.186 217.271 104.851 218.795 102.635 218.562C100.419 218.33 98.5874 217.937 98.7863 216.567C98.8534 216.079 98.9839 215.602 99.1744 215.149C99.5336 214.35 99.9425 213.288 99.7581 212.307Z" fill="#FFB27D"/>
<path d="M94.3231 192.214C94.0986 189.619 98.5296 180.661 98.5296 180.661L95.6205 178.69V180.358C94.8186 182.211 94.3744 184.287 94.2076 186.483C94.0795 188.393 94.1182 190.311 94.3231 192.214Z" fill="#E07D32"/>
<path d="M102.808 218.96C105.034 218.843 104.412 219.365 107.502 219.601C110.593 219.836 111.725 218.884 111.903 218.452C112.063 218.069 110.591 217.65 109.016 217.157L108.995 217.184C107.541 217.77 105.955 217.952 104.406 217.71C102.342 217.371 100.278 216.371 98.8553 216.126C98.7121 216.588 98.6323 217.067 98.6179 217.551C98.6372 218.939 100.582 219.077 102.808 218.96Z" fill="#1C468A"/>
<path d="M95.449 147.168C95.5452 153.688 95.5885 162.544 95.6093 169.466C95.6093 171.136 98.5297 179.277 98.5329 180.661C100.89 177.296 102.932 154.087 106.195 148.213C106.167 146.057 110.274 145.078 110.274 145.078L96.1129 147.075L95.449 147.168Z" fill="#E07D32"/>
<path d="M93.2119 86.3593C93.1285 86.0659 92.0621 82.7578 86.8998 83.8557C86.8998 83.8557 89.4849 83.5352 90.1922 84.5257C90.1922 84.5257 88.1442 83.5881 86.8613 84.3654C85.5783 85.1428 85.3682 87.7905 85.5591 88.5935C85.7499 89.3965 87.1628 91.7894 88.1058 91.7894C88.4769 91.7734 88.8411 91.6834 89.177 91.525C89.0223 91.9813 88.8948 92.4464 88.7953 92.9178C87.7994 97.6043 90.917 101.166 92.5287 100.291C93.5631 99.7248 94.3457 101.534 94.3457 101.534L102.926 90.1674C102.926 90.1674 96.9453 82.9902 93.2119 86.3593Z" fill="#233862"/>
<path d="M106.691 141.599C102.797 129.161 107.065 126.457 106.659 120.234C106.253 114.01 101.432 107.319 101.432 107.319C101.432 107.319 101.185 107.293 100.77 107.256C100.449 107.085 100.359 105.732 100.364 104.304C100.364 102.59 100.499 100.778 100.499 100.778L94.7257 99.6332L94.3809 99.5659C94.3953 103.589 93.3353 106.23 92.5687 106.844C91.8454 106.927 88.7647 107.315 86.8676 108.107C86.1507 108.407 85.6055 108.763 85.4146 109.181C83.827 112.67 82.2409 121.477 81.1279 127.759C80.5057 131.261 80.0326 133.978 79.7856 134.555C79.0961 136.157 76.9904 145.001 75.1895 149.364L76.8172 151.361C76.8172 151.361 85.065 137.475 85.7546 134.212C85.9791 133.146 86.5308 131.016 87.1739 128.627C87.2712 128.265 87.3701 127.899 87.4706 127.528C88.6076 130.607 89.1865 132.032 89.1561 133.362C89.1111 135.255 87.8266 136.957 85.1468 142.979C83.6554 146.292 110.665 154.302 106.691 141.599Z" fill="#FFB27D"/>
<path d="M100.499 101.688C100.499 101.688 100.368 103.507 100.364 105.214C97.1281 105.123 95.4186 102.169 94.7178 100.537L100.499 101.688Z" fill="#E8945B"/>
<path d="M94.1195 99.9154C94.1195 99.9154 92.4244 97.2372 92.0171 94.9468C91.7268 93.312 92.5591 87.2535 98.6516 88.1254C99.8789 88.2958 101.052 88.7395 102.085 89.4236C103.408 90.3164 105.317 92.2429 103.182 97.5305L102.627 99.3176L94.1195 99.9154Z" fill="#233862"/>
<path d="M101.58 103.31C101.58 103.31 93.924 103.437 93.9192 98.6623C93.9143 93.8876 92.9217 90.7173 97.8097 90.4288C102.698 90.1403 103.649 91.9642 104.038 93.5558C104.428 95.1474 103.572 103.155 101.58 103.31Z" fill="#FFB27D"/>
<path d="M97.7504 182.684C97.2692 183.596 92.4469 189.384 87.6086 195.793C87.1932 196.341 86.7634 196.933 86.3256 197.556C83.4742 201.563 80.1899 206.804 78.2285 209.353C76.4452 211.669 74.8431 208.768 75.7428 206.698C77.1621 203.435 78.3648 197.723 79.7392 193.528C80.021 192.637 80.3497 191.761 80.7239 190.905C82.2025 187.597 84.6979 182.966 88.2051 179.379C88.8129 178.757 83.5079 164.908 83.8864 153.454C84.0355 148.914 84.6674 144.923 86.1155 142.49L100.52 143.203C100.52 143.203 102.488 173.795 97.7504 182.684Z" fill="#F99746"/>
<path d="M103.811 90.9046C102.629 89.4733 101.736 89.7827 101.234 90.2154C97.1298 87.9395 94.3505 91.3165 94.3505 91.3165C94.0119 93.4007 92.9585 95.3023 91.3708 96.6954C91.3708 96.6954 92.7661 97.5577 95.9831 96.7307C96.9646 96.4775 97.8418 95.7819 98.5875 94.9372C97.7381 96.3203 96.7044 97.5815 95.5148 98.6861C99.3637 96.9102 100.902 91.5698 101.054 91.004C101.522 91.4239 102.443 92.3359 102.723 93.2286C103.105 94.4419 103.278 96.9407 104.006 96.8557C104.006 96.8557 105.586 93.0555 103.811 90.9046Z" fill="#233862"/>
<path d="M75.3738 148.947C75.3738 148.947 74.6745 150.593 73.9481 151.052C73.5744 151.294 73.2809 151.642 73.1045 152.051C72.9282 152.46 72.8768 152.912 72.957 153.35C73.1478 154.23 72.7613 155.754 73.6803 155.754C74.5992 155.754 76.7433 151.698 77.0111 150.933C77.2789 150.169 77.5083 150.015 77.5083 150.015L75.3738 148.947Z" fill="#FFB27D"/>
<path d="M83.3331 148.157C83.2978 148.551 83.3282 148.948 83.4229 149.332C83.7293 150.318 84.7813 150.765 87.3264 150.497C88.8819 150.337 89.5715 147.672 89.8923 145.402C90.8256 148.649 92.1364 150.466 93.8245 150.852C96.291 151.411 109.619 152.353 110.434 146.316C111.329 139.675 107.761 128.525 107.613 122.181C107.944 120.241 108.095 118.275 108.065 116.307C107.961 111.79 106.662 109.255 105.66 108.24C105.376 108.019 105.094 107.88 103.958 107.681C103.378 107.581 102.574 107.464 101.436 107.311C101.276 107.287 101.116 107.271 100.955 107.264C101.165 107.649 103.429 111.051 103.209 112.172C102.98 113.343 94.272 113.175 93.5872 112.531C92.9024 111.886 91.0902 107.027 91.0902 107.027C91.0902 107.027 87.5509 107.421 85.8189 108.707L85.8381 108.729C85.652 108.853 85.4963 109.017 85.3827 109.21C83.5352 112.8 81.6942 121.857 80.3936 128.32C83.5384 130.083 86.2855 129.562 87.1371 129.328C86.0274 136.778 83.4999 144.767 83.3331 148.157Z" fill="white"/>
<path d="M99.3796 100.494C99.3796 100.494 99.5256 101.08 100.983 100.975C100.983 100.975 102.212 100.885 102.167 100.239C102.173 100.239 100.975 99.7918 99.3796 100.494Z" fill="white"/>
<path d="M86.3239 197.553C83.4726 201.56 80.1882 206.801 78.2268 209.35C76.4435 211.666 74.8414 208.765 75.7411 206.695C77.1604 203.432 78.3631 197.72 79.7375 193.525C80.6661 194.928 82.5472 196.741 86.3239 197.553Z" fill="#FFB27D"/>
<path d="M76.6696 150.585C76.6696 150.585 77.0914 152.406 76.7851 152.978C76.4788 153.551 76.6857 154.296 76.0699 154.086C75.4541 153.876 76.6696 150.585 76.6696 150.585Z" fill="#FFB27D"/>
<path d="M72.2242 207.662C71.0616 208.419 71.9917 210.132 73.2859 211.946C74.5801 213.761 73.8055 213.514 75.2665 216.248C76.7274 218.982 78.1403 219.422 78.6006 219.338C79.0079 219.266 78.5765 217.8 78.1451 216.214C78.0906 216.016 78.0377 215.814 77.9847 215.613C77.5165 213.817 78.1194 212.123 78.4049 210.206C78.6759 208.39 81.2996 204.795 81.2996 204.795L79.4216 200.996C79.4216 200.996 77.1155 204.303 76.0747 205.644C75.4621 206.431 74.394 206.829 73.5537 207.096C73.0873 207.225 72.6402 207.415 72.2242 207.662Z" fill="#FFB27D"/>
<path d="M73.289 211.946C74.5848 213.759 73.8086 213.514 75.2695 216.248C76.7305 218.982 78.1434 219.421 78.6037 219.338C79.011 219.266 78.5796 217.799 78.1482 216.214H78.1145C76.8374 215.303 75.831 214.064 75.2022 212.627C74.3795 210.704 74.1149 208.43 73.5568 207.098C73.0903 207.227 72.6432 207.418 72.2273 207.665C71.0614 208.418 71.9916 210.132 73.289 211.946Z" fill="#1C468A"/>
<path d="M104.653 107.823C104.653 107.823 106.967 107.812 108.57 110.912C110.174 114.012 112.609 124.085 112.609 124.085C112.609 124.085 109.78 127.239 106.463 126.518C103.147 125.797 104.653 107.823 104.653 107.823Z" fill="white"/>
<path d="M317.613 218.676L317.372 147.705C317.372 147.705 316.83 142.591 312.368 142.564C307.609 142.535 307.304 147.644 307.304 147.644C307.327 147.773 307.396 147.889 307.498 147.971C307.6 148.053 307.728 148.095 307.859 148.09C307.994 148.099 308.128 148.06 308.238 147.98C308.347 147.9 308.425 147.784 308.457 147.652C308.457 147.652 308.691 143.713 312.362 143.735C315.802 143.754 316.211 147.697 316.211 147.697L315.789 218.665L317.613 218.676Z" fill="#233862"/>
<path d="M315.185 218.662L318.147 218.679L317.901 215.583C317.901 215.583 317.929 215.153 317.33 215.126C316.775 215.1 315.677 215.014 315.566 215.349C315.478 215.644 315.185 218.662 315.185 218.662Z" fill="#233862"/>
<path d="M312.354 138.8L312.146 139.813C312.146 139.813 307.126 139.765 305.92 145.134C305.92 145.134 305.588 147.378 307.203 146.898C308.818 146.417 308.576 145.285 310.866 144.674C313.156 144.064 314.647 143.591 315.003 141.931L315.388 140.083L312.354 138.8Z" fill="#FFB27D"/>
<path d="M330.362 94.9067C330.362 94.9067 329.004 100.121 327.83 104.889C327.349 106.812 326.914 108.655 326.601 110.061C326.281 111.503 326.101 112.481 326.168 112.59C327.155 114.212 325.277 124.053 323.816 127.621C323.687 127.942 323.509 128.309 323.298 128.72C321.261 132.651 315.858 140.358 315.858 140.358C315.858 140.358 314.346 140.507 313.36 140.129C312.537 139.808 311.979 138.8 311.979 138.8C312.46 138.033 314.455 128.938 316.979 123.85C318.06 121.671 319.752 101.411 321.835 98.7037C323.58 96.439 330.362 94.9067 330.362 94.9067Z" fill="#F99746"/>
<path d="M326.175 112.59C327.161 114.212 325.283 124.053 323.822 127.621C323.694 127.942 323.516 128.309 323.304 128.721C321.431 120.208 324.69 108.188 324.69 108.188C325.483 108.508 326.115 109.165 326.614 110.068C326.288 111.505 326.107 112.481 326.175 112.59Z" fill="#ED7D2B"/>
<path d="M339.524 210.989C339.524 210.989 339.991 218.682 338.536 218.787C338.342 218.799 331.159 218.756 331.159 218.756L321.896 218.702C321.896 218.702 322.066 216.442 324.747 215.991C327.429 215.541 331.926 213.685 333.568 210.154C335.301 206.437 339.524 210.989 339.524 210.989Z" fill="#0F2949"/>
<path d="M353.455 211.071C353.455 211.071 353.92 218.764 352.466 218.868C352.272 218.881 345.089 218.839 345.089 218.839L335.826 218.783C335.826 218.783 335.996 216.523 338.679 216.073C341.362 215.623 345.857 213.767 347.499 210.237C349.234 206.524 353.455 211.071 353.455 211.071Z" fill="#163560"/>
<path d="M340.072 192.444C340.282 195.699 340.714 199.887 340.534 203.663C340.271 208.936 340.077 213.382 340.077 213.382C336.591 214.544 330.216 213.071 330.216 213.071C330.216 213.071 328.03 199.73 326.229 189.079C325.427 184.308 324.751 180.179 324.504 178.232C323.702 171.931 325.626 138.475 325.626 138.475C325.626 138.475 335.077 132.501 338.948 135.633C342.819 138.765 345.193 141.817 338.724 175.834C338.239 178.408 339.606 185.153 340.072 192.444Z" fill="#2B478B"/>
<path d="M340.072 192.444C340.282 195.699 340.67 200.909 340.483 204.679C337.231 201.2 330.824 193.857 326.229 189.073C325.427 184.302 324.751 180.173 324.504 178.225C323.702 171.925 325.626 138.469 325.626 138.469C325.626 138.469 335.077 132.495 338.948 135.627C342.819 138.759 345.193 141.81 338.724 175.828C338.239 178.408 339.606 185.153 340.072 192.444Z" fill="#233862"/>
<path d="M334.135 139.2C334.135 139.2 334.777 172.707 336.06 178.926C337.343 185.145 344.069 213.62 344.069 213.62C344.069 213.62 350.529 214.246 353.916 212.818C353.916 212.818 353.778 199.648 352.679 191.904C351.651 184.67 349.77 178.049 350.062 175.438C353.896 141.027 351.292 138.166 347.193 135.34C343.094 132.514 334.135 139.2 334.135 139.2Z" fill="#2B478B"/>
<path d="M346.894 142.208C346.894 142.208 344.628 146.686 348.913 150.143C348.913 150.143 350.772 151.426 351.067 149.775C351.362 148.124 351.03 148.694 351.494 146.372C351.957 144.05 351.396 141.641 350.065 140.586L346.894 142.208Z" fill="#FFB27D"/>
<path d="M328.344 87.3031C328.344 87.3031 330.874 91.4046 330.336 95.0654L334.139 104.139L340.921 93.7206C340.921 93.7206 337.481 89.6544 336.151 84.2402L328.344 87.3031Z" fill="#FFB27D"/>
<path d="M327.191 90.6464C327.191 90.6464 336.6 91.1096 336.805 85.463C337.011 79.8165 339.577 76.0756 332.54 75.5387C326.752 75.0963 324.813 77.4973 324.287 79.3645C323.761 81.2317 323.705 90.3227 327.191 90.6464Z" fill="#FFB27D"/>
<path d="M349.935 140.908C347.911 141.084 345.124 141.301 341.748 141.493C341.072 141.532 340.374 141.569 339.654 141.605C329.451 142.115 325.406 140.44 325.406 140.44C325.406 140.44 325.139 140.22 325.232 139.023C325.713 132.862 327.031 131.049 326.88 129.876C326.54 127.243 320.278 105.719 320.278 105.719C320.278 105.719 320.194 98.9314 327.766 95.7915C328.608 95.4445 329.476 95.1627 330.362 94.9485C330.683 95.8284 331.586 97.3014 333.906 97.0449C337.336 96.6651 339.79 94.66 340.844 93.6294C341.033 93.6294 341.107 93.6374 341.107 93.6374C341.355 94.3732 341.562 95.1223 341.727 95.8813C342.33 98.5531 342.675 101.361 344.293 103.47C345.805 105.425 347.189 107.475 348.437 109.607C349.364 111.194 350.205 112.83 350.955 114.507C357.556 129.314 352.316 140.698 349.935 140.908Z" fill="#F99746"/>
<path d="M349.935 140.908C347.911 141.084 345.124 141.301 341.748 141.493C340.861 124.896 347.72 109.001 347.72 109.001C347.976 109.183 348.217 109.385 348.44 109.606C349.613 110.756 350.422 112.459 350.958 114.505C352.927 122.04 351.168 134.253 349.935 140.908Z" fill="#ED7D2B"/>
<path d="M324.189 85.2421C324.189 85.2421 322.314 92.4963 325.418 93.5381C328.521 94.5798 336.78 93.8089 336.829 84.9023C336.829 84.9023 332.482 87.4588 330.415 87.3818C328.348 87.3049 327.018 86.0996 325.1 87.0228C325.098 87.0308 324.399 86.9731 324.189 85.2421Z" fill="#D5E5FB"/>
<path d="M341.107 93.6357C341.107 93.6357 347.682 93.8233 351.135 98.3639C353.777 101.844 356.481 120.445 356.465 123.244C356.449 126.042 353.359 141.467 351.669 143.136C350.829 143.306 349.964 143.303 349.125 143.128C348.219 142.954 347.376 142.538 346.686 141.926C346.686 141.926 347.624 124.738 347.634 123.124C347.647 120.79 340.428 106.455 340.428 106.455C340.428 106.455 336.684 99.6221 341.107 93.6357Z" fill="#F99746"/>
<path d="M336.411 77.318C336.251 76.741 335.548 76.4333 335.548 76.4333C330.256 74.0948 326.374 76.5935 326.374 76.5935C329.648 72.2532 337.484 73.2149 339.112 77.1561C341.771 83.5913 336.83 84.8991 336.83 84.8991C336.83 84.8991 331.916 82.8011 334.785 80.2254C335.734 79.3712 336.196 78.6098 336.352 77.9463C336.4 77.7406 336.42 77.5291 336.411 77.318Z" fill="#D5E5FB"/>
<path d="M325.727 88.1926C325.727 88.1926 326.348 89.1719 327.432 89.1366C327.754 89.12 328.068 89.0254 328.346 88.861C328.623 88.6965 328.857 88.4672 329.026 88.1926C329.026 88.1926 327.198 87.8416 325.727 88.1926Z" fill="white"/>
<path d="M480.603 218.817H5.99459C5.70674 218.817 5.47339 219.051 5.47339 219.338V219.479C5.47339 219.767 5.70674 220 5.99459 220H480.603C480.89 220 481.124 219.767 481.124 219.479V219.338C481.124 219.051 480.89 218.817 480.603 218.817Z" fill="#2E3552"/>
</g>
<defs>
<clipPath id="clip0_553_5283">
<rect width="485" height="220" fill="white"/>
</clipPath>
</defs>
</svg>
