<svg width="118" height="132" viewBox="0 0 118 132" fill="none" xmlns="http://www.w3.org/2000/svg">
<g filter="url(#filter0_d_176_5609)">
<path d="M66.5048 42.6719C69.2741 43.2838 72.1435 43.2838 74.9128 42.6719C75.9288 42.4475 76.8202 41.8426 77.4041 40.9814C78.6497 38.8905 76.6033 36.4215 74.6459 34.9979C70.3873 31.8773 65.6562 29.4592 60.6325 27.8355C59.0632 27.4855 57.618 26.7168 56.4507 25.6111C56.1767 25.3293 55.9662 24.9922 55.8331 24.6224C55.7 24.2525 55.6475 23.8585 55.6791 23.4668C55.7107 23.075 55.8257 22.6945 56.0163 22.3508C56.2069 22.0071 56.4688 21.7081 56.7844 21.4738C55.0271 19.2495 51.4682 20.0725 48.8657 21.2514C41.3474 24.6344 34.3215 29.0191 27.979 34.2861L46.2632 37.4669C48.3195 37.761 50.3498 38.2146 52.3357 38.8238C53.9817 39.3576 55.5165 40.1139 57.1402 40.6922C60.1883 41.6614 63.3253 42.3246 66.5048 42.6719Z" fill="#B5ADA4"/>
<path d="M17.3451 38.8242C19.2494 41.2065 21.7517 43.041 24.5965 44.1404C36.4703 49.49 49.8254 50.5819 62.4105 47.2323C63.0656 47.1273 63.6635 46.7969 64.101 46.298C65.0352 44.8967 63.1223 43.3397 61.543 42.7391C53.7624 39.4215 45.6598 36.9169 37.3643 35.2653C33.3537 34.8298 29.3826 34.0861 25.4862 33.0409C23.535 32.513 21.7175 31.5781 20.1534 30.2976C18.5892 29.0172 17.3138 27.4201 16.4109 25.6116C15.5541 27.7405 15.193 30.0365 15.3548 32.3256C15.5167 34.6147 16.1973 36.837 17.3451 38.8242Z" fill="#D1CBC2"/>
<path d="M79.0501 42.9166C80.5405 46.4088 77.5598 50.079 74.7571 52.637C70.5605 56.4777 66.2601 60.1849 61.8559 63.7587C58.8741 66.415 55.4972 68.5912 51.8463 70.2094C46.3299 72.4337 40.1462 71.9666 34.4074 73.4569C33.4339 73.7922 32.4119 73.965 31.3823 73.9685C28.0235 73.7016 26.4665 69.7422 25.688 66.4502L23.0855 55.5954C22.0845 51.3913 20.8611 46.9204 17.747 44.0065C16.2567 42.6274 14.1436 41.0481 14.7441 39.1129C15.0291 38.4805 15.5227 37.9653 16.1423 37.6535C16.7618 37.3417 17.4698 37.2522 18.1474 37.4002C19.4726 37.7016 20.717 38.2858 21.7953 39.1129C26.9852 42.6309 32.6073 45.4644 38.5225 47.5432C43.8387 49.4117 49.6442 50.6796 55.0272 48.9223C59.2757 47.5432 62.7012 44.4736 66.4603 42.0491C68.4287 40.6569 70.7316 39.8126 73.1334 39.6023C74.3357 39.5154 75.5371 39.783 76.5888 40.3721C77.6405 40.9612 78.4963 41.8459 79.0501 42.9166Z" fill="#BCB4A8"/>
<path d="M32.4707 8.7509C31.9157 8.60097 31.3294 8.61349 30.7813 8.78698C30.2332 8.96047 29.7465 9.28764 29.3788 9.72962C29.0851 10.3233 29.0226 11.005 29.2035 11.6422C29.3844 12.2794 29.7957 12.8265 30.3576 13.1774C30.8527 13.4251 31.4086 13.5254 31.9591 13.4665C33.3677 13.4171 34.7683 13.2308 36.1409 12.9104C36.5484 12.7398 36.9925 12.6747 37.4319 12.7214C37.8713 12.7681 38.2918 12.9249 38.6544 13.1774C38.0383 12.0099 37.1587 11.0021 36.0854 10.2337C35.012 9.4654 33.7744 8.9577 32.4707 8.7509Z" fill="#688285"/>
<path d="M34.3629 4.43587C34.3599 3.9324 34.4926 3.43742 34.747 3.00295C35.0014 2.56849 35.3681 2.21058 35.8087 1.96684C36.3625 1.83543 36.9456 1.92132 37.438 2.20682C37.9304 2.49233 38.2946 2.95573 38.4557 3.50164C38.579 3.98323 38.579 4.48813 38.4557 4.96971C38.1289 6.17242 37.6895 7.34167 37.1433 8.46194C36.9246 8.78428 36.7844 9.15343 36.7342 9.53973C36.684 9.92604 36.7251 10.3187 36.8541 10.6863C35.9914 9.90214 35.3186 8.93171 34.8869 7.84868C34.4553 6.76566 34.276 5.59851 34.3629 4.43587Z" fill="#688285"/>
<path d="M41.1245 12.7099C41.2133 12.2247 41.4382 11.7747 41.773 11.4124C42.1077 11.0501 42.5385 10.7904 43.0152 10.6635C43.5946 10.6327 44.1653 10.8147 44.62 11.1752C45.0747 11.5356 45.382 12.0498 45.4842 12.6209C45.5168 13.0899 45.4 13.5571 45.1506 13.9555C44.6269 15.0455 43.9854 16.0748 43.2377 17.0252C42.9663 17.2842 42.7648 17.6076 42.6521 17.9654C42.5393 18.3232 42.5188 18.7037 42.5926 19.0716C41.8597 18.2043 41.3442 17.1747 41.0889 16.0684C40.8335 14.962 40.8458 13.8106 41.1245 12.7099Z" fill="#688285"/>
<path d="M44.4162 19.5164C44.5015 19.0367 44.7198 18.5906 45.0461 18.2288C45.3725 17.867 45.7939 17.6041 46.2624 17.47C46.8386 17.4532 47.4022 17.6403 47.8539 17.9984C48.3056 18.3565 48.6164 18.8626 48.7314 19.4275C48.7507 19.9022 48.635 20.3727 48.3978 20.7843C47.8605 21.8598 47.2198 22.8804 46.4848 23.8317C46.2095 24.0884 46.0039 24.4109 45.8872 24.7688C45.7705 25.1267 45.7465 25.5084 45.8175 25.8781C45.0896 25.0085 44.5821 23.9763 44.3382 22.8688C44.0942 21.7613 44.121 20.6114 44.4162 19.5164Z" fill="#688285"/>
<path d="M47.2414 26.501C47.2779 26.2089 47.3716 25.9268 47.5171 25.6709C47.6626 25.415 47.8571 25.1903 48.0895 25.0096C48.3219 24.8288 48.5876 24.6956 48.8714 24.6176C49.1552 24.5395 49.4517 24.5182 49.7438 24.5547C50.0359 24.5912 50.3179 24.6849 50.5738 24.8304C50.8297 24.9759 51.0545 25.1704 51.2352 25.4028C51.4159 25.6351 51.5491 25.9008 51.6272 26.1847C51.7052 26.4685 51.7266 26.765 51.6901 27.0571C51.6616 27.5173 51.4817 27.9553 51.1785 28.3027C50.4945 29.2641 49.7035 30.1447 48.8207 30.9274C48.5103 31.1237 48.2607 31.4023 48.0997 31.7323C47.9386 32.0623 47.8725 32.4305 47.9087 32.7959C47.2717 31.8898 46.8762 30.8363 46.7595 29.7349C46.6427 28.6335 46.8086 27.5205 47.2414 26.501Z" fill="#688285"/>
<path d="M36.898 16.2914C36.3406 16.1522 35.7553 16.1722 35.2087 16.3492C34.6622 16.5261 34.1762 16.8529 33.8062 17.2924C33.5224 17.8879 33.4653 18.5663 33.6454 19.2008C33.8255 19.8354 34.2306 20.3826 34.7849 20.7401C35.2823 20.9802 35.838 21.0729 36.3864 21.0071C37.7962 20.9715 39.1981 20.7851 40.5682 20.451C40.9781 20.2919 41.4201 20.2331 41.8573 20.2796C42.2946 20.326 42.7143 20.4763 43.0817 20.7179C42.467 19.5494 41.5878 18.5406 40.5142 17.7721C39.4406 17.0036 38.2023 16.4966 36.898 16.2914Z" fill="#688285"/>
<path d="M40.056 24.4549C39.5034 24.3474 38.9335 24.3677 38.3899 24.5142C37.8463 24.6607 37.3434 24.9295 36.9196 25.3002C36.7617 25.5228 36.6557 25.7781 36.6095 26.0472C36.5634 26.3163 36.5782 26.5923 36.6529 26.8548C36.7276 27.1174 36.8603 27.3599 37.0412 27.5643C37.2221 27.7688 37.4466 27.93 37.6982 28.0361C38.2024 28.2228 38.7426 28.2913 39.2775 28.2363C40.689 28.1773 42.0942 28.0138 43.4815 27.747C43.8868 27.6044 44.317 27.5467 44.7456 27.5773C45.1741 27.6079 45.5918 27.7262 45.9728 27.9249C45.3158 26.9343 44.4412 26.1067 43.4158 25.5054C42.3905 24.904 41.2413 24.5447 40.056 24.4549Z" fill="#688285"/>
<path d="M27.1558 0.364979C26.6688 0.114286 26.1268 -0.0109073 25.5792 0.000745024C25.0315 0.0123974 24.4954 0.160527 24.0195 0.43171C23.8166 0.652379 23.6604 0.911778 23.5603 1.19432C23.4602 1.47687 23.4183 1.77674 23.4369 2.07591C23.4556 2.37508 23.5346 2.66738 23.6691 2.93527C23.8036 3.20315 23.9909 3.44108 24.2197 3.63478C24.6594 3.98141 25.1798 4.21098 25.7322 4.30208C27.1072 4.61304 28.5062 4.80651 29.914 4.88041C30.3531 4.84554 30.7946 4.90489 31.2089 5.05451C31.6232 5.20412 32.0008 5.44053 32.3163 5.74791C31.9091 4.52417 31.2348 3.40632 30.3422 2.47531C29.4497 1.54431 28.3613 0.823463 27.1558 0.364979Z" fill="#688285"/>
<path d="M66.4372 32.2178C66.7177 31.807 67.1092 31.4843 67.566 31.2874C68.0228 31.0905 68.5262 31.0274 69.0175 31.1056C69.5654 31.3023 70.0144 31.7059 70.2681 32.2299C70.5218 32.7539 70.5599 33.3565 70.3743 33.9083C70.1869 34.3546 69.8788 34.7397 69.4846 35.0205C68.5327 35.7868 67.5126 36.4643 66.4372 37.0446C66.0691 37.1625 65.7381 37.3742 65.4768 37.659C65.2155 37.9437 65.0328 38.2916 64.9469 38.6684C64.6726 37.5516 64.6646 36.386 64.9235 35.2655C65.1824 34.1451 65.7009 33.1011 66.4372 32.2178Z" fill="#688285"/>
<path d="M62.7221 30.5269C62.4382 30.1926 62.0691 29.9417 61.6539 29.8007C61.2387 29.6597 60.793 29.6339 60.3643 29.7261C59.9438 29.9774 59.6328 30.3773 59.4928 30.8468C59.3528 31.3163 59.3939 31.8212 59.608 32.2619C59.822 32.6309 60.1287 32.9376 60.4978 33.1516C61.4106 33.7408 62.3703 34.2541 63.3672 34.6864C63.9455 34.9311 64.6351 35.2202 64.8352 35.9765C64.9196 34.9674 64.7732 33.9522 64.4071 33.008C64.041 32.0638 63.4648 31.2153 62.7221 30.5269Z" fill="#688285"/>
<path d="M63.0556 39.8026C62.7235 39.5313 62.3201 39.3617 61.8939 39.3144C61.4677 39.267 61.0369 39.3439 60.6533 39.5357C60.2784 39.8671 60.0262 40.3152 59.9374 40.8076C59.8486 41.3 59.9284 41.808 60.164 42.2494C60.4271 42.5677 60.7737 42.8065 61.1649 42.939C62.1344 43.3329 63.1402 43.6309 64.1678 43.8287C64.4961 43.8292 64.8182 43.9184 65.1001 44.0867C65.382 44.255 65.6132 44.4964 65.7693 44.7852C65.7493 43.798 65.4924 42.8301 65.0201 41.963C64.5478 41.0958 63.8741 40.3549 63.0556 39.8026Z" fill="#688285"/>
<path d="M64.837 46.1422C64.5049 45.8709 64.1015 45.7013 63.6752 45.654C63.249 45.6066 62.8182 45.6835 62.4347 45.8753C62.0434 46.1903 61.7786 46.6357 61.6888 47.1299C61.5989 47.6241 61.69 48.1342 61.9453 48.5668C62.1859 48.8989 62.5303 49.1416 62.924 49.2563C63.8951 49.6676 64.9101 49.9661 65.9491 50.146C66.2746 50.1596 66.5915 50.2542 66.8712 50.4212C67.1508 50.5883 67.3844 50.8224 67.5507 51.1025C67.5308 50.1184 67.2738 49.1536 66.8013 48.29C66.3289 47.4265 65.655 46.6897 64.837 46.1422Z" fill="#688285"/>
<path d="M66.9943 52.3033C66.6212 52.096 66.1962 52.0005 65.7703 52.0281C65.3443 52.0557 64.9353 52.2053 64.592 52.459C64.2468 52.8303 64.0387 53.3083 64.0023 53.814C63.9659 54.3196 64.1033 54.8226 64.3918 55.2395C64.6731 55.5224 65.0413 55.7025 65.4373 55.7511C66.444 55.9863 67.4731 56.1131 68.5069 56.1292C68.8193 56.08 69.1391 56.1161 69.4327 56.2335C69.7264 56.351 69.9828 56.5455 70.1751 56.7965C70.0742 55.8378 69.7286 54.9212 69.1716 54.1344C68.6147 53.3476 67.8649 52.7171 66.9943 52.3033Z" fill="#688285"/>
<path d="M67.8844 39.7138C68.1639 39.3009 68.5544 38.9753 69.0109 38.7746C69.4674 38.5739 69.9713 38.5063 70.4646 38.5794C71.0126 38.7761 71.4616 39.1798 71.7152 39.7037C71.9689 40.2277 72.0071 40.8303 71.8215 41.3821C71.6341 41.8284 71.326 42.2135 70.9317 42.4943C69.9924 43.2775 68.9706 43.9562 67.8844 44.5184C67.5235 44.6489 67.1994 44.8647 66.9399 45.1474C66.6804 45.4302 66.4931 45.7715 66.3941 46.1422C66.1252 45.0286 66.12 43.8677 66.3787 42.7517C66.6374 41.6357 67.153 40.5955 67.8844 39.7138Z" fill="#688285"/>
<path d="M70.4641 46.6982C70.7704 46.3345 71.1515 46.0409 71.5813 45.8375C72.0112 45.6341 72.4798 45.5256 72.9553 45.5193C73.184 45.5762 73.3973 45.6829 73.58 45.8317C73.7627 45.9806 73.9103 46.1679 74.0123 46.3804C74.1143 46.5928 74.1681 46.8252 74.17 47.0608C74.1718 47.2965 74.1217 47.5296 74.023 47.7436C73.7978 48.1605 73.4778 48.5186 73.0888 48.7891C72.1381 49.566 71.1265 50.2652 70.0637 50.88C69.4631 51.2359 68.7291 51.6585 68.5511 52.4148C68.413 51.3791 68.5135 50.3256 68.8451 49.3348C69.1766 48.344 69.7304 47.4421 70.4641 46.6982Z" fill="#688285"/>
<path d="M65.1023 23.6982C65.5916 22.764 66.3257 21.9187 67.3266 21.8965C67.5866 21.9265 67.838 22.0084 68.0658 22.1373C68.2936 22.2661 68.4933 22.4394 68.653 22.6468C68.8127 22.8542 68.9292 23.0915 68.9955 23.3447C69.0619 23.5979 69.0768 23.8618 69.0394 24.1208C68.9566 24.6007 68.7408 25.0477 68.4166 25.411C67.6998 26.414 66.8959 27.3519 66.0143 28.2136C65.7082 28.4392 65.4557 28.7297 65.275 29.0643C65.0943 29.3988 64.9897 29.7692 64.9688 30.1488C64.514 29.1303 64.2901 28.0238 64.3131 26.9086C64.3362 25.7933 64.6057 24.697 65.1023 23.6982Z" fill="#688285"/>
<path d="M37.3647 44.0732C37.3715 43.5724 37.519 43.0837 37.7904 42.6628C38.0618 42.242 38.4461 41.9059 38.8995 41.6931C39.4659 41.5914 40.05 41.7004 40.5416 41.9995C41.0333 42.2986 41.3986 42.7671 41.5687 43.3169C41.6504 43.7876 41.6043 44.2715 41.4352 44.7183C41.0673 45.8907 40.5829 47.0233 39.9894 48.0993C39.7411 48.4069 39.5793 48.7752 39.5207 49.1662C39.4621 49.5571 39.5087 49.9567 39.6557 50.3236C38.8039 49.5393 38.1517 48.563 37.7532 47.4759C37.3547 46.3888 37.2215 45.2222 37.3647 44.0732Z" fill="#688285"/>
<path d="M33.294 44.6739C32.8711 44.5522 32.4233 44.5458 31.997 44.6553C31.5707 44.7648 31.1814 44.9862 30.8695 45.2967C30.6416 45.7353 30.586 46.2432 30.7136 46.7207C30.8412 47.1981 31.1428 47.6106 31.559 47.877C31.9462 48.0647 32.3753 48.149 32.8047 48.1217C33.8943 48.1392 34.9828 48.0423 36.0522 47.8325C36.3755 47.73 36.7179 47.7027 37.0533 47.7529C37.3887 47.803 37.7082 47.9291 37.9874 48.1217C37.5166 47.2296 36.8496 46.4559 36.0367 45.8588C35.2238 45.2616 34.286 44.8565 33.294 44.6739Z" fill="#688285"/>
<path d="M38.6563 52.2367C38.2169 52.1794 37.7704 52.2547 37.3741 52.4529C36.9778 52.651 36.6497 52.963 36.4319 53.3488C36.3015 53.8325 36.3382 54.346 36.536 54.8062C36.7338 55.2664 37.0812 55.6464 37.5218 55.8846C37.9146 55.9947 38.3302 55.9947 38.723 55.8846C39.7823 55.6986 40.8187 55.4004 41.8148 54.9949C42.1003 54.8351 42.4219 54.7512 42.7491 54.7512C43.0762 54.7512 43.3978 54.8351 43.6833 54.9949C43.1317 54.1621 42.3859 53.4758 41.5102 52.9953C40.6344 52.5148 39.655 52.2545 38.6563 52.2367Z" fill="#688285"/>
<path d="M43.6166 56.5746C43.1772 56.5173 42.7308 56.5926 42.3345 56.7907C41.9381 56.9889 41.6101 57.3009 41.3922 57.6867C41.2529 58.011 41.2083 58.3681 41.2635 58.7167C41.3187 59.0653 41.4716 59.3911 41.7043 59.6564C41.937 59.9218 42.2402 60.1158 42.5786 60.2159C42.917 60.3161 43.2769 60.3184 43.6166 60.2225C44.6457 60.0309 45.6521 59.7327 46.6195 59.3327C46.9015 59.1749 47.2193 59.0921 47.5426 59.0921C47.8658 59.0921 48.1836 59.1749 48.4657 59.3327C47.9353 58.5202 47.2186 57.846 46.3752 57.3663C45.5318 56.8865 44.586 56.6151 43.6166 56.5746Z" fill="#688285"/>
<path d="M48.8218 60.5559C48.2997 60.4792 47.7685 60.6131 47.3451 60.928C46.9217 61.243 46.6408 61.7132 46.5641 62.2353C46.4874 62.7574 46.6213 63.2886 46.9362 63.712C47.2512 64.1354 47.7214 64.4163 48.2435 64.493C48.6333 64.5745 49.0391 64.5277 49.4001 64.3596C50.3697 64.008 51.2953 63.5452 52.1583 62.9805C52.398 62.7707 52.6895 62.6291 53.0025 62.5704C53.3155 62.5117 53.6385 62.5381 53.9378 62.6468C53.3355 61.8893 52.5488 61.2992 51.6529 60.9331C50.7571 60.567 49.7823 60.4371 48.8218 60.5559Z" fill="#688285"/>
<path d="M42.6361 49.5229C42.6516 49.0242 42.8054 48.5396 43.0803 48.1233C43.3553 47.7069 43.7406 47.3752 44.1931 47.1651C44.7571 47.0573 45.3411 47.161 45.8334 47.4564C46.3258 47.7518 46.6921 48.2183 46.8624 48.7666C46.9427 49.2447 46.8967 49.7354 46.7289 50.1902C46.3567 51.354 45.8725 52.4788 45.2831 53.549C45.0482 53.8633 44.8931 54.2299 44.8311 54.6173C44.7691 55.0048 44.8021 55.4015 44.9272 55.7733C44.084 54.9825 43.4377 54.0054 43.0399 52.92C42.6421 51.8347 42.5038 50.6713 42.6361 49.5229Z" fill="#688285"/>
<path d="M48.6883 54.0386C48.7222 53.549 48.8683 53.0737 49.1151 52.6494C49.3619 52.2252 49.7029 51.8634 50.1118 51.5919C50.3353 51.5096 50.5745 51.4789 50.8115 51.5022C51.0484 51.5254 51.2771 51.6019 51.4803 51.726C51.6836 51.8501 51.8561 52.0185 51.9851 52.2187C52.114 52.4189 52.196 52.6456 52.225 52.882C52.2699 53.3511 52.2012 53.8241 52.0248 54.2611C51.6697 55.4256 51.2311 56.5629 50.7124 57.6643C50.5026 57.9696 50.3569 58.3143 50.2843 58.6775C50.2116 59.0408 50.2135 59.415 50.2898 59.7775C49.5965 59.0104 49.0909 58.0926 48.813 57.0967C48.535 56.1008 48.4923 55.0539 48.6883 54.0386Z" fill="#688285"/>
<path d="M31.5383 37.6674C31.4321 37.1877 31.4499 36.6888 31.59 36.2179C31.7301 35.747 31.9879 35.3196 32.3391 34.9759C32.5722 34.859 32.8263 34.7898 33.0866 34.7724C33.3468 34.755 33.6079 34.7899 33.8545 34.8748C34.1011 34.9598 34.3282 35.0932 34.5225 35.2671C34.7168 35.4411 34.8744 35.6522 34.986 35.8879C35.1715 36.338 35.2404 36.8277 35.1862 37.3115C35.1261 38.5391 34.9624 39.7594 34.6969 40.9594C34.5615 41.3215 34.5092 41.7094 34.5438 42.0944C34.5785 42.4794 34.6992 42.8517 34.8971 43.1838C33.9636 42.5704 33.1781 41.7574 32.5972 40.8034C32.0163 39.8494 31.6546 38.7782 31.5383 37.6674Z" fill="#688285"/>
<path d="M13.7424 58.5986C13.3213 59.0065 12.9983 59.5048 12.798 60.0558C12.5976 60.6069 12.525 61.1962 12.5858 61.7794C12.6312 62.0593 12.7355 62.3263 12.8919 62.5629C13.0483 62.7994 13.2531 63 13.4928 63.1514C13.7326 63.3028 14.0017 63.4016 14.2825 63.4412C14.5633 63.4807 14.8493 63.4602 15.1215 63.3809C15.5893 63.122 15.9748 62.7365 16.2337 62.2687C17.0154 61.0725 17.6997 59.8154 18.2801 58.5096C18.6138 57.7311 19.0364 56.8413 19.8594 56.6634C18.7608 56.3827 17.6055 56.4152 16.5245 56.7572C15.4434 57.0992 14.4797 57.7371 13.7424 58.5986Z" fill="#688285"/>
<path d="M12.2961 54.105C11.9645 53.6968 11.7333 53.2164 11.6213 52.7026C11.5093 52.1887 11.5194 51.6558 11.651 51.1466C11.7231 50.9077 11.8458 50.6871 12.0109 50.5C12.176 50.3128 12.3794 50.1635 12.6075 50.0621C12.8355 49.9608 13.0827 49.9098 13.3322 49.9127C13.5818 49.9156 13.8277 49.9723 14.0533 50.0789C14.41 50.3577 14.6864 50.7261 14.8541 51.1466C15.3874 52.2749 15.8336 53.4424 16.1887 54.6388C16.3889 55.3284 16.6336 56.1514 17.3231 56.3961C16.3549 56.5218 15.3707 56.3738 14.4822 55.9689C13.5937 55.5639 12.8364 54.9183 12.2961 54.105Z" fill="#688285"/>
<path d="M20.9949 54.35C20.7546 53.9017 20.6179 53.4052 20.5948 52.8971C20.5717 52.389 20.6628 51.8821 20.8614 51.4139C20.9727 51.1892 21.1314 50.9913 21.3266 50.8339C21.5217 50.6765 21.7486 50.5632 21.9918 50.5019C22.2349 50.4406 22.4884 50.4327 22.7349 50.4788C22.9813 50.5249 23.2149 50.6238 23.4194 50.7688C23.723 51.1086 23.9303 51.5232 24.02 51.97C24.3583 53.1565 24.5964 54.3693 24.7318 55.5956C24.7318 56.3074 24.932 57.1749 25.5548 57.5308C24.5738 57.4782 23.6271 57.1524 22.8214 56.5904C22.0157 56.0284 21.3831 55.2524 20.9949 54.35Z" fill="#688285"/>
<path d="M26.8673 56.3741C26.6166 55.9172 26.4742 55.4088 26.4511 54.8882C26.428 54.3675 26.5247 53.8485 26.7339 53.3712C26.848 53.1492 27.008 52.9541 27.2034 52.7988C27.3988 52.6435 27.6251 52.5316 27.8671 52.4706C28.1091 52.4095 28.3613 52.4008 28.607 52.4448C28.8527 52.4889 29.0862 52.5848 29.2919 52.7261C29.5992 53.0633 29.8071 53.4791 29.8924 53.9273C30.2615 55.1413 30.5293 56.3838 30.6932 57.642C30.6932 58.376 30.8934 59.2213 31.5162 59.5772C30.516 59.5443 29.5463 59.225 28.7222 58.6572C27.8981 58.0894 27.2543 57.297 26.8673 56.3741Z" fill="#688285"/>
<path d="M32.5827 58.8875C32.4191 58.4074 32.3642 57.8969 32.4219 57.393C32.4796 56.8891 32.6485 56.4043 32.9164 55.9736C33.0531 55.776 33.2288 55.6085 33.4328 55.4815C33.6368 55.3545 33.8647 55.2707 34.1023 55.2353C34.34 55.1998 34.5824 55.2135 34.8146 55.2755C35.0467 55.3374 35.2637 55.4463 35.4521 55.5955C35.7107 55.9709 35.8643 56.4086 35.897 56.8633C36.0744 58.0931 36.1414 59.3363 36.0972 60.578C36.0972 61.312 36.0972 62.1795 36.6755 62.6022C35.7123 62.4323 34.8168 61.9933 34.0926 61.336C33.3683 60.6786 32.8449 59.8298 32.5827 58.8875Z" fill="#688285"/>
<path d="M20.704 60.2224C20.2868 60.6324 19.968 61.1316 19.7715 61.6826C19.5751 62.2335 19.506 62.8218 19.5695 63.4032C19.6139 63.6882 19.7192 63.9602 19.8784 64.2007C20.0376 64.4411 20.2469 64.6444 20.4919 64.7964C20.737 64.9485 21.012 65.0459 21.2981 65.0818C21.5842 65.1178 21.8748 65.0915 22.1498 65.0048C22.5958 64.7325 22.9636 64.3493 23.2175 63.8926C23.9957 62.6671 24.6727 61.3801 25.2416 60.0445C25.5753 59.2659 25.9979 58.3762 26.8209 58.1982C25.7143 57.9224 24.5521 57.9662 23.4693 58.3245C22.3865 58.6828 21.4276 59.3409 20.704 60.2224Z" fill="#688285"/>
<path d="M27.2674 63.2474C26.4635 64.0808 25.9961 65.182 25.955 66.3392C25.9488 66.585 26.0072 66.8281 26.1246 67.0441C26.2419 67.2601 26.414 67.4414 26.6236 67.5699C26.8332 67.6983 27.0729 67.7694 27.3187 67.7759C27.5644 67.7825 27.8076 67.7243 28.0237 67.6071C28.4425 67.298 28.7912 66.9038 29.0469 66.4504C29.8213 65.2574 30.5197 64.0167 31.1378 62.7358C31.4937 61.9795 31.9386 61.0898 32.6503 60.8451C31.6201 60.7261 30.5769 60.8863 29.6298 61.3089C28.6828 61.7316 27.8668 62.4011 27.2674 63.2474Z" fill="#688285"/>
<path d="M5.80172 57.1302C5.32404 57.4104 4.91459 57.7932 4.60299 58.251C4.29139 58.7087 4.08543 59.23 4 59.7772C4 60.8894 4.93423 62.0015 6.00192 61.8236C6.48068 61.6953 6.91283 61.4329 7.24755 61.0673C8.24484 60.1556 9.16032 59.1582 9.98351 58.0867C10.4729 57.4416 11.0512 56.7298 11.852 56.7521C10.9087 56.2441 9.8421 56.0103 8.77284 56.0771C7.70358 56.1439 6.67438 56.5087 5.80172 57.1302Z" fill="#688285"/>
<path d="M73.778 65.427L60.9658 68.2964H60.8101C56.8285 65.6272 52.5132 62.7355 48.4649 59.399L44.55 66.7171L44.1942 66.5392C36.8983 62.6021 28.6237 58.1311 19.8375 57.2191C16.2918 56.9299 12.7285 56.9299 9.18286 57.2191V56.4184C12.7731 56.1292 16.3807 56.1292 19.971 56.4184C28.8684 57.3526 36.9873 61.7123 44.2609 65.6272L47.8643 58.7762C44.8107 56.2674 42.0095 53.4663 39.5008 50.4126C37.1148 47.3991 34.916 44.242 32.9167 40.9591L32.4941 40.2696L50.9562 41.8266C47.8866 32.5956 44.2831 22.2078 38.1217 13.5551C35.4929 10.0651 32.6553 6.73736 29.6247 3.59002L30.203 3.03394C33.256 6.21106 36.1157 9.56845 38.7667 13.088C45.2174 21.9854 48.7763 32.729 51.9127 42.1603L52.1128 42.7386L34.0289 41.2038C35.8308 44.2398 37.8218 47.1594 39.9901 49.9455C42.4226 52.9191 45.1421 55.646 48.109 58.0866L65.37 25.5666V27.2794C65.1963 31.0757 65.2557 34.879 65.5479 38.668C66.4599 48.0993 70.2635 57.0634 73.6223 64.9821L73.778 65.427ZM61.1215 67.4511L72.6659 64.8487C69.3293 56.9967 65.6147 48.1215 64.7027 38.7348C64.4399 35.4868 64.3656 32.2264 64.4802 28.9699L48.9098 58.6205C52.9359 61.9125 57.1399 64.7819 61.1215 67.4511Z" fill="#928475"/>
<path d="M81.8523 105.288C81.7662 104.403 81.5565 103.534 81.2295 102.707C78.538 96.2345 71.9762 96.19 66.3041 94.9888C59.1082 93.4203 52.1979 90.7492 45.8178 87.0702C43.9271 85.9802 29.2464 73.8353 29.0239 73.902C47.2684 67.5336 62.9612 55.4304 73.7556 39.4023C74.6231 38.0677 75.7798 36.5996 77.4481 36.8221C78.7308 37.154 79.8469 37.9456 80.5844 39.0464C86.9699 47.0362 90.9439 56.6817 92.0398 66.8508C92.6001 71.8424 92.3371 76.8921 91.2613 81.7984C89.8822 87.9599 88.7478 88.9609 94.9537 93.4096L112.259 105.888C112.723 106.149 113.078 106.567 113.26 107.067C113.275 107.299 113.241 107.532 113.161 107.75C113.08 107.969 112.955 108.168 112.793 108.335C107.753 114.839 101.041 119.852 93.3744 122.838C92.64 123.209 91.8053 123.334 90.9944 123.194C90.3217 122.936 89.7141 122.534 89.2149 122.015C86.5663 119.508 84.468 116.478 83.0534 113.117C82.3121 110.571 81.9083 107.939 81.8523 105.288Z" fill="#C8BFB1"/>
<path d="M105.007 92.1417C103.625 91.3886 102.118 90.8913 100.558 90.6737C100.462 90.4831 100.316 90.3219 100.136 90.2066C99.4537 89.8533 98.7045 89.6488 97.9377 89.6067C97.1708 89.5645 96.4037 89.6856 95.687 89.9619C97.6 88.4271 99.1793 86.2917 96.2209 84.2675C92.6174 81.7985 88.2577 89.1833 86.6117 91.252C85.4105 92.7868 84.2316 94.3661 83.0305 95.9009C82.9055 95.8779 82.7773 95.8779 82.6523 95.9009C78.8205 96.0984 75.1645 97.5702 72.2646 100.083C72.1521 100.193 72.072 100.333 72.0328 100.485C71.9936 100.638 71.9968 100.799 72.0422 100.95C72.4776 102.534 73.2348 104.01 74.2665 105.288C74.406 105.442 74.5893 105.551 74.792 105.598C74.9947 105.646 75.2072 105.631 75.4009 105.555C76.1572 105.132 76.869 104.687 77.6253 104.198C77.0599 105.423 76.6561 106.717 76.4242 108.046C76.4242 108.624 76.7356 109.469 77.4251 109.469C81.2287 109.469 82.5189 106.266 84.0982 103.308C85.6275 100.612 87.6146 98.2038 89.9705 96.1901C91.7383 94.5046 93.7662 93.1151 95.9762 92.075C95.9834 92.2201 96.0215 92.3619 96.0878 92.4912C96.1541 92.6204 96.2471 92.734 96.3608 92.8245C96.4744 92.915 96.606 92.9802 96.7468 93.0159C96.8876 93.0516 97.0343 93.0569 97.1773 93.0315C99.5799 92.424 102.125 92.7749 104.273 94.0102C105.318 94.4551 106.053 92.6978 105.007 92.1417ZM92.8621 87.693C94.219 86.1805 94.3524 86.5809 93.218 88.8942C92.0613 89.5392 90.8602 90.2955 89.6368 91.1185C90.3708 90.2955 91.1049 89.4725 91.8612 88.6717L92.8621 87.693ZM76.6021 99.1929C78.1379 98.3385 79.8205 97.7802 81.5624 97.5469C80.6727 98.6447 79.7221 99.6918 78.7152 100.683C78.0531 101.295 77.3549 101.867 76.6243 102.396C73.9106 101.017 73.8884 99.9492 76.6021 99.1929ZM78.8265 106.889C80.4195 102.637 83.1512 98.9049 86.7229 96.1011C85.6508 97.2333 84.648 98.4292 83.72 99.6823C82.3854 101.573 81.251 105.644 78.8932 106.889H78.8265Z" fill="#8B81A8"/>
<path d="M35.5645 65.7609C35.562 66.0079 35.6218 66.2515 35.7385 66.4693C35.8551 66.687 36.0248 66.8718 36.2318 67.0065C37.6392 67.852 39.2623 68.2694 40.903 68.2076C41.8507 68.3989 42.8303 68.3636 43.7618 68.1047C44.6934 67.8457 45.5506 67.3703 46.2637 66.7173C46.1447 65.7756 45.8098 64.8741 45.2851 64.0831C44.7604 63.2921 44.06 62.6331 43.2385 62.1574C42.1125 61.7759 40.9002 61.7283 39.7477 62.0204C38.5952 62.3124 37.5519 62.9317 36.7434 63.8034C36.1366 64.3005 35.7202 64.992 35.5645 65.7609Z" fill="#DEC3D0"/>
<path d="M42.0356 47.2987C42.0356 48.0994 42.7697 48.7445 43.4147 49.2783L46.1952 51.5027C48.0183 53.1723 50.0706 54.573 52.2899 55.6622C53.347 56.1891 54.512 56.4633 55.6932 56.4633C56.8743 56.4633 58.0393 56.1891 59.0964 55.6622C59.9229 55.1006 60.6026 54.349 61.0786 53.4704C61.5547 52.5919 61.8131 51.612 61.8324 50.6129C61.8394 48.4389 61.3686 46.29 60.4533 44.318C59.3452 41.338 57.3888 38.7476 54.8257 36.8665C49.8258 38.4548 45.4976 41.6637 42.525 45.9863C42.2248 46.3596 42.0532 46.8199 42.0356 47.2987Z" fill="#E2D1D9"/>
<path d="M48.4877 41.9823C46.7305 42.9166 44.039 44.8073 46.4635 46.9871C46.549 47.0734 46.6595 47.1305 46.7792 47.1505C46.899 47.1705 47.022 47.1522 47.1308 47.0984C48.4406 46.5708 49.6014 45.7308 50.5119 44.6516C50.9345 44.1622 50.1337 43.4059 49.6889 43.8953C49.1995 44.4912 48.6219 45.0088 47.9761 45.4301L47.2643 45.8305C46.686 44.5403 47.0196 43.7173 48.2875 43.4059C49.9412 42.4735 51.6497 41.6415 53.4035 40.9147L55.0273 41.6487C54.6541 42.2061 54.2296 42.7274 53.7594 43.2057C53.1331 43.8913 52.4724 44.5446 51.7797 45.1632C50.9255 45.9855 49.8827 46.5859 48.7426 46.9116C47.6025 47.2374 46.3999 47.2786 45.2402 47.0316C45.1797 47.0119 45.1158 47.0054 45.0526 47.0125C44.9894 47.0196 44.9285 47.0402 44.874 47.0728C44.8194 47.1055 44.7725 47.1494 44.7363 47.2017C44.7002 47.254 44.6757 47.3134 44.6645 47.376C44.6532 47.4386 44.6555 47.5028 44.6712 47.5644C44.6869 47.626 44.7156 47.6835 44.7554 47.7331C44.7952 47.7827 44.8452 47.8232 44.9019 47.8518C44.9587 47.8804 45.0209 47.8966 45.0844 47.8991C46.4002 48.2463 47.7832 48.2486 49.1001 47.9058C50.417 47.5629 51.6234 46.8865 52.6028 45.9417C54.2265 44.4959 57.1849 42.4495 55.8503 39.8247C54.8049 37.8006 49.4219 41.493 48.4877 41.9823Z" fill="#D3ACC1"/>
<path d="M61.8324 39.4694C61.958 40.2038 61.9954 40.9505 61.9436 41.6938C61.9436 43.9181 62.522 45.9645 62.6332 48.0999C62.7654 49.1299 62.6685 50.1764 62.3493 51.1646C62.0302 52.1528 61.4967 53.0584 60.787 53.8165C57.3837 48.9229 59.0742 41.7605 55.1594 37.0226C54.5567 37.402 53.8683 37.6239 53.1574 37.6677C53.0525 37.6278 52.9574 37.5657 52.8787 37.4856C52.8 37.4055 52.7396 37.3093 52.7015 37.2037C52.6635 37.098 52.6488 36.9854 52.6584 36.8735C52.6679 36.7616 52.7016 36.6532 52.7571 36.5555C52.9005 36.3839 53.0766 36.2424 53.2752 36.1393C53.4737 36.0362 53.6908 35.9735 53.9137 35.9549C55.4413 35.5845 57.0411 35.6384 58.5404 36.1106C59.3151 36.3712 60.0172 36.8114 60.5893 37.3951C61.1615 37.9789 61.5874 38.6896 61.8324 39.4694Z" fill="#DEC3D0"/>
<path d="M44.0385 43.6731C43.2548 44.2919 42.5118 44.9606 41.8141 45.675C41.393 46.0547 41.0657 46.5267 40.8576 47.0541C40.7854 47.6889 40.8557 48.3318 41.0635 48.936C41.2713 49.5401 41.6113 50.0903 42.0588 50.5463C44.437 53.6438 47.6014 56.0478 51.2231 57.5086C52.0863 57.9073 53.031 58.0978 53.9813 58.0647C55.8275 57.9089 57.0287 56.3074 58.1853 54.995C57.8657 54.4016 57.4115 53.8913 56.8591 53.5051C56.3068 53.1188 55.6716 52.8673 55.0045 52.7707C53.6921 52.4815 52.402 52.5483 51.0896 52.3258C48.6311 51.708 46.3182 50.612 44.2831 49.1005C43.4824 48.5889 42.5704 47.8326 42.7038 46.8762C42.8373 45.9197 44.7947 45.6083 44.9282 44.4294L44.0385 43.6731Z" fill="#DEC3D0"/>
<path d="M54.716 57.3528C54.5744 57.0597 54.3619 56.8065 54.0978 56.6162C53.8337 56.4259 53.5263 56.3045 53.2035 56.2629C52.574 56.2191 51.9422 56.2191 51.3128 56.2629C49.4906 56.094 47.7803 55.3095 46.4637 54.0385C45.1256 52.7628 43.9389 51.3372 42.9269 49.79L39.9241 51.1469C41.7654 53.711 44.2307 55.7628 47.0865 57.1082C48.3057 57.8742 49.6553 58.4095 51.0681 58.6874C51.7399 58.8133 52.4333 58.7558 53.0753 58.5209C53.7172 58.2861 54.284 57.8826 54.716 57.3528Z" fill="#E2D1D9"/>
<path d="M65.6378 39.5803C65.8849 41.6168 65.9667 43.6699 65.8825 45.7195C65.8972 47.3273 65.5948 48.9221 64.9927 50.4129C63.9895 52.2055 62.5707 53.7312 60.8554 54.8616C60.5554 55.1839 60.1732 55.4183 59.75 55.5398C59.3267 55.6613 58.8784 55.6652 58.4531 55.5512C58.9647 54.5502 60.2326 54.1276 60.8109 53.1711C61.3136 52.1116 61.3775 50.8965 60.9889 49.7901C60.4198 47.6647 59.9595 45.5117 59.6098 43.3395C59.4135 42.3081 59.4348 41.2471 59.6723 40.2244C59.9098 39.2017 60.3582 38.2398 60.9889 37.4005C61.3425 36.9495 61.8329 36.6254 62.3864 36.477C62.94 36.3286 63.5267 36.3639 64.0585 36.5774C64.5325 36.9252 64.9211 37.3763 65.1947 37.8966C65.4684 38.4169 65.6199 38.9927 65.6378 39.5803Z" fill="#E2D1D9"/>
<path d="M24.3525 31.8395C24.6749 32.3309 25.1787 32.6748 25.7538 32.7959L28.1339 33.6857C29.7163 34.3484 31.3751 34.8116 33.0719 35.0648C33.8575 35.2235 34.6693 35.1956 35.442 34.9831C36.2148 34.7706 36.9268 34.3795 37.5206 33.8414C37.9114 33.3226 38.1566 32.709 38.2309 32.0638C38.3052 31.4185 38.2059 30.7652 37.9433 30.1712C37.326 28.84 36.44 27.651 35.3408 26.679C33.84 25.067 31.9471 23.8715 29.8466 23.209C27.1062 25.0358 25.1468 27.8202 24.3525 31.0165C24.2673 31.2842 24.2673 31.5717 24.3525 31.8395Z" fill="#E2D1D9"/>
<path d="M34.9625 23.4316C35.239 23.8361 35.4562 24.278 35.6076 24.744C36.1636 26.0341 37.0756 27.2353 37.6984 28.5031C38.0466 29.0681 38.2545 29.7082 38.3048 30.3699C38.3551 31.0316 38.2463 31.6957 37.9876 32.3068C34.4731 29.9267 33.7836 25.3223 30.0912 23.1869C29.7954 23.5246 29.4211 23.7844 29.0012 23.9432C28.9262 23.9405 28.8525 23.9225 28.7846 23.8905C28.7167 23.8585 28.6559 23.8131 28.606 23.757C28.5562 23.7008 28.5182 23.6352 28.4943 23.564C28.4705 23.4928 28.4613 23.4175 28.4674 23.3426C28.5164 23.2102 28.5934 23.09 28.6932 22.9902C28.7931 22.8903 28.9133 22.8133 29.0457 22.7643C29.9493 22.2393 30.9817 21.9773 32.0264 22.008C32.5885 22.0245 33.1409 22.1599 33.647 22.4052C34.153 22.6506 34.6014 23.0004 34.9625 23.4316Z" fill="#DEC3D0"/>
<path d="M24.7533 29.2593C24.4419 29.7931 24.1527 30.327 23.8858 30.8831C23.727 31.193 23.6432 31.5358 23.6411 31.884C23.6411 32.6625 24.5309 33.3076 25.3094 33.7747C27.6018 35.2213 30.2137 36.0843 32.9167 36.2882C33.551 36.3631 34.1938 36.3102 34.8074 36.1325C35.9418 35.6877 36.2977 34.5087 36.6981 33.4633C36.3365 33.1702 35.9201 32.9523 35.4732 32.8224C35.0262 32.6925 34.5579 32.6533 34.0956 32.707C33.1836 32.707 32.3828 33.0629 31.4931 33.1741C29.7453 33.2604 27.9964 33.0267 26.3326 32.4846C25.6875 32.3289 24.8868 32.0175 24.7755 31.4614C24.6643 30.9053 25.7542 30.3047 25.5096 29.5929L24.7533 29.2593Z" fill="#DEC3D0"/>
<path d="M35.1408 35.5764C34.9728 35.4272 34.7744 35.3162 34.5594 35.2509C34.3444 35.1857 34.1178 35.1677 33.8952 35.1983C33.4788 35.2652 33.0694 35.3694 32.6718 35.5097C31.4292 35.7265 30.1502 35.5637 29.0016 35.0426C27.8278 34.519 26.7099 33.8781 25.6651 33.1296L24.019 34.5087C25.8669 35.6965 27.9568 36.4565 30.136 36.7331C31.0956 36.9698 32.0879 37.045 33.0722 36.9555C33.5151 36.9577 33.9486 36.8277 34.3171 36.582C34.6857 36.3363 34.9725 35.9861 35.1408 35.5764Z" fill="#E2D1D9"/>
<path d="M26.2437 31.3056H26.4883C28.4013 30.7273 29.3578 28.6586 30.0918 26.8569C30.3365 26.2341 30.5589 25.5001 30.0918 24.9885C29.9179 24.7998 29.6916 24.6673 29.442 24.6078C29.1924 24.5484 28.9307 24.5648 28.6904 24.6548C28.2229 24.8604 27.7998 25.1551 27.4448 25.5223C26.7856 26.0093 26.2437 26.6376 25.8589 27.3612C25.474 28.0848 25.2558 28.8853 25.2205 29.7041C25.2811 30.2252 25.4724 30.7225 25.7765 31.1499C25.839 31.2074 25.9129 31.251 25.9934 31.2778C26.0739 31.3047 26.1592 31.3141 26.2437 31.3056Z" fill="#D8C8D0"/>
<path d="M24.019 46.387C24.0265 46.7685 24.1111 47.1446 24.2679 47.4924C24.4246 47.8403 24.6502 48.1529 24.931 48.4112L27.0219 50.9469C28.3705 52.7477 29.9654 54.35 31.7598 55.7071C32.5982 56.361 33.5778 56.8102 34.6204 57.0187C35.6631 57.2272 36.7401 57.1894 37.7655 56.9082C38.6122 56.5184 39.3507 55.9276 39.9167 55.1871C40.4827 54.4466 40.8591 53.5789 41.0131 52.6597C41.3618 50.6782 41.2783 48.6447 40.7684 46.6984C40.2616 43.829 38.9413 41.1654 36.9648 39.0244C32.2821 39.672 27.9554 41.8823 24.6863 45.2971C24.3495 45.5766 24.1149 45.9599 24.019 46.387Z" fill="#E2D1D9"/>
<path d="M42.7266 42.6056C42.7229 43.2875 42.6408 43.9667 42.4819 44.6298C42.1705 46.565 42.3262 48.5669 42.1038 50.5243C42.0696 51.4682 41.8265 52.3927 41.3918 53.2312C40.9572 54.0698 40.3419 54.8014 39.5903 55.3734C37.3659 50.2796 39.9462 44.2516 37.2325 39.3136C36.6374 39.5402 35.9974 39.624 35.364 39.5583C35.2759 39.5052 35.2003 39.4337 35.1424 39.3486C35.0846 39.2635 35.0459 39.1669 35.029 39.0654C35.0121 38.9639 35.0173 38.86 35.0445 38.7608C35.0716 38.6615 35.1199 38.5693 35.1861 38.4906C35.3341 38.3535 35.5105 38.2506 35.7026 38.1891C35.8948 38.1276 36.0981 38.109 36.2982 38.1347C37.7067 38.0504 39.1103 38.3666 40.3466 39.0467C40.9914 39.4155 41.542 39.9288 41.9549 40.5464C42.3679 41.1639 42.6321 41.8688 42.7266 42.6056Z" fill="#DEC3D0"/>
<path d="M26.4437 43.4731C25.6679 43.9001 24.9245 44.3834 24.2194 44.919C23.7792 45.1889 23.4124 45.5632 23.1517 46.0089C22.9933 46.5693 22.9571 47.1571 23.0453 47.7327C23.1336 48.3083 23.3443 48.8582 23.6633 49.3454C25.2771 52.516 27.7024 55.2023 30.6922 57.1307C31.3929 57.6289 32.2003 57.9564 33.05 58.0871C34.6612 57.9724 36.1629 57.2295 37.2318 56.0185C37.0587 55.4136 36.7447 54.8583 36.3155 54.3982C35.8863 53.9381 35.3542 53.5862 34.7628 53.3715C33.6728 52.9044 32.5384 52.7487 31.3818 52.3261C29.2953 51.3612 27.4205 49.9929 25.8654 48.3C25.2426 47.6994 24.553 46.8542 24.8199 46.0756C25.0869 45.2971 26.8441 45.2749 27.0443 44.2294L26.4437 43.4731Z" fill="#DEC3D0"/>
<path d="M33.6732 57.5529C33.6015 57.2644 33.4578 56.9988 33.2555 56.7809C33.0532 56.5631 32.799 56.4001 32.5165 56.3073C31.9715 56.1367 31.4136 56.0103 30.8483 55.9291C29.2548 55.4587 27.8672 54.4631 26.9112 53.1042C25.9384 51.7133 25.1181 50.2219 24.4644 48.6555L21.595 49.3673C22.8016 52.0141 24.6617 54.3104 27.0001 56.0404C27.955 56.9233 29.0631 57.6244 30.2699 58.109C30.8345 58.3326 31.4491 58.399 32.0484 58.3011C32.6477 58.2031 33.2092 57.9446 33.6732 57.5529Z" fill="#E2D1D9"/>
<path d="M26.6876 46.8983C26.7715 46.962 26.8718 47.0006 26.9767 47.0095C29.646 47.4766 32.3374 45.5414 34.6063 43.7175C35.3403 43.1391 36.1633 42.3606 36.0743 41.4931C36.0149 41.1582 35.8442 40.853 35.59 40.627C35.3357 40.401 35.0126 40.2673 34.673 40.2475C33.9633 40.1913 33.2499 40.29 32.5821 40.5367C31.4294 40.7488 30.3321 41.1935 29.3569 41.8436C28.3817 42.4937 27.5492 43.3356 26.91 44.3181C26.5981 44.9772 26.453 45.7028 26.4874 46.4312C26.4874 46.5185 26.5051 46.605 26.5395 46.6853C26.574 46.7656 26.6243 46.8381 26.6876 46.8983Z" fill="#D8C8D0"/>
<path d="M51.4674 29.5928C52.0792 30.106 52.7893 30.4891 53.5542 30.7186C54.3191 30.9481 55.1228 31.0191 55.9161 30.9274C57.3715 30.7376 58.7519 30.1701 59.9199 29.2814C60.6907 28.8051 61.3564 28.1769 61.8765 27.435C62.3966 26.6931 62.7602 25.8531 62.945 24.9661C63.3454 22.0745 61.1878 19.0716 61.0321 16.0687C61.0321 14.7786 61.0321 13.0881 59.8977 12.443C58.7633 11.798 57.8068 12.6655 56.9838 13.3328C55.092 14.8162 52.815 15.727 50.4219 15.9575C48.8204 16.1355 46.8185 16.2467 46.3514 17.7592C46.2136 18.7652 46.4089 19.7886 46.9075 20.6731L49.1318 25.6334C49.613 27.1074 50.41 28.4587 51.4674 29.5928Z" fill="#DEC3D0"/>
</g>
<defs>
<filter id="filter0_d_176_5609" x="0" y="0" width="117.263" height="131.25" filterUnits="userSpaceOnUse" color-interpolation-filters="sRGB">
<feFlood flood-opacity="0" result="BackgroundImageFix"/>
<feColorMatrix in="SourceAlpha" type="matrix" values="0 0 0 0 0 0 0 0 0 0 0 0 0 0 0 0 0 0 127 0" result="hardAlpha"/>
<feOffset dy="4"/>
<feGaussianBlur stdDeviation="2"/>
<feComposite in2="hardAlpha" operator="out"/>
<feColorMatrix type="matrix" values="0 0 0 0 0 0 0 0 0 0 0 0 0 0 0 0 0 0 0.25 0"/>
<feBlend mode="normal" in2="BackgroundImageFix" result="effect1_dropShadow_176_5609"/>
<feBlend mode="normal" in="SourceGraphic" in2="effect1_dropShadow_176_5609" result="shape"/>
</filter>
</defs>
</svg>
