<svg width="448" height="52" viewBox="0 0 448 52" fill="none" xmlns="http://www.w3.org/2000/svg">
<path d="M448 0H0V52H448V0Z" fill="#06BE34"/>
<path d="M29.2984 43.4932C19.7723 43.4932 12.0518 35.7727 12.0518 26.2466C12.0518 16.7206 19.7723 9 29.2984 9C38.8245 9 46.545 16.7206 46.545 26.2466C46.5403 35.7727 38.8198 43.4932 29.2984 43.4932Z" fill="#06BE34"/>
<path d="M37.8605 18.376V34.1227H32.1148L26.4772 26.1953V34.1227H20.7314V18.376H26.4772L32.1148 26.6231V18.376H37.8605Z" fill="white"/>
<path opacity="0.1" d="M58 3H56V48H58V3Z" fill="black"/>
<path d="M196.052 24.09H193.367V22.455H196.052V18.495H197.882V31.485H196.052V24.09ZM200.912 32.16H199.082V18.21H200.912V32.16ZM191.192 19.515V26.73H191.687C192.287 26.73 192.882 26.71 193.472 26.67C194.072 26.63 194.627 26.57 195.137 26.49L195.332 28.095C194.762 28.205 194.112 28.28 193.382 28.32C192.652 28.35 191.897 28.365 191.117 28.365H189.302V19.515H191.192ZM206.734 28.875C206.094 28.875 205.544 28.775 205.084 28.575C204.634 28.375 204.264 28.095 203.974 27.735C203.684 27.375 203.469 26.95 203.329 26.46C203.199 25.97 203.134 25.43 203.134 24.84V23.175C203.134 22.595 203.199 22.06 203.329 21.57C203.469 21.07 203.684 20.64 203.974 20.28C204.264 19.92 204.634 19.64 205.084 19.44C205.544 19.24 206.094 19.14 206.734 19.14C207.374 19.14 207.919 19.24 208.369 19.44C208.829 19.64 209.204 19.92 209.494 20.28C209.784 20.64 209.994 21.07 210.124 21.57C210.264 22.06 210.334 22.595 210.334 23.175V24.84C210.334 25.43 210.264 25.97 210.124 26.46C209.994 26.95 209.784 27.375 209.494 27.735C209.204 28.095 208.829 28.375 208.369 28.575C207.919 28.775 207.374 28.875 206.734 28.875ZM206.734 20.805C206.094 20.805 205.634 21.025 205.354 21.465C205.084 21.905 204.949 22.55 204.949 23.4V24.615C204.949 25.465 205.084 26.11 205.354 26.55C205.634 26.99 206.094 27.21 206.734 27.21C207.374 27.21 207.829 26.99 208.099 26.55C208.379 26.11 208.519 25.465 208.519 24.615V23.4C208.519 22.55 208.379 21.905 208.099 21.465C207.829 21.025 207.374 20.805 206.734 20.805ZM214.174 32.16H212.269V18.21H214.174V32.16ZM223.566 22.965H225.951V18.21H227.856V32.16H225.951V24.6H223.566V28.56H216.801V19.32H218.676V22.455H221.691V19.32H223.566V22.965ZM218.676 26.97H221.691V24.075H218.676V26.97ZM237.069 26.925V28.815H242.514V30.405H229.734V28.815H235.179V26.925H231.444V22.275H238.839V20.79H231.399V19.2H240.729V23.85H233.334V25.335H241.044V26.925H237.069ZM254.471 26.925V28.815H259.916V30.405H247.136V28.815H252.581V26.925H248.846V22.275H256.241V20.79H248.801V19.2H258.131V23.85H250.736V25.335H258.446V26.925H254.471ZM273.569 28.8V30.405H260.789V28.8H273.569ZM269.339 27.54C269.429 27.06 269.504 26.6 269.564 26.16C269.634 25.71 269.684 25.275 269.714 24.855C269.754 24.435 269.779 24.02 269.789 23.61C269.809 23.19 269.819 22.765 269.819 22.335V21.12H262.319V19.455H271.709V21.84C271.709 22.55 271.699 23.175 271.679 23.715C271.659 24.245 271.629 24.735 271.589 25.185C271.549 25.635 271.494 26.065 271.424 26.475C271.364 26.885 271.294 27.315 271.214 27.765L269.339 27.54ZM279.061 30.39H286.261V32.01H277.156V27.33H279.061V30.39ZM286.036 28.14H284.146V18.21H286.036V28.14ZM278.476 26.01C277.916 26.01 277.411 25.925 276.961 25.755C276.521 25.575 276.146 25.335 275.836 25.035C275.526 24.735 275.286 24.39 275.116 24C274.956 23.61 274.876 23.205 274.876 22.785V21.945C274.876 21.525 274.956 21.12 275.116 20.73C275.286 20.34 275.526 19.995 275.836 19.695C276.146 19.395 276.521 19.16 276.961 18.99C277.411 18.81 277.916 18.72 278.476 18.72C279.036 18.72 279.536 18.81 279.976 18.99C280.426 19.16 280.806 19.395 281.116 19.695C281.426 19.995 281.661 20.34 281.821 20.73C281.991 21.12 282.076 21.525 282.076 21.945V22.785C282.076 23.205 281.991 23.61 281.821 24C281.661 24.39 281.426 24.735 281.116 25.035C280.806 25.335 280.426 25.575 279.976 25.755C279.536 25.925 279.036 26.01 278.476 26.01ZM278.476 20.355C278.196 20.355 277.941 20.405 277.711 20.505C277.491 20.595 277.301 20.72 277.141 20.88C276.991 21.04 276.871 21.225 276.781 21.435C276.701 21.645 276.661 21.86 276.661 22.08V22.65C276.661 22.88 276.701 23.1 276.781 23.31C276.871 23.51 276.991 23.69 277.141 23.85C277.301 24.01 277.491 24.14 277.711 24.24C277.941 24.33 278.196 24.375 278.476 24.375C278.756 24.375 279.006 24.33 279.226 24.24C279.456 24.14 279.646 24.01 279.796 23.85C279.956 23.69 280.076 23.51 280.156 23.31C280.246 23.1 280.291 22.88 280.291 22.65V22.08C280.291 21.86 280.246 21.645 280.156 21.435C280.076 21.225 279.956 21.04 279.796 20.88C279.646 20.72 279.456 20.595 279.226 20.505C279.006 20.405 278.756 20.355 278.476 20.355Z" fill="white"/>
</svg>
