<svg width="262" height="239" viewBox="0 0 262 239" fill="none" xmlns="http://www.w3.org/2000/svg">
<g clip-path="url(#clip0_562_5446)">
<path d="M196.787 169.899L204.921 227.537L216.271 228.51L216.025 226.955L219.17 169.132L196.787 169.899Z" fill="#FFC0BB"/>
<path d="M160.969 226.881C161.111 225.697 157.259 162.76 157.259 162.76C157.259 162.76 182.61 166.759 182.285 166.187C181.961 165.614 171.967 229.419 171.967 229.419L160.969 226.881Z" fill="#FFC0BB"/>
<path d="M157.257 129.083C157.257 129.083 154.019 161.907 155.21 172.321C155.21 172.321 169.95 177.458 183.658 174.041L188.225 148.068C188.225 148.068 194.522 171.687 195.227 175.22C195.227 175.22 214.674 175.326 222.926 174.184L220.364 131.785L182.285 127.8L157.257 129.083Z" fill="#1E1E1E"/>
<path d="M159.642 202.387C160.399 215.248 160.87 228.048 160.807 228.539L171.967 229.419C171.967 229.419 173.837 217.469 175.986 203.962C168.508 204.053 162.826 203.104 159.642 202.387Z" fill="#DCEAF4"/>
<path d="M173.048 228.77L174.048 236.474C174.171 237.425 173.635 238.283 172.923 238.278L148.123 238.111C147.77 238.097 147.429 237.982 147.14 237.78C146.851 237.577 146.627 237.295 146.494 236.968C146.14 236.209 146.059 235.067 147.157 233.541C149.349 230.487 156.638 229.79 160.178 227.193L171.724 227.272C172.38 227.276 172.935 227.91 173.048 228.77Z" fill="#AAD9F9"/>
<path d="M162.028 231.359C162.119 231.286 162.182 231.184 162.207 231.07C162.231 230.956 162.216 230.837 162.163 230.733C162.025 230.441 159.628 227.176 157.031 227.603C156.852 227.63 156.731 227.864 156.766 228.094C156.798 228.34 156.96 228.48 157.132 228.453C159.905 228.009 161.217 230.281 161.62 231.156C161.706 231.372 161.88 231.448 162.028 231.359Z" fill="#DCEAF4"/>
<path d="M159.461 232.332C159.552 232.26 159.615 232.157 159.64 232.043C159.665 231.929 159.649 231.81 159.596 231.706C159.104 230.647 157.554 228.07 154.464 228.576C154.367 228.612 154.287 228.681 154.238 228.772C154.189 228.862 154.175 228.967 154.198 229.067C154.23 229.298 154.392 229.451 154.567 229.424C157.338 228.979 158.601 231.571 159.001 232.458C159.087 232.654 159.313 232.421 159.461 232.332Z" fill="#DCEAF4"/>
<path d="M157.072 233.241C157.163 233.168 157.226 233.066 157.251 232.952C157.276 232.838 157.26 232.719 157.207 232.615C156.716 231.556 155.168 228.976 152.075 229.485C151.979 229.521 151.899 229.59 151.85 229.681C151.801 229.771 151.787 229.876 151.81 229.976C151.842 230.207 152.004 230.36 152.179 230.333C154.466 229.966 156.601 232.932 156.665 233.035C156.751 233.254 156.925 233.33 157.072 233.241Z" fill="#DCEAF4"/>
<path d="M217.283 203.81C211.446 204.119 205.57 203.652 201.484 203.173L204.924 227.537L216.274 228.52L216.028 226.964L217.283 203.81Z" fill="#DCEAF4"/>
<path d="M217.286 228.77L218.286 236.474C218.411 237.425 217.873 238.283 217.161 238.278L192.348 238.111C191.996 238.097 191.654 237.982 191.366 237.779C191.077 237.577 190.852 237.295 190.719 236.968C190.366 236.209 190.287 235.067 191.383 233.541C193.577 230.487 200.866 229.79 204.403 227.193L215.95 227.272C216.62 227.276 217.17 227.91 217.286 228.77Z" fill="#AAD9F9"/>
<path d="M206.265 231.359C206.356 231.287 206.42 231.185 206.445 231.071C206.47 230.957 206.455 230.837 206.403 230.733C206.265 230.441 203.865 227.176 201.268 227.603C201.089 227.63 200.971 227.864 201.003 228.094C201.032 228.34 201.197 228.48 201.369 228.453C204.14 228.009 205.454 230.281 205.855 231.156C205.943 231.372 206.115 231.448 206.265 231.359Z" fill="#DCEAF4"/>
<path d="M203.7 232.332C203.791 232.259 203.854 232.157 203.879 232.043C203.904 231.929 203.888 231.81 203.836 231.706C203.698 231.414 201.3 228.151 198.701 228.576C198.605 228.612 198.526 228.682 198.477 228.772C198.428 228.863 198.414 228.967 198.436 229.067C198.468 229.298 198.63 229.451 198.802 229.424C201.573 228.979 202.887 231.251 203.29 232.138C203.299 232.181 203.318 232.222 203.345 232.256C203.373 232.291 203.407 232.318 203.447 232.337C203.487 232.356 203.53 232.365 203.574 232.364C203.618 232.364 203.661 232.353 203.7 232.332Z" fill="#DCEAF4"/>
<path d="M201.312 233.241C201.403 233.168 201.466 233.066 201.49 232.952C201.515 232.838 201.5 232.719 201.448 232.615C200.956 231.556 199.406 228.976 196.316 229.485C196.219 229.521 196.139 229.59 196.089 229.68C196.04 229.771 196.025 229.876 196.048 229.976C196.08 230.207 196.242 230.36 196.414 230.333C198.701 229.966 200.848 232.932 200.902 233.035C200.991 233.254 201.163 233.33 201.312 233.241Z" fill="#DCEAF4"/>
<path d="M202.037 207.104L202.283 208.873C206.466 209.778 210.791 209.82 214.991 208.996C215.659 208.863 216.34 208.701 217.025 208.504L217.121 206.758C212.204 208.15 207.013 208.269 202.037 207.104Z" fill="#1E1E1E"/>
<path d="M202.62 211.219L202.865 212.976C206.869 213.764 210.988 213.764 214.991 212.976C215.588 212.855 216.195 212.713 216.807 212.551L216.9 210.809C212.242 212.089 207.344 212.23 202.62 211.219Z" fill="#1E1E1E"/>
<path d="M160.139 210.9C160.176 211.551 160.212 212.192 160.249 212.818C164.356 213.884 168.626 214.175 172.84 213.676C173.378 213.612 173.926 213.526 174.476 213.43C174.574 212.809 174.672 212.18 174.773 211.538C169.909 212.431 164.906 212.213 160.139 210.9Z" fill="#1E1E1E"/>
<path d="M159.875 206.387C159.915 207.035 159.952 207.681 159.988 208.315C164.275 209.509 168.754 209.855 173.173 209.332C173.829 209.254 174.498 209.148 175.173 209.023C175.271 208.397 175.371 207.764 175.473 207.124C170.29 208.136 164.94 207.883 159.875 206.387Z" fill="#1E1E1E"/>
<path d="M106.443 88.9712C106.432 89.0316 106.405 89.0879 106.365 89.1342C106.325 89.1806 106.273 89.2151 106.215 89.2343C106.157 89.2534 106.094 89.2565 106.035 89.243C105.975 89.2296 105.92 89.2002 105.875 89.1579C104.369 87.7133 99.5986 83.1978 99.1441 83.5074C98.6036 83.8636 102.768 88.0032 102.51 88.5462C102.252 89.0891 98.2941 84.9397 97.7757 85.4138C97.2574 85.888 100.996 89.5412 100.847 89.8188C100.697 90.0964 96.7464 86.9689 96.2771 87.0746C95.8079 87.1802 99.6207 91.0054 99.5372 91.3985C99.4536 91.7916 95.9381 90.0079 95.749 90.2929C95.5598 90.5779 95.3903 90.7352 102.161 96.9974L106.045 100.646L108.229 100.051L110.484 96.6805C110.484 96.6805 108.374 85.0035 107.924 84.807C107.475 84.6105 107.2 84.893 106.443 88.9712Z" fill="#FFC0BB"/>
<path d="M153.378 97.845L141.539 88.4062L139.308 91.9267C136.157 99.948 129.627 106.24 127.895 107.016C124.224 108.657 109.266 92.8504 109.266 92.8504L105.249 99.4836C105.249 99.4836 121.416 123.869 131.479 119.548C141.542 115.226 152.493 99.744 152.493 99.744L153.378 97.845Z" fill="#FFC0BB"/>
<path d="M186.865 57.1686L186.796 64.8951L175.117 64.4995L174.161 53.3336L186.865 57.1686Z" fill="#FFC0BB"/>
<path d="M186.825 61.6472C184.344 62.6103 180.406 63.4923 174.974 62.8142L174.164 53.3336L186.865 57.1686L186.825 61.6472Z" fill="#F99893"/>
<path d="M159.089 32.0803C160.072 34.9006 159.035 37.8217 156.775 38.6078C154.515 39.394 151.889 37.7431 150.906 34.9227C149.924 32.1024 150.96 29.1788 153.22 28.3951C155.48 27.6114 158.107 29.2599 159.089 32.0803Z" fill="#F99893"/>
<path d="M159.033 48.2727C158.401 47.0352 157.886 45.7415 157.495 44.4082C156.358 40.787 155.888 36.9815 155.741 33.6747C155.709 32.9647 155.635 32.2596 155.549 31.5545C155.165 28.3738 155.446 25.148 156.374 22.0815C157.302 19.0149 158.856 16.1746 160.939 13.7406C163.023 11.3065 165.589 9.33174 168.475 7.94147C171.361 6.5512 174.505 5.77573 177.707 5.66422C180.909 5.55271 184.099 6.10759 187.075 7.29368C190.051 8.47978 192.748 10.2712 194.996 12.5545C197.243 14.8377 198.992 17.563 200.131 20.5575C201.27 23.552 201.774 26.7505 201.612 29.9502C203.098 29.2132 204.732 29.1223 206.127 29.8323C208.803 31.1983 209.586 35.0136 207.877 38.3572C206.167 41.7009 202.609 43.3002 199.932 41.9367C199.568 41.7472 199.232 41.5092 198.932 41.2292C197.188 52.4614 187.462 60.6965 176.357 59.9373C171.103 59.5695 166.186 57.2186 162.6 53.3606C162.341 53.1154 162.095 52.8571 161.863 52.5867C160.737 51.2768 159.786 49.8268 159.033 48.2727Z" fill="#FFC0BB"/>
<path d="M177.372 30.6676C178.333 30.3363 179.319 30.0833 180.32 29.9109C181.253 29.7511 182.203 29.7255 183.143 29.8348C184.08 29.9388 184.996 30.1875 185.857 30.5718L186.199 30.7045C186.312 30.7511 186.415 30.8199 186.526 30.8715L187.196 31.2081C187.646 31.4415 188.064 31.7338 188.562 31.9672C188.296 31.5008 187.989 31.0585 187.646 30.6455C187.255 30.2819 186.909 29.8471 186.418 29.5694C185.499 28.914 184.427 28.5069 183.305 28.3877C182.188 28.2578 181.056 28.4037 180.008 28.8128C178.985 29.1955 178.078 29.8341 177.372 30.6676Z" fill="#FEE4CB"/>
<path d="M170.247 30.8568C169.575 29.9978 168.692 29.3262 167.685 28.9061C166.653 28.4606 165.526 28.275 164.406 28.3656C163.28 28.4464 162.195 28.8152 161.254 29.4368C160.762 29.6997 160.391 30.1198 159.988 30.4711C159.63 30.8709 159.308 31.3017 159.025 31.7584C159.531 31.5447 159.959 31.2671 160.418 31.0484L161.099 30.734C161.214 30.6873 161.317 30.6209 161.433 30.5792L161.777 30.4588C162.652 30.1074 163.576 29.8928 164.516 29.8225C165.46 29.7473 166.409 29.8069 167.336 29.9994C168.328 30.2062 169.302 30.493 170.247 30.8568Z" fill="#FEE4CB"/>
<path d="M174.424 32.0188C174.682 33.1134 174.785 34.2391 174.728 35.3625C174.706 35.9374 174.63 36.5089 174.502 37.0699C174.373 37.6814 174.113 38.2578 173.741 38.7601L173.559 38.9542L173.394 39.1188C173.315 39.1867 173.243 39.2624 173.178 39.3448C173.052 39.4936 172.961 39.6692 172.913 39.8583C172.872 40.0634 172.874 40.2747 172.919 40.4789C172.964 40.6831 173.05 40.8759 173.173 41.0449C173.694 41.8385 174.694 42.3445 175.755 42.6688C174.655 42.7769 173.387 42.519 172.517 41.5584C172.283 41.3079 172.107 41.0079 172.004 40.6805C171.9 40.353 171.872 40.0066 171.92 39.6667C171.946 39.4893 171.999 39.3169 172.078 39.1557C172.146 38.9931 172.235 38.8402 172.343 38.7012C172.451 38.5644 172.572 38.4385 172.704 38.3253C172.748 38.2834 172.79 38.2391 172.829 38.1926L172.93 38.0845C173.207 37.6956 173.415 37.2617 173.544 36.8021C173.697 36.2976 173.822 35.785 173.918 35.2667C174.102 34.2102 174.252 33.1244 174.424 32.0188Z" fill="#F99893"/>
<path d="M152.719 17.9343C152.719 17.9343 148.998 17.6321 147.823 16.1163C147.823 16.1163 152.405 17.723 154.434 12.5098C156.463 7.29654 161.519 2.04892 168.715 0.567504C175.911 -0.913917 194.542 0.45695 199.237 5.15917C203.931 9.86139 205.624 14.3892 205.182 20.6539C204.74 26.9186 206.617 29.5547 208.489 29.621C207.712 29.8743 206.892 29.9668 206.079 29.8929C205.265 29.819 204.475 29.5802 203.757 29.1911C203.757 29.1911 203.919 31.9476 206.378 32.773C206.378 32.773 200.47 32.1932 199.215 28.6162C199.215 28.6162 199.202 35.4509 200.713 37.0109C200.713 37.0109 196.006 35.0455 194.869 23.7912C194.869 23.7912 175.638 16.3939 172.405 7.52256C172.405 7.52256 175.038 16.4037 178.107 17.8188C178.107 17.8188 169.985 18.1824 165.688 10.2864C165.688 10.2864 159.711 14.7798 158.127 17.8262C156.599 20.7743 155.387 28.1863 155.373 28.7194L152.842 20.2534C152.842 20.2534 150.766 21.8651 147.845 20.6367C147.845 20.6367 152.002 19.5459 152.719 17.9343Z" fill="#FEE4CB"/>
<path d="M170.506 64.0573L193.353 62.7675C193.353 62.7675 194.734 67.8751 192.503 68.2731C190.272 68.6711 186.386 72.2579 184.592 71.9042C182.799 71.5504 182.006 70.7765 180.026 70.7519C178.045 70.7274 174.034 69.2484 173.505 68.5949C172.977 67.9414 170.476 65.9367 170.604 65.809C170.732 65.6812 170.506 64.0573 170.506 64.0573Z" fill="#FFC0BB"/>
<path d="M152.515 100.727C151.041 69.8626 157.249 65.1776 157.252 65.1751C156.907 65.3446 156.578 65.5453 156.269 65.7746C152.201 68.8136 135.363 90.5878 135.363 90.5878C135.363 90.5878 142.222 101.041 152.513 100.714L152.515 100.727Z" fill="#87C5E8"/>
<path d="M253.148 123.759C253.148 123.759 250.64 121.97 249.633 121.344L248.198 118.31C243.354 104.903 232.247 90.4452 222.329 79.3112C219.074 81.9424 215.615 84.7333 212.385 87.3399C223.651 99.5573 236.46 116.619 241.84 123.946L242.054 124.42L243.553 130.009C244.887 134.522 246.036 139.413 246.459 139.546C247.051 139.735 247.41 139.335 247.869 133.822C247.875 133.739 247.904 133.66 247.951 133.592C247.999 133.525 248.065 133.471 248.14 133.438C248.216 133.405 248.3 133.393 248.382 133.404C248.464 133.415 248.541 133.448 248.606 133.5C250.8 135.22 257.738 140.556 258.303 140.096C258.971 139.551 252.898 134.625 253.158 133.871C253.419 133.117 259.236 138.069 259.86 137.372C260.484 136.674 255.03 132.333 255.192 131.947C255.355 131.561 261.022 135.161 261.634 134.969C262.246 134.777 256.664 130.198 256.721 129.675C256.777 129.151 261.688 131.033 261.899 130.63C262.11 130.227 262.975 131.151 253.148 123.759Z" fill="#FFC0BB"/>
<path d="M213.928 97.8253C213.928 97.8253 227.076 90.0669 230.142 82.2274C230.142 82.2274 211.523 63.851 207.113 62.6275C202.209 69.9756 213.928 97.8253 213.928 97.8253Z" fill="#87C5E8"/>
<path d="M207.098 62.6275C204.361 61.8659 191.051 62.6275 191.051 62.6275C191.051 62.6275 185.172 72.3857 171.451 64.0155C171.451 64.0155 161.981 62.6717 157.242 65.0498C157.242 65.0498 151.034 69.7324 152.505 100.601C152.505 100.601 154.793 132.126 155.453 135.391C155.453 135.391 195.959 141.108 222.418 133.426L213.927 97.8253C213.927 97.8253 202.209 69.9756 207.098 62.6275Z" fill="#AAD9F9"/>
<path d="M137.009 88.4774C135.984 89.7893 135.365 90.5878 135.365 90.5878C135.365 90.5878 142.224 101.041 152.515 100.714C152.469 99.7318 152.429 98.7736 152.397 97.8401C145.789 96.6215 140.392 92.0888 137.009 88.4774Z" fill="#DCEAF4"/>
<path d="M227.135 79.3112C223.958 85.6677 218.769 90.795 212.375 93.8945C213.289 96.3095 213.928 97.8253 213.928 97.8253C213.928 97.8253 227.076 90.0669 230.142 82.2274C230.137 82.2274 228.962 81.0727 227.135 79.3112Z" fill="#DCEAF4"/>
<g style="mix-blend-mode:multiply" opacity="0.3">
<path d="M161.713 63.8559C160.069 64.0598 158.497 64.4258 157.252 65.0498C157.252 65.0498 151.044 69.7324 152.515 100.601C152.515 100.601 154.802 132.126 155.463 135.392C155.463 135.392 195.969 141.108 222.427 133.426L220.216 124.152C158.239 123.432 160.691 73.479 161.713 63.8559Z" fill="#DAEEF7"/>
</g>
<path d="M167.919 35.0603C167.936 35.3853 167.857 35.7081 167.691 35.9881C167.525 36.268 167.28 36.4925 166.987 36.6331C166.693 36.7737 166.364 36.8242 166.042 36.7781C165.72 36.732 165.419 36.5915 165.177 36.3742C164.934 36.157 164.762 35.8728 164.681 35.5575C164.6 35.2423 164.615 34.9101 164.722 34.6031C164.83 34.296 165.027 34.0278 165.287 33.8324C165.547 33.637 165.86 33.5231 166.185 33.5052C166.401 33.4932 166.617 33.524 166.821 33.5957C167.025 33.6674 167.213 33.7787 167.374 33.9231C167.535 34.0676 167.666 34.2423 167.76 34.4375C167.853 34.6326 167.907 34.8442 167.919 35.0603Z" fill="#333333"/>
<path d="M183.727 35.2126C183.745 35.5381 183.666 35.8617 183.501 36.1424C183.335 36.423 183.089 36.6482 182.795 36.7894C182.501 36.9305 182.172 36.9814 181.85 36.9355C181.527 36.8897 181.225 36.7491 180.982 36.5316C180.739 36.3141 180.566 36.0295 180.485 35.7137C180.404 35.398 180.418 35.0652 180.526 34.7576C180.634 34.4499 180.831 34.1812 181.092 33.9854C181.352 33.7896 181.665 33.6755 181.991 33.6575C182.207 33.6455 182.423 33.6763 182.627 33.748C182.832 33.8197 183.02 33.9309 183.181 34.0753C183.342 34.2197 183.474 34.3945 183.567 34.5896C183.661 34.7847 183.716 34.9964 183.727 35.2126Z" fill="#333333"/>
<path d="M182.951 45.4769C182.425 47.8427 179.721 49.7025 176.407 49.8032C173.092 49.904 170.265 48.2137 169.609 45.8847L182.951 45.4769Z" fill="white"/>
<path d="M138.063 224.245V215.179L127.695 212.307L125.389 213.322L124.996 224.245L128.261 233.765L138.063 224.245Z" fill="#FFC0BB"/>
<path d="M124.853 226.883C124.979 226.783 125.066 226.643 125.101 226.486C125.136 226.329 125.116 226.165 125.045 226.021C124.401 224.576 122.375 221.049 118.166 221.729C117.921 221.768 117.758 222.083 117.795 222.412C117.832 222.729 118.041 222.938 118.287 222.903C122.05 222.306 123.772 225.417 124.293 226.628C124.418 226.898 124.652 227.004 124.853 226.883Z" fill="#333333"/>
<path d="M121.36 228.203C121.485 228.104 121.572 227.965 121.608 227.81C121.645 227.655 121.627 227.492 121.559 227.348C120.913 225.901 118.886 222.373 114.68 223.053C114.434 223.093 114.27 223.409 114.309 223.736C114.346 224.053 114.555 224.264 114.8 224.228C118.564 223.631 120.286 226.738 120.807 227.952C120.82 228.009 120.846 228.063 120.883 228.108C120.92 228.154 120.968 228.19 121.021 228.215C121.075 228.239 121.133 228.25 121.192 228.248C121.251 228.246 121.308 228.231 121.36 228.203Z" fill="#333333"/>
<g style="mix-blend-mode:multiply" opacity="0.3">
<path d="M131.036 234.46C133.446 228.19 136.95 226.8 139.36 226.689C139.621 226.679 139.876 226.768 140.075 226.938C140.273 227.109 140.399 227.348 140.428 227.608L141.077 233.48C141.219 234.779 140.473 235.936 139.507 235.936L131.999 235.865C131.832 235.864 131.667 235.823 131.519 235.744C131.372 235.666 131.245 235.553 131.15 235.415C131.056 235.276 130.996 235.117 130.976 234.951C130.956 234.785 130.977 234.616 131.036 234.46Z" fill="#E87B50"/>
</g>
<path d="M104.507 83.3158C103.996 82.3724 72.0446 81.8024 67.8683 87.3473C63.6919 92.8922 78.2428 104.658 86.4506 109.171C94.6583 113.684 104.507 83.3158 104.507 83.3158Z" fill="#333333"/>
<path d="M93.6925 90.0031C93.3609 90.9072 86.4257 105.726 86.4257 105.726C86.4257 105.726 67.3127 94.6955 70.5064 90.6934C73.7001 86.6914 93.6925 90.0031 93.6925 90.0031Z" fill="#F0B5D5"/>
<path d="M49.4085 149.889C49.4085 149.889 28.797 141.032 13.6147 157.669C-1.56759 174.306 5.20302 189.229 5.20302 189.229L0.407584 186.177C0.407584 186.177 -5.80536 212.526 30.2538 217.54L26.3084 220.488C26.3084 220.488 45.2518 231.917 57.4148 223.208C69.5779 214.499 65.7872 208.615 62.5346 207.551C59.2819 206.487 34.9239 200.672 34.9239 200.672L28.2909 187.897L29.5659 165.863C29.5659 165.863 37.4101 157.416 37.673 156.65C37.9358 155.883 49.4085 149.889 49.4085 149.889Z" fill="#DAEEF7"/>
<path d="M49.4624 200.893C49.4624 200.893 14.3172 180.136 49.4084 149.889C49.4084 149.889 18.9898 146.412 13.6907 185.286L9.16797 181.63C9.16797 181.63 3.84435 209.573 39.8445 214.762C75.8447 219.95 49.4624 200.893 49.4624 200.893Z" fill="#333333"/>
<path d="M139.323 85.2492C139.323 85.2492 142.947 73.0269 129.221 59.8931C115.496 46.7593 115.319 53.5572 115.319 53.5572C115.319 53.5572 109.583 68.3517 113.658 77.7119C117.734 87.0721 139.323 85.2492 139.323 85.2492Z" fill="#333333"/>
<path d="M134.643 79.3678C134.643 79.3678 127.548 59.4533 120.301 56.8738C120.301 56.8738 118.805 56.4217 119.023 61.2517C119.242 66.0817 120.006 77.255 120.006 77.255L134.643 79.3678Z" fill="#F0B5D5"/>
<path d="M47.249 231.979C48.1014 231.6 46.3965 224.505 46.3965 223.803C46.3965 223.1 49.4157 208.202 50.0176 208.554C50.6195 208.905 76.7954 197.935 80.6156 197.331C84.4357 196.727 107.791 179.011 107.791 179.011C107.791 179.011 106.583 159.689 106.583 158.883C106.583 158.077 90.9091 119.152 90.9091 119.152C90.9091 119.152 97.9254 94.2778 100.343 92.4303C102.76 90.5828 115.238 79.5815 116.245 79.5815C117.252 79.5815 135.569 80.3873 136.584 80.9917C137.598 81.596 149.056 92.8676 150.407 94.3785C151.673 95.7911 159.433 101.827 160.426 102.599L160.504 102.682C161.713 121.599 143.394 136.902 143.394 136.902C148.427 167.098 137.456 186.423 137.456 186.423C136.964 200.918 142.49 221.751 142.49 221.751C162.315 219.837 156.075 238.948 156.075 238.948H112.697C110.486 236.231 103.438 213.786 103.438 213.786C100.217 218.115 95.0854 221.135 95.0854 221.135L98.5076 221.235C108.976 222.444 105.956 238.948 105.956 238.948H50.7989C50.7989 238.948 49.1529 236.983 47.2244 231.988L47.249 231.979Z" fill="#DAEEF7"/>
<g style="mix-blend-mode:multiply" opacity="0.3">
<path d="M107.111 179.52L107.784 179.011C107.784 179.011 106.575 159.689 106.575 158.883C106.575 158.188 94.889 129.06 91.7002 121.123C154.463 128.572 160.016 105.849 160.487 102.655L160.5 102.67C161.708 121.587 143.389 136.89 143.389 136.89C148.422 167.086 137.451 186.411 137.451 186.411C132.651 200.061 121.328 209.18 121.328 209.18L120.542 208.657L107.479 182.782C107.479 182.782 107.357 181.569 107.111 179.52Z" fill="#DAEEF7"/>
</g>
<path d="M74.9825 156.416C87.7302 147.054 92.0024 134.935 92.0908 134.679C82.1167 128.893 77.2844 119.553 77.2009 119.388C80.8441 114.77 81.4264 113.551 87.261 101.476C93.0956 89.4011 103.88 78.9599 111.619 77.3213C128.727 73.6976 138.915 79.7166 144.43 85.5735L160.527 102.677C160.527 102.677 160.527 102.677 160.527 102.69C160.364 102.825 156.468 105.92 150.066 97.4494C144.907 90.6295 139.193 84.6743 132.223 82.2176C131.722 82.036 131.18 81.9983 130.658 82.1087C130.137 82.2191 129.657 82.4732 129.272 82.8423C128.887 83.2113 128.614 83.6807 128.482 84.1972C128.35 84.7137 128.365 85.2568 128.526 85.7651C129.142 87.674 129.543 89.9539 129.13 92.192C129.13 92.192 126.674 87.6101 122.411 84.4852C121.585 83.8861 120.625 83.4995 119.614 83.3594C118.604 83.2193 117.574 83.33 116.617 83.6817C115.659 84.0335 114.802 84.6155 114.123 85.3764C113.443 86.1373 112.961 87.0538 112.72 88.045C111.737 92.0102 110.341 96.85 108.801 99.5598C105.883 104.692 97.8296 111.234 97.7289 115.563C97.6282 119.892 104.775 128.338 112.324 134.48C115.485 137.076 118.011 140.36 119.709 144.081C121.738 148.651 121.812 153.028 118.765 154.81C118.748 154.81 115.432 156.114 111.216 154.81C107 153.505 105.074 157.124 108.298 160.445C111.521 163.767 117.404 169.403 118.311 178.311C119.203 187.074 120.387 207.821 120.424 208.49H120.411C119.92 208.067 105.573 195.528 102.308 196.12C98.9867 196.724 99.8932 208.047 86.0032 206.684C72.1131 205.32 47.7453 207.438 47.249 231.971C45.4237 227.242 43.3454 219.803 42.1711 208.748C39.7562 186.008 62.0997 165.877 74.9825 156.416Z" fill="#333333"/>
<path d="M139.694 231.625C139.734 229.544 139.304 227.482 138.434 225.591C137.56 223.808 136.197 222.311 134.503 221.275C133.248 220.481 131.757 220.164 130.29 220.081C128.075 219.998 125.863 220.299 123.75 220.97C123.354 218.264 122.953 215.562 122.547 212.863C122.393 211.859 122.239 210.855 122.087 209.851C122.087 209.792 121.964 209.359 122.011 209.322L122.972 208.401C127.394 204.161 131.027 199.093 134.059 193.786C135.41 191.418 136.402 188.924 137.449 186.416C136.547 188.3 135.751 190.241 134.722 192.066C133.638 193.985 132.427 195.845 131.179 197.658C129.346 200.323 127.342 202.867 125.18 205.274C124.404 206.119 123.605 206.952 122.773 207.743L121.977 208.495L121.52 208.927C121.389 209.05 121.345 209.077 121.362 209.261C121.416 209.89 121.544 210.524 121.635 211.15L122.099 214.344C122.463 216.84 122.836 219.334 123.222 221.827C125.051 221.196 126.956 220.815 128.887 220.695C130.457 220.619 132.14 220.744 133.577 221.432C135.217 222.22 136.604 223.453 137.579 224.989C138.699 226.773 139.215 228.898 139.363 230.984C139.512 233.658 139.292 236.341 138.709 238.956C139.359 236.569 139.69 234.106 139.692 231.632C139.706 230.333 139.714 234.212 139.694 231.625Z" fill="#333333"/>
<path d="M127.416 223.81C128.776 224.267 129.923 225.204 130.644 226.446C131.131 227.292 131.518 228.192 131.796 229.129C131.921 229.539 131.987 229.969 132.076 230.389C132.538 232.6 132.479 234.993 132.336 237.236C132.297 237.826 132.263 238.415 132.248 239.007C132.899 236.256 133.248 233.357 132.803 230.544C132.556 228.931 131.944 227.396 131.015 226.055C130.209 224.903 128.833 223.938 127.416 223.81C128.113 224.014 128.148 223.866 127.416 223.81Z" fill="#333333"/>
<path d="M121.679 224.404C122.944 224.37 123.745 225.456 124.251 226.458C124.959 227.849 125.104 229.517 125.234 231.045C125.465 233.649 125.271 236.258 125.295 238.865C125.295 238.912 125.295 238.956 125.295 239C125.802 236.379 126.106 233.718 125.91 231.05C125.813 229.469 125.443 227.916 124.816 226.461C124.372 225.456 123.342 224.451 122.22 224.365C122.036 224.35 121.851 224.363 121.672 224.404C122.023 224.397 122.365 224.242 121.679 224.404Z" fill="#333333"/>
<path d="M97.4663 224.355C98.734 224.321 99.5299 225.407 100.038 226.409C100.721 227.748 100.884 229.379 101.021 230.851C101.245 233.369 101.105 235.892 101.095 238.415C101.095 238.595 101.095 238.772 101.095 238.948C101.601 236.327 101.906 233.669 101.709 231.001C101.594 229.433 101.365 227.65 100.537 226.279C99.9205 225.255 98.9329 224.102 97.5891 224.333L97.481 224.355C97.8102 224.346 98.1517 224.191 97.4663 224.355Z" fill="#333333"/>
<path d="M88.7622 224.355C89.5115 224.336 90.1011 224.756 90.6023 225.257C90.7681 225.437 90.9155 225.634 91.042 225.844C91.1011 225.948 91.1332 226.064 91.1354 226.183C91.1354 226.259 91.2435 226.348 91.2877 226.407C91.6906 226.957 91.8306 227.746 91.9731 228.399C92.1405 229.239 92.2554 230.088 92.317 230.942C92.5455 233.519 92.3686 236.101 92.3834 238.683C92.3834 238.772 92.3834 238.86 92.3834 238.948C92.887 236.327 93.1941 233.669 92.9975 231.001C92.8821 229.433 92.6511 227.65 91.8257 226.279C91.2066 225.255 90.219 224.102 88.8777 224.333L88.7696 224.355C89.1061 224.346 89.4452 224.191 88.7622 224.355Z" fill="#333333"/>
<path d="M148.26 224.404C149.525 224.37 150.324 225.456 150.832 226.458C151.54 227.849 151.685 229.517 151.815 231.045C152.046 233.649 151.852 236.258 151.876 238.865C151.876 238.912 151.876 238.956 151.876 239C152.368 236.379 152.687 233.718 152.491 231.05C152.375 229.485 152.147 227.699 151.319 226.328C150.7 225.306 149.715 224.151 148.371 224.382L148.263 224.404C148.604 224.397 148.943 224.242 148.26 224.404Z" fill="#333333"/>
<path d="M141.278 224.404C142.543 224.37 143.344 225.456 143.853 226.458C144.558 227.849 144.703 229.517 144.836 231.045C145.066 233.649 144.872 236.258 144.897 238.865C144.897 238.912 144.897 238.956 144.897 239C145.403 236.379 145.708 233.718 145.511 231.05C145.396 229.485 145.167 227.699 144.339 226.328C143.72 225.306 142.735 224.151 141.391 224.382L141.283 224.404C141.622 224.397 141.964 224.242 141.278 224.404Z" fill="#333333"/>
<path d="M66.8731 188.072C70.9774 186.295 75.2719 184.994 79.6724 184.195C83.9372 183.414 88.5386 183.114 92.7419 184.384C94.6452 184.943 96.4108 185.894 97.9255 187.175C99.4691 188.537 100.691 190.226 101.502 192.118C103.296 196.162 103.608 200.677 103.48 205.045C103.448 206.188 103.367 207.323 103.266 208.46C103.089 210.475 102.65 212.361 101.672 214.15C99.6255 217.897 95.7342 220.169 91.9656 221.901C84.8879 225.156 76.9799 226.458 69.2536 227.023C68.0924 227.107 66.9296 227.177 65.7651 227.232C73.5381 227.544 81.5444 226.886 88.9734 224.466C91.0074 223.817 92.9864 223.007 94.8915 222.044C96.7586 221.085 98.6355 219.965 100.2 218.555C101.691 217.212 102.882 215.571 103.696 213.737C104.477 211.978 104.78 210.16 104.961 208.259C105.3 204.704 105.325 201.09 104.758 197.557C104.084 193.349 102.468 189.148 99.1907 186.281C95.997 183.487 91.8084 182.423 87.6443 182.379C83.2223 182.333 78.8003 183.345 74.6411 184.757C71.9687 185.653 69.3727 186.762 66.878 188.074C67.8582 187.642 68.7868 187.062 66.8731 188.072Z" fill="#333333"/>
<path d="M139.947 101.122C140.952 101.314 141.492 102.338 141.143 103.36C140.433 105.439 138.915 108.94 136.611 109.502C133.299 110.308 127.909 105.458 128.239 103.429C128.514 101.756 136.247 100.425 139.947 101.122Z" fill="#333333"/>
<path d="M118.841 142.295C118.841 142.295 129.732 153.547 120.473 208.553C120.473 208.553 98.0137 171.162 97.4659 169.15C96.918 167.138 97.9277 150.026 98.3282 149.422C98.7286 148.818 118.841 142.295 118.841 142.295Z" fill="#333333"/>
<path d="M140.652 114.558L139.846 116.231L138.964 114.445L140.652 114.558Z" fill="white"/>
<path d="M132.766 114.954L133.228 114.986L132.425 116.659L131.875 115.546L132.766 114.954Z" fill="white"/>
<path d="M125.983 114.976C126.753 115.335 127.563 115.601 128.396 115.767C129.219 115.933 130.066 115.933 130.889 115.767C131.702 115.583 132.459 115.21 133.1 114.679C133.738 114.142 134.284 113.504 134.717 112.792C135.156 112.076 135.519 111.316 135.798 110.524C136.083 109.738 136.299 108.928 136.444 108.104L137.115 108.215C136.936 109.076 136.681 109.92 136.353 110.736C136.06 111.482 135.695 112.199 135.265 112.875C136.067 113.374 136.924 113.777 137.82 114.077C138.721 114.347 139.692 114.465 140.588 114.187C141.494 113.875 142.242 113.222 142.674 112.367C143.136 111.507 143.423 110.564 143.519 109.593C143.478 110.581 143.242 111.55 142.824 112.445C142.411 113.383 141.649 114.123 140.699 114.507C140.092 114.727 139.445 114.811 138.802 114.752C138.766 115.156 138.691 115.555 138.579 115.944C138.452 116.391 138.267 116.821 138.031 117.221C137.56 118.038 136.803 118.651 135.906 118.941C135.471 119.081 135.016 119.149 134.56 119.145C134.111 119.147 133.664 119.106 133.223 119.022C132.356 118.841 131.511 118.567 130.703 118.204C131.526 118.512 132.38 118.729 133.25 118.853C133.681 118.909 134.116 118.921 134.55 118.89C134.976 118.867 135.395 118.776 135.793 118.622C136.575 118.315 137.214 117.727 137.586 116.973C137.939 116.255 138.125 115.466 138.132 114.666C137.982 114.639 137.832 114.61 137.685 114.575C136.729 114.317 135.806 113.948 134.935 113.477L134.867 113.443C134.439 114.034 133.929 114.562 133.353 115.01C132.649 115.556 131.826 115.929 130.951 116.099C130.084 116.247 129.196 116.222 128.339 116.025C127.494 115.828 126.676 115.53 125.902 115.138C124.383 114.328 122.963 113.344 121.672 112.205C122.996 113.293 124.443 114.223 125.983 114.976Z" fill="#333333"/>
<path d="M120.721 98.5501C120.721 99.0214 120.861 99.4821 121.123 99.874C121.385 100.266 121.757 100.571 122.192 100.752C122.628 100.932 123.107 100.979 123.569 100.887C124.031 100.795 124.456 100.568 124.789 100.235C125.122 99.9019 125.349 99.4772 125.441 99.015C125.533 98.5527 125.486 98.0736 125.306 97.6381C125.125 97.2027 124.82 96.8305 124.428 96.5686C124.036 96.3068 123.575 96.167 123.104 96.167C122.472 96.167 121.866 96.4181 121.419 96.865C120.972 97.3119 120.721 97.9181 120.721 98.5501Z" fill="#352D38"/>
<path d="M136.591 96.7493C136.591 97.2207 136.731 97.6815 136.993 98.0735C137.255 98.4654 137.627 98.7709 138.063 98.9512C138.499 99.1315 138.978 99.1785 139.44 99.0864C139.902 98.9942 140.327 98.767 140.66 98.4335C140.993 98.1 141.22 97.6751 141.312 97.2127C141.403 96.7502 141.356 96.271 141.175 95.8356C140.994 95.4002 140.689 95.0282 140.296 94.7666C139.904 94.5051 139.443 94.3657 138.972 94.3662C138.34 94.3669 137.735 94.6182 137.288 95.0651C136.842 95.5119 136.591 96.1177 136.591 96.7493Z" fill="#352D38"/>
<path d="M137.389 95.7617C137.048 96.253 137.038 96.8328 137.365 97.0588C137.692 97.2849 138.23 97.0588 138.569 96.5675C138.908 96.0761 138.92 95.4939 138.593 95.2703C138.267 95.0468 137.729 95.2679 137.389 95.7617Z" fill="white"/>
<path d="M122.637 98.1816C122.913 97.6509 122.849 97.0736 122.497 96.8918C122.146 96.71 121.638 96.995 121.365 97.5256C121.092 98.0563 121.154 98.6336 121.505 98.8154C121.856 98.9972 122.365 98.7147 122.637 98.1816Z" fill="white"/>
<path d="M137.82 103.051C138.883 102.972 139.721 102.591 139.694 102.196C139.667 101.8 138.778 101.542 137.714 101.621C136.65 101.7 135.813 102.083 135.842 102.476C135.872 102.869 136.763 103.129 137.82 103.051Z" fill="white"/>
</g>
<defs>
<clipPath id="clip0_562_5446">
<rect width="262" height="239" fill="white"/>
</clipPath>
</defs>
</svg>
