<svg width="211" height="314" viewBox="0 0 211 314" fill="none" xmlns="http://www.w3.org/2000/svg">
<g clip-path="url(#clip0_562_5326)">
<path d="M152.555 292.033L152.22 303.885L144.355 309.589C144.355 309.589 141.78 303.898 141.855 303.203C141.931 302.509 141.44 288.918 141.44 288.918L152.555 292.033Z" fill="#FFC0BB"/>
<path d="M130.878 314L153.134 313.985C153.464 313.985 153.78 313.854 154.014 313.62C154.247 313.387 154.379 313.07 154.379 312.74V312.74C154.378 312.409 154.247 312.092 154.013 311.859C153.779 311.625 153.462 311.494 153.132 311.494L130.876 311.508C130.546 311.508 130.229 311.64 129.996 311.873C129.762 312.107 129.631 312.424 129.631 312.755V312.755C129.632 313.085 129.763 313.402 129.997 313.635C130.231 313.869 130.548 314 130.878 314Z" fill="#444444"/>
<path d="M153.241 303.925L154.064 310.853C154.166 311.708 153.689 312.485 153.06 312.485L131.253 312.498C130.686 312.498 130.127 312.145 129.829 311.481C129.531 310.816 129.461 309.772 130.436 308.391C132.332 305.712 138.447 304.991 141.666 302.786C141.852 302.66 142.072 302.592 142.297 302.592H152.096C152.665 302.586 153.149 303.153 153.241 303.925Z" fill="#E6F7FF"/>
<path d="M143.484 306.615C143.565 306.548 143.621 306.456 143.643 306.354C143.666 306.252 143.653 306.145 143.608 306.051C143.179 305.102 141.839 302.792 139.116 303.267C138.959 303.295 138.852 303.505 138.879 303.721C138.905 303.928 139.046 304.065 139.198 304.039C141.64 303.622 142.778 305.657 143.126 306.452C143.201 306.63 143.353 306.695 143.484 306.615Z" fill="white"/>
<path d="M141.22 307.509C141.3 307.442 141.357 307.35 141.379 307.248C141.402 307.146 141.389 307.039 141.343 306.945C140.915 305.995 139.575 303.684 136.852 304.161C136.695 304.189 136.588 304.397 136.614 304.613C136.641 304.822 136.782 304.959 136.934 304.932C139.375 304.514 140.513 306.551 140.861 307.346C140.937 307.522 141.089 307.589 141.22 307.509Z" fill="white"/>
<path d="M139.114 308.342C139.195 308.275 139.251 308.183 139.273 308.08C139.295 307.978 139.282 307.871 139.236 307.776C138.808 306.829 137.469 304.517 134.745 304.994C134.588 305.021 134.482 305.23 134.509 305.446C134.536 305.656 134.676 305.793 134.83 305.766C137.27 305.348 138.41 307.385 138.756 308.18C138.83 308.356 138.982 308.422 139.114 308.342Z" fill="white"/>
<path d="M163.453 314L185.709 313.985C185.873 313.985 186.035 313.953 186.186 313.891C186.337 313.828 186.474 313.736 186.589 313.621C186.705 313.505 186.796 313.367 186.859 313.216C186.921 313.065 186.953 312.903 186.952 312.74V312.74C186.952 312.409 186.821 312.092 186.588 311.859C186.354 311.625 186.038 311.494 185.707 311.494L163.452 311.508C163.288 311.508 163.126 311.54 162.975 311.603C162.824 311.665 162.687 311.757 162.571 311.873C162.456 311.989 162.364 312.126 162.302 312.278C162.24 312.429 162.208 312.591 162.209 312.755C162.209 313.085 162.34 313.402 162.573 313.635C162.807 313.869 163.123 314 163.453 314Z" fill="#444444"/>
<path d="M185.816 303.925L186.641 310.853C186.741 311.708 186.264 312.485 185.637 312.485L163.83 312.498C163.264 312.498 162.703 312.145 162.406 311.481C162.108 310.816 162.037 309.772 163.013 308.391C164.909 305.712 171.023 304.991 174.245 302.786C174.43 302.66 174.649 302.592 174.874 302.592H184.673C185.24 302.586 185.724 303.153 185.816 303.925Z" fill="#E6F7FF"/>
<path d="M176.059 306.615C176.14 306.549 176.197 306.457 176.219 306.354C176.242 306.252 176.229 306.145 176.182 306.051C175.754 305.102 174.414 302.792 171.691 303.267C171.534 303.295 171.429 303.505 171.455 303.721C171.482 303.928 171.623 304.065 171.777 304.039C174.216 303.622 175.356 305.657 175.702 306.452C175.776 306.63 175.928 306.695 176.059 306.615Z" fill="white"/>
<path d="M173.794 307.509C173.876 307.442 173.932 307.351 173.954 307.248C173.977 307.146 173.964 307.039 173.918 306.945C173.49 305.995 172.15 303.684 169.427 304.161C169.27 304.189 169.163 304.397 169.191 304.613C169.218 304.822 169.358 304.959 169.511 304.932C171.952 304.514 173.09 306.551 173.438 307.346C173.512 307.522 173.664 307.589 173.794 307.509Z" fill="white"/>
<path d="M171.686 308.342C171.767 308.275 171.823 308.183 171.846 308.081C171.868 307.978 171.856 307.871 171.81 307.776C171.382 306.829 170.041 304.517 167.319 304.994C167.162 305.021 167.054 305.23 167.081 305.446C167.106 305.656 167.249 305.793 167.401 305.766C169.841 305.348 170.98 307.385 171.327 308.18C171.405 308.356 171.559 308.422 171.686 308.342Z" fill="white"/>
<path d="M86.2516 94.0414C86.25 94.1109 86.2296 94.1787 86.1925 94.2375C86.1554 94.2963 86.1031 94.3439 86.041 94.3752C85.9789 94.4065 85.9095 94.4203 85.8402 94.4152C85.7709 94.41 85.7043 94.3861 85.6475 94.346C83.7131 92.9785 77.5987 88.7167 77.1385 89.1302C76.593 89.624 81.9645 93.566 81.7703 94.2205C81.5762 94.875 76.4323 90.8961 75.9337 91.5171C75.435 92.1382 80.2442 95.6082 80.1254 95.9429C80.0066 96.2777 75.0435 93.4488 74.5314 93.6363C74.0194 93.8238 78.9507 97.4863 78.9223 97.9416C78.8938 98.3969 74.6502 96.9925 74.4879 97.344C74.3256 97.6955 74.1532 97.9014 82.8128 103.79L86.3269 105.966L90.1455 106.192L92.1 102.023C92.1 102.023 87.7492 89.254 87.2138 89.1134C86.6934 88.9728 86.4072 89.3277 86.2516 94.0414Z" fill="#FFC0BB"/>
<path d="M142.816 86.5022C142.816 86.5022 115.294 119.776 114.069 119.98C112.844 120.184 92.2436 98.2864 92.2436 98.2864C92.2436 98.2864 85.5385 104.451 84.4224 106.519C84.4224 106.519 106.937 140.243 112.382 141.953C117.828 143.664 151.726 108.41 151.726 108.41L142.816 86.5022Z" fill="#04AF9F"/>
<path d="M131.542 91.6141C131.44 91.8334 133.216 94.6523 132.918 94.6456C132.62 94.6389 130.669 92.2402 130.543 92.3858C130.418 92.5314 132.168 95.2314 131.795 95.4407C131.422 95.6499 129.601 92.6402 129.375 92.9298C129.15 93.2194 131.091 96.2642 130.714 96.4048C130.401 96.5237 128.145 93.1742 127.436 92.1046C127.415 92.0737 127.386 92.049 127.352 92.0331C127.318 92.0172 127.28 92.0107 127.243 92.0143C127.206 92.0179 127.17 92.0315 127.14 92.0535C127.11 92.0756 127.086 92.1054 127.071 92.1397C126.067 94.4832 125.855 94.6104 125.624 94.4414C125.468 94.3292 125.533 91.3497 125.602 89.1887C119.411 76.8922 105.888 65.5984 105.888 65.5984C105.888 65.5984 104.354 50.3224 111.352 55.555C117.486 60.1382 126.845 80.476 129.061 85.4241L130.033 87.1264C130.384 87.5499 130.714 87.8964 130.714 87.8964C133.934 92.5632 133.81 92.6352 133.659 92.7809C133.509 92.9265 131.644 91.3949 131.542 91.6141Z" fill="#FCB9B6"/>
<path d="M66 303.503V296.555L73.9434 294.353L75.7122 295.13L76.0134 303.503L73.5117 310.799L66 303.503Z" fill="#FFC0BB"/>
<path d="M91.4022 312.887L62.9183 313.16C62.8722 313.16 62.8265 313.151 62.7838 313.134C62.7411 313.117 62.7022 313.091 62.6694 313.059C62.6366 313.027 62.6105 312.988 62.5926 312.946C62.5748 312.903 62.5654 312.858 62.5652 312.811L62.5435 310.615C62.543 310.569 62.5517 310.523 62.5689 310.481C62.5862 310.438 62.6117 310.399 62.644 310.366C62.6763 310.333 62.7148 310.307 62.7573 310.288C62.7998 310.27 62.8454 310.261 62.8915 310.26L91.3804 309.989C91.4733 309.988 91.5628 310.024 91.6293 310.089C91.6958 310.154 91.7338 310.243 91.7352 310.336L91.7552 312.534C91.7557 312.58 91.7468 312.626 91.7293 312.669C91.7117 312.712 91.6857 312.751 91.6528 312.784C91.6199 312.817 91.5808 312.843 91.5378 312.861C91.4948 312.878 91.4486 312.887 91.4022 312.887Z" fill="#3A2645"/>
<path d="M63.7867 301.447L62.8965 309.517C62.7861 310.512 63.3583 311.409 64.098 311.402L89.8208 311.156C90.4901 311.156 91.1461 310.733 91.4941 309.956C91.8422 309.179 91.9075 307.964 90.7411 306.369C88.4503 303.237 81.1043 302.495 77.3108 299.906C77.176 299.813 77.0159 299.764 76.8523 299.765L65.1237 299.876C64.4494 299.882 63.8855 300.549 63.7867 301.447Z" fill="#FF5B7E"/>
<path d="M4.26709 303.503V296.555L12.2105 294.353L13.9792 295.13L14.2804 303.503L11.7788 310.799L4.26709 303.503Z" fill="#FFC0BB"/>
<path d="M30.5068 313.463L2.0179 313.734C1.97183 313.734 1.92609 313.726 1.8833 313.709C1.8405 313.692 1.8015 313.667 1.76854 313.634C1.73557 313.602 1.70929 313.564 1.69121 313.521C1.67312 313.479 1.66359 313.433 1.66315 313.387L1.64307 311.189C1.64262 311.097 1.67876 311.008 1.74362 310.942C1.80849 310.875 1.89684 310.838 1.98946 310.836L30.48 310.565C30.526 310.564 30.5716 310.573 30.6143 310.59C30.657 310.607 30.6959 310.632 30.7288 310.665C30.7616 310.697 30.7877 310.735 30.8056 310.778C30.8235 310.82 30.8329 310.866 30.8331 310.912L30.8548 313.109C30.8553 313.202 30.8189 313.292 30.7537 313.358C30.6884 313.424 30.5997 313.462 30.5068 313.463V313.463Z" fill="#3A2645"/>
<path d="M2.89146 302.023L2.00793 310.091C1.89916 311.096 2.47145 311.985 3.21107 311.976L28.9339 311.732C29.6032 311.732 30.2592 311.308 30.6072 310.532C30.9553 309.755 31.0206 308.54 29.8542 306.944C27.5617 303.813 20.2174 303.069 16.4239 300.482C16.2886 300.388 16.128 300.339 15.9637 300.339L4.23684 300.451C3.55578 300.465 2.99186 301.123 2.89146 302.023Z" fill="#FF5B7E"/>
<path d="M14.4326 305.035C14.3366 304.959 14.2692 304.853 14.2415 304.734C14.2138 304.615 14.2275 304.49 14.2803 304.38C14.7823 303.271 16.3268 300.567 19.5447 301.088C19.7304 301.118 19.8592 301.361 19.8291 301.612V301.62C19.8007 301.863 19.635 302.023 19.4543 301.995C16.5711 301.538 15.2525 303.92 14.8526 304.851C14.8413 304.893 14.8206 304.933 14.7919 304.966C14.7632 305 14.7274 305.026 14.687 305.044C14.6466 305.062 14.6028 305.07 14.5587 305.069C14.5147 305.067 14.4715 305.055 14.4326 305.035Z" fill="#333333"/>
<path d="M76.205 305.035C76.109 304.959 76.0417 304.853 76.014 304.734C75.9863 304.615 76 304.49 76.0527 304.38C76.5548 303.271 78.0993 300.567 81.3171 301.088C81.5029 301.118 81.6317 301.361 81.6016 301.612V301.62C81.5731 301.863 81.4075 302.023 81.2268 301.995C78.3436 301.538 77.025 303.92 76.625 304.851C76.6138 304.893 76.593 304.933 76.5644 304.966C76.5357 305 76.4998 305.026 76.4595 305.044C76.4191 305.062 76.3752 305.07 76.3312 305.069C76.2871 305.067 76.244 305.055 76.205 305.035Z" fill="#333333"/>
<path d="M17.1135 306.047C17.0179 305.971 16.9509 305.865 16.9232 305.746C16.8956 305.627 16.909 305.502 16.9613 305.391C17.4633 304.283 19.0095 301.578 22.2273 302.1C22.4131 302.13 22.5402 302.371 22.5118 302.624C22.4833 302.869 22.3177 303.028 22.1386 303.001C19.2554 302.542 17.9352 304.926 17.5352 305.847C17.4482 306.061 17.2692 306.139 17.1135 306.047Z" fill="#333333"/>
<path d="M78.886 306.047C78.7904 305.971 78.7233 305.865 78.6957 305.746C78.668 305.627 78.6815 305.502 78.7337 305.391C79.2357 304.283 80.7819 301.578 83.9998 302.1C84.1855 302.13 84.3127 302.371 84.2842 302.624C84.2558 302.869 84.0901 303.028 83.9111 303.001C81.0279 302.542 79.7076 304.926 79.3077 305.847C79.2207 306.061 79.0416 306.139 78.886 306.047Z" fill="#333333"/>
<path d="M19.6084 306.993C19.5125 306.917 19.4451 306.811 19.4172 306.692C19.3892 306.572 19.4024 306.447 19.4545 306.337C19.9565 305.229 21.5027 302.525 24.7205 303.046C24.9063 303.076 25.0334 303.319 25.005 303.57C24.9782 303.812 24.8125 303.973 24.6318 303.945C21.7486 303.488 20.4284 305.87 20.0301 306.799C19.9414 307.005 19.764 307.083 19.6084 306.993Z" fill="#333333"/>
<path d="M81.3809 306.993C81.285 306.917 81.2176 306.811 81.1896 306.692C81.1617 306.572 81.1748 306.447 81.2269 306.337C81.7289 305.229 83.2751 302.525 86.493 303.046C86.6787 303.076 86.8059 303.319 86.7774 303.57C86.7507 303.812 86.585 303.973 86.4043 303.945C83.5211 303.488 82.2008 305.87 81.8026 306.799C81.7139 307.005 81.5365 307.083 81.3809 306.993Z" fill="#333333"/>
<g style="mix-blend-mode:multiply" opacity="0.3">
<path d="M9.69364 310.843C7.85295 306.036 5.16387 304.971 3.31649 304.886C3.11615 304.877 2.92013 304.945 2.76817 305.076C2.61622 305.207 2.51971 305.391 2.49822 305.59L1.99621 310.09C1.88744 311.094 2.45973 311.983 3.19935 311.974L8.95235 311.921C9.08112 311.921 9.208 311.89 9.32201 311.83C9.43602 311.77 9.53374 311.683 9.60673 311.577C9.67971 311.471 9.72576 311.349 9.74091 311.221C9.75605 311.093 9.73983 310.963 9.69364 310.843V310.843Z" fill="#E87B50"/>
</g>
<path d="M85.2222 148.168C74.4308 160.527 52.8779 178.357 52.8779 178.357L62.8093 298.121C62.8093 298.121 77.2002 299.305 82.155 296.397C82.1617 296.396 85.9267 182.855 85.2222 148.168Z" fill="#446284"/>
<path d="M81.141 152.762C81.1042 151.011 85.3076 156.176 85.2273 154.77C83.5791 125.68 31.2081 150.072 31.2081 150.072L20.2074 148.312L0 297.638C0 297.638 13.1459 299.846 20.6743 297.638L52.878 179.817C52.878 179.817 64.3907 176.057 81.141 152.762Z" fill="#446284"/>
<path d="M66.3351 48.7272H48.4436L47.6069 56.9142C47.6069 56.9142 53.4135 58.4643 53.954 58.096C54.4945 57.7278 64.1614 55.3659 64.1614 55.1449C64.1614 54.924 69.1815 53.8443 68.9572 53.7204C68.733 53.5966 68.5891 48.7272 68.5891 48.7272H66.3351Z" fill="#FCB2AE"/>
<path d="M40.6258 42.0701L39.7104 50.1935L40.2125 50.8313C41.8332 52.8656 43.9443 54.4543 46.3475 55.4481C48.7507 56.4419 51.3671 56.8081 53.9507 56.5125L52.0665 42.6191L40.6258 42.0701Z" fill="#FFC0BB"/>
<path d="M53.2694 51.4606L52.0696 42.6225L40.6255 42.0701L40.1235 46.5595C42.2069 48.3489 46.4254 51.0338 53.2694 51.4606Z" fill="#F99893"/>
<path d="M60.5269 28.0964C59.9663 30.0481 60.7795 31.9932 62.3425 32.4485C63.9054 32.9038 65.6289 31.6785 66.1912 29.7267C66.7534 27.775 65.9385 25.8299 64.3756 25.3746C62.8127 24.9193 61.0874 26.1463 60.5269 28.0964Z" fill="#F99893"/>
<path d="M61.1747 39.0889C61.5556 38.2255 61.8564 37.329 62.0732 36.4106C62.7091 33.9098 62.8848 31.3086 62.8597 29.0589C62.8597 28.5768 62.8781 28.0947 62.9099 27.6126C63.052 25.4374 62.7407 23.2563 61.9957 21.2078C61.2507 19.1592 60.0884 17.2879 58.5823 15.7124C57.0762 14.1369 55.2594 12.8916 53.2468 12.0555C51.2343 11.2194 49.0701 10.8108 46.8914 10.8555C44.7127 10.9002 42.567 11.3972 40.5904 12.3151C38.6139 13.233 36.8495 14.5518 35.4093 16.1877C33.9691 17.8236 32.8844 19.7411 32.224 21.8185C31.5636 23.8958 31.3419 26.0878 31.573 28.2554C30.5372 27.8168 29.4244 27.8101 28.5041 28.3458C26.737 29.3736 26.3488 31.9932 27.6356 34.2044C28.9224 36.4156 31.3973 37.3631 33.1577 36.3353C33.3986 36.1947 33.6183 36.0205 33.8103 35.8181C35.4184 43.3791 42.331 48.6033 49.8427 47.6693C53.3981 47.2234 56.6507 45.4412 58.9407 42.6844C59.093 42.5254 59.2503 42.3496 59.416 42.132C60.1306 41.1975 60.7217 40.1747 61.1747 39.0889V39.0889Z" fill="#FFC0BB"/>
<path d="M46.3001 28.8563C46.3338 29.1257 46.2868 29.3989 46.1652 29.6415C46.0436 29.8842 45.8528 30.0853 45.6169 30.2195C45.3811 30.3537 45.1108 30.4149 44.8401 30.3954C44.5695 30.376 44.3107 30.2767 44.0965 30.1101C43.8822 29.9435 43.7222 29.7172 43.6365 29.4596C43.5509 29.2021 43.5435 28.9249 43.6153 28.6631C43.6871 28.4014 43.8349 28.1668 44.0399 27.9891C44.245 27.8113 44.4981 27.6984 44.7673 27.6645C44.9463 27.6415 45.128 27.6542 45.3021 27.7018C45.4761 27.7493 45.6391 27.8308 45.7815 27.9416C45.924 28.0523 46.0431 28.1902 46.1321 28.3471C46.2211 28.5041 46.2782 28.6772 46.3001 28.8563V28.8563Z" fill="#333333"/>
<path d="M58.1205 28.1449C58.1545 28.4153 58.1076 28.6898 57.9856 28.9335C57.8636 29.1773 57.6721 29.3793 57.4353 29.5141C57.1985 29.649 56.9271 29.7105 56.6553 29.6909C56.3835 29.6714 56.1237 29.5716 55.9086 29.4043C55.6935 29.237 55.5329 29.0096 55.4471 28.7509C55.3612 28.4922 55.354 28.2139 55.4264 27.9511C55.4987 27.6883 55.6474 27.4529 55.8535 27.2747C56.0596 27.0964 56.314 26.9833 56.5844 26.9498C56.7638 26.9268 56.9459 26.9395 57.1204 26.9873C57.2948 27.035 57.4581 27.1167 57.6009 27.2278C57.7436 27.3389 57.863 27.4771 57.9522 27.6345C58.0414 27.7919 58.0986 27.9653 58.1205 28.1449V28.1449Z" fill="#333333"/>
<path d="M47.0613 24.0673C46.3724 24.0485 45.683 24.0843 44.9997 24.1744C44.3617 24.2606 43.7391 24.437 43.1507 24.6984C42.5644 24.9569 42.021 25.3035 41.5392 25.7261L41.3435 25.8801C41.2799 25.9337 41.228 25.999 41.1661 26.0475L40.7996 26.4024C40.5553 26.6451 40.3445 26.9196 40.0684 27.1724C40.1447 26.8156 40.2534 26.4666 40.393 26.1295C40.572 25.8132 40.7176 25.46 40.9703 25.1804C41.4337 24.5693 42.0462 24.0875 42.7491 23.7811C43.4484 23.4704 44.213 23.3354 44.9763 23.3877C45.718 23.432 46.4359 23.666 47.0613 24.0673Z" fill="#FEE4CB"/>
<path d="M53.7617 22.8671C54.3831 22.4622 55.0983 22.2241 55.8384 22.1758C56.6001 22.1167 57.3647 22.2448 58.0656 22.5491C58.7739 22.8486 59.3925 23.3267 59.8611 23.9367C60.1171 24.2129 60.2644 24.5661 60.4468 24.8791C60.5886 25.2157 60.7006 25.5641 60.7814 25.9203C60.502 25.6709 60.2878 25.3964 60.0418 25.157L59.672 24.8055C59.6084 24.7486 59.5565 24.6849 59.4913 24.6381L59.2955 24.4858C58.8097 24.0667 58.2622 23.7251 57.6723 23.473C57.0812 23.2187 56.457 23.0496 55.8183 22.9709C55.1366 22.8815 54.4489 22.8468 53.7617 22.8671V22.8671Z" fill="#FEE4CB"/>
<path d="M50.9773 25.547C50.8025 26.5252 50.767 27.5233 50.8719 28.5115C50.9193 29.0175 51.0139 29.5179 51.1547 30.0063C51.299 30.5397 51.5564 31.0358 51.9094 31.4609L52.0767 31.6283L52.2273 31.7655C52.301 31.8216 52.3688 31.885 52.4298 31.9547C52.5496 32.079 52.6385 32.2298 52.6892 32.3949C52.808 32.7146 52.7076 33.098 52.5218 33.4545C52.1018 34.181 51.2467 34.6748 50.3247 35.0146C51.3003 35.0547 52.4064 34.7652 53.1276 33.8746C53.3222 33.6425 53.4622 33.3696 53.5372 33.0762C53.6122 32.7827 53.6203 32.4761 53.561 32.179C53.5291 32.0226 53.4726 31.8723 53.3936 31.7337C53.3255 31.5937 53.2394 31.4632 53.1376 31.3454C53.0395 31.231 52.9308 31.1262 52.813 31.0324C52.7723 30.9979 52.7338 30.961 52.6975 30.9219L52.6021 30.8315C52.3392 30.5017 52.1349 30.1291 51.9981 29.7301C51.8376 29.2918 51.7024 28.8447 51.5931 28.391C51.3722 27.4636 51.1848 26.5145 50.9773 25.547Z" fill="#F99893"/>
<path d="M62.6573 6.0913C59.6218 4.25001 53.9793 2.54263 48.2213 2.36353C49.5733 1.4613 50.3966 0.736497 50.0619 0.482065C47.3327 -1.58353 38.32 3.54363 35.4469 5.27611C34.9164 4.55131 33.069 2.32168 31.1095 3.31598C28.7819 4.4944 33.1326 6.42441 33.1326 6.42441C33.1326 6.42441 30.0034 6.73742 29.2571 8.38956C28.7049 9.60984 30.6192 9.40562 31.655 9.21647C31.1897 9.38063 30.7586 9.62917 30.3833 9.94964V9.94964C30.3833 9.94964 26.0142 13.4364 26.394 15.4902C26.4844 15.9924 26.9111 16.0343 27.5018 15.825C26.9613 17.9442 26.0526 21.9565 26.804 22.4922C27.234 22.8002 27.6557 22.5675 28.0004 22.1942C28.323 24.161 28.7883 26.1017 29.3927 28.001C33.151 27.4318 36.2417 31.5061 36.2417 31.5061C35.4402 26.471 39.2537 17.0101 39.2537 17.0101C39.2537 17.0101 53.504 23.1483 51.1881 18.915C51.1881 18.915 67.9116 24.7553 64.4628 16.6385C64.4628 16.6385 70.855 16.2602 63.3952 9.85925C63.3952 9.8559 68.0873 9.38553 62.6573 6.0913Z" fill="#FEE4CB"/>
<path d="M101.189 47.1152L95.4396 46.4641L84.4473 46.7587L82.3071 51.8255L85.7609 54.775C85.7609 54.775 87.866 56.7451 90.5283 56.2513C93.1906 55.7575 87.2971 56.6447 93.6106 55.5617C99.9242 54.4787 101.102 54.8771 101.005 53.7204C100.908 52.5637 101.497 51.7268 101.398 50.694C101.3 49.6612 101.189 47.1152 101.189 47.1152Z" fill="#FFC0BB"/>
<path d="M38.114 48.7272C38.114 48.7272 12.6606 50.9401 8.53411 60.8245C4.40762 70.7088 16.9461 94.3142 16.9461 94.3142L15.4702 161.438C15.4702 161.438 51.2515 181.357 86.0021 164.094L84.8893 93.1893L80.4633 61.4555L75.0767 62.8901C75.0767 62.8901 74.1179 52.8584 66.5928 51.8992C59.0677 50.9401 54.9362 51.1611 54.9362 51.1611C54.9362 51.1611 46.8539 58.3906 38.114 48.7272Z" fill="#FFCD92"/>
<path d="M69.7152 98.1006C69.7152 98.1006 72.0479 96.2208 72.5482 96.4267C73.0485 96.6326 83.4718 96.9038 83.4401 100.221C83.4083 103.539 81.2162 115.889 81.2162 115.889L89.8456 120L91.2965 122.344L91.7985 130.094C91.7985 130.094 91.1643 133.042 91.0622 133.165C90.9601 133.289 89.4758 133.668 89.4758 133.668L85.7309 126.585C82.8627 126.083 72.846 124.074 69.7102 120.382C66.0472 116.053 69.7152 98.1006 69.7152 98.1006Z" fill="#FCB2AE"/>
<path d="M82.714 116.601L89.8458 119.999L91.2966 122.342L91.7986 130.092C91.7986 130.092 91.1644 133.04 91.0623 133.164C90.9603 133.288 89.476 133.666 89.476 133.666L85.731 126.584C84.7421 126.416 82.898 126.056 80.7812 125.517C82.2086 122.325 82.6203 118.902 82.714 116.601Z" fill="#FEE4CB"/>
<path d="M89.481 133.673L90.567 135.636C91.0606 136.545 92.4645 136.291 92.5499 135.276L93.7363 121.274C93.7515 121.031 93.6708 120.792 93.5115 120.608C93.3521 120.425 93.127 120.311 92.8846 120.291L89.8457 119.999C92.1349 129.62 90.9251 132.752 89.481 133.673Z" fill="#09083C"/>
<path d="M79.8824 98.1006C79.8824 98.1006 82.2168 96.2208 82.7171 96.4267C83.2174 96.6326 93.6391 96.9038 93.6073 100.221C93.5755 103.539 91.3851 115.889 91.3851 115.889L100.015 120L101.464 122.344L101.966 130.094C101.966 130.094 101.332 133.042 101.229 133.165C101.127 133.289 99.6431 133.668 99.6431 133.668L95.8981 126.585C93.03 126.083 83.0133 124.074 79.8757 120.382C76.2161 116.053 79.8824 98.1006 79.8824 98.1006Z" fill="#FFC0BB"/>
<path d="M92.8831 116.601L100.015 119.999L101.464 122.342L101.966 130.092C101.966 130.092 101.332 133.04 101.23 133.164C101.128 133.288 99.6435 133.666 99.6435 133.666L95.8985 126.584C94.9079 126.416 93.0655 126.056 90.9487 125.517C92.3778 122.325 92.7877 118.902 92.8831 116.601Z" fill="#FEE4CB"/>
<path d="M99.6499 133.673L100.736 135.636C101.228 136.545 102.633 136.291 102.719 135.276L103.905 121.274C103.92 121.031 103.84 120.792 103.68 120.608C103.521 120.425 103.296 120.311 103.053 120.291L100.015 119.999C102.304 129.62 101.094 132.752 99.6499 133.673Z" fill="#09083C"/>
<path d="M52.9799 37.3732C51.7472 37.6921 50.4605 37.7429 49.2065 37.5221C48.5921 37.4025 47.9891 37.23 47.4043 37.0066C47.2527 36.9573 47.1046 36.898 46.9609 36.8291L46.5091 36.6417C46.2095 36.5111 45.9201 36.3571 45.5938 36.2366C45.8065 36.5033 46.038 36.7545 46.2865 36.9882C46.5488 37.2121 46.8286 37.4148 47.1232 37.5941C47.7186 37.9605 48.3759 38.2151 49.0626 38.3457C49.7566 38.4704 50.4685 38.4538 51.156 38.2971C51.8359 38.1587 52.466 37.8395 52.9799 37.3732V37.3732Z" fill="#F99893"/>
<path d="M101.19 47.1152C102.432 47.2634 103.666 47.4808 104.884 47.7664C109.704 48.923 118.065 60.4311 118.065 60.4311C118.065 60.4311 116.688 67.0714 108.623 68.8173C108.623 68.8173 114.623 102.576 97.9482 106.56C76.9225 111.582 60.3496 99.1835 60.3496 99.1835L68.5775 88.119C68.5775 88.119 75.373 73.998 75.0768 62.89C75.0768 62.89 74.3238 53.5949 67.1568 51.9913L66.3352 48.7272L84.4476 46.7587C84.4476 46.7587 84.2635 53.8761 91.5292 54.0385C100.36 54.2343 101.19 47.1152 101.19 47.1152Z" fill="#FF5B7E"/>
<g style="mix-blend-mode:multiply" opacity="0.5">
<path d="M72.0029 79.4734C101.981 78.5778 106.211 58.6116 106.211 58.6116L108.623 68.8224C108.623 68.8224 114.625 102.577 97.9482 106.56C76.9225 111.582 60.3496 99.1835 60.3496 99.1835L68.5775 88.1191C69.8806 85.3037 71.0242 82.4173 72.0029 79.4734V79.4734Z" fill="#FEB546"/>
</g>
<path d="M37.9433 88.0036C37.9433 88.0036 42.3208 93.1341 48.3181 92.878C50.1855 92.7977 94.414 79.0031 94.5981 78.8173C97.4177 77.1936 106.897 72.1133 110.848 74.7296C115.517 77.8213 116.276 83.0037 116.035 84.9237C115.794 86.8436 112.56 92.0913 109.762 88.9661C108.435 87.4831 104.59 87.7643 100.912 88.464C100.912 88.464 58.3348 113.045 45.2023 111.865C32.0698 110.685 23.8018 101.773 23.8018 101.773C23.8018 101.773 31.5745 91.5942 37.9433 88.0036Z" fill="#FFC0BB"/>
<path d="M102.856 96.6795C103.649 96.6712 104.431 96.8691 105.125 97.2539C105.819 97.6386 106.402 98.197 106.815 98.8744C107.229 99.5518 107.459 100.325 107.485 101.118C107.51 101.912 107.329 102.698 106.959 103.4C106.149 104.959 104.892 106.848 103.11 108.169C99.536 110.811 91.8118 111.339 88.9889 108.104C86.1659 104.868 87.3707 104.872 87.3707 104.872C87.3707 104.872 85.6974 102.863 86.9708 101.941C86.9708 101.941 86.3734 100.257 87.5113 99.9218C88.0034 99.8377 88.5095 99.9097 88.9587 100.128C88.9587 100.128 88.8851 99.038 90.1401 99.0313C91.3951 99.0246 96.8218 101.773 100.736 101.271C103.816 100.876 100.721 98.8857 99.2633 98.0571C98.5888 97.6827 98.0689 97.0813 97.7957 96.3597C97.72 96.1614 97.6721 95.9535 97.6535 95.7421C97.6463 95.6352 97.6713 95.5286 97.7252 95.436C97.7792 95.3435 97.8597 95.2693 97.9562 95.223C98.0528 95.1767 98.161 95.1604 98.267 95.1762C98.3729 95.1921 98.4716 95.2393 98.5504 95.3119C99.1963 95.9028 100.299 96.7464 101.311 96.7364C101.69 96.7347 102.242 96.6845 102.856 96.6795Z" fill="#FFC0BB"/>
<g style="mix-blend-mode:multiply" opacity="0.5">
<path d="M85.6107 139.319L85.9973 164.092C51.2467 181.354 15.4653 161.436 15.4653 161.436L16.9412 94.3126C16.9412 94.3126 29.8261 153.406 85.6107 139.319Z" fill="#FFCD92"/>
</g>
<path d="M106.211 58.6116C106.489 59.9105 106.78 61.1961 107.069 62.4833C107.207 63.1277 107.362 63.7672 107.493 64.4116C107.623 65.0561 107.774 65.6972 107.904 66.3416L108.107 67.3075L108.294 68.275C108.433 68.9194 108.532 69.5689 108.661 70.2134C108.893 71.509 109.087 72.8096 109.295 74.1219C109.358 72.7939 109.317 71.4631 109.174 70.1414C109.144 69.8066 109.099 69.4819 109.056 69.1521C109.012 68.8223 108.969 68.4943 108.913 68.1662C108.858 67.8381 108.803 67.5117 108.746 67.1853L108.557 66.2077C108.49 65.8813 108.41 65.5599 108.338 65.2352C108.266 64.9105 108.192 64.5891 108.105 64.2677C107.938 63.6266 107.771 62.9855 107.57 62.3511C107.194 61.0779 106.74 59.829 106.211 58.6116V58.6116Z" fill="white"/>
<path d="M108.351 21.1849C108.351 21.1849 113.286 16.6319 119.18 21.0911C125.073 25.5504 119.695 31.9162 123.711 35.4247C123.711 35.4247 115.267 35.3477 112.731 29.4322C110.806 24.9444 109.186 23.8932 108.515 23.6488C108.313 23.5812 108.127 23.4717 107.97 23.3275C107.812 23.1833 107.687 23.0077 107.602 22.8119C107.429 22.3583 107.463 21.7607 108.351 21.1849Z" fill="#333333"/>
<path d="M106.974 20.1487C107.129 20.1248 107.287 20.1318 107.44 20.1695C107.592 20.2071 107.735 20.2746 107.861 20.3681C107.987 20.4615 108.093 20.579 108.173 20.7137C108.253 20.8485 108.306 20.9978 108.328 21.153L108.74 23.9987C108.764 24.1658 108.753 24.336 108.708 24.4987C108.663 24.6615 108.585 24.8131 108.479 24.9441C108.372 25.0751 108.24 25.1827 108.09 25.2599C107.94 25.3372 107.775 25.3825 107.607 25.393V25.393C107.295 25.4123 106.988 25.3116 106.748 25.1115C106.508 24.9113 106.354 24.627 106.317 24.3167L105.982 21.4594C105.946 21.1549 106.029 20.8483 106.214 20.6039C106.399 20.3595 106.671 20.1964 106.974 20.1487Z" fill="#FEE4CB"/>
<path d="M82.4344 16.215C82.4344 16.215 77.4964 11.662 71.6062 16.1129C65.7159 20.5638 71.0891 26.938 67.0747 30.4482C67.0747 30.4482 75.5168 30.3695 78.0553 24.4556C79.9796 19.9679 81.5994 18.9167 82.2704 18.6707C82.4727 18.6031 82.6585 18.4936 82.8156 18.3494C82.9727 18.2052 83.0977 18.0295 83.1824 17.8337C83.3632 17.3901 83.323 16.7942 82.4344 16.215Z" fill="#333333"/>
<path d="M84.7335 16.0527C84.6036 15.9648 84.4576 15.9035 84.304 15.8723C84.1503 15.8412 83.9919 15.8407 83.8381 15.8711C83.6842 15.9014 83.5379 15.9619 83.4076 16.0491C83.2772 16.1363 83.1654 16.2484 83.0786 16.3791L81.4922 18.7778C81.3988 18.9184 81.3355 19.0769 81.3064 19.2433C81.2773 19.4096 81.2829 19.5802 81.323 19.7443C81.3631 19.9083 81.4368 20.0623 81.5393 20.1964C81.6419 20.3306 81.7712 20.442 81.9189 20.5236V20.5236C82.1924 20.6746 82.5133 20.7151 82.8157 20.637C83.1181 20.5589 83.3792 20.368 83.5454 20.1035L85.0749 17.6646C85.2381 17.4041 85.2938 17.0904 85.2301 16.7896C85.1664 16.4888 84.9883 16.2246 84.7335 16.0527Z" fill="#FEE4CB"/>
<path d="M96.6632 40.9753H88.2964V49.3415H96.6632V40.9753Z" fill="#FFC0BB"/>
<path d="M96.6632 45.9903V40.9686H88.2964V45.2354C90.0969 46.2096 92.7642 46.767 96.6632 45.9903Z" fill="#F99893"/>
<path d="M105.793 31.3906C105.793 31.3906 109.555 22.0168 104.18 17.591C98.805 13.1652 92.5366 12.7417 88.0186 14.3537C83.5005 15.9656 79.9429 23.2253 81.2582 27.8152L95.8616 25.5521L105.793 31.3906Z" fill="#333333"/>
<path d="M82.8494 29.7753C83.1741 31.1479 82.5148 32.4535 81.3769 32.6945C80.239 32.9356 79.0509 32.0149 78.7263 30.6407C78.4017 29.2664 79.061 27.9624 80.1989 27.7214C81.3367 27.4804 82.5248 28.4027 82.8494 29.7753Z" fill="#F99893"/>
<path d="M81.9524 37.3397C81.7135 36.727 81.5331 36.0931 81.4136 35.4465C81.0967 33.7609 81.0044 32.0408 81.1392 30.331C81.1609 29.9963 81.1643 29.6615 81.1609 29.3267C81.1443 27.9165 81.413 26.5176 81.9507 25.2139C83.7647 20.7932 88.4768 18.0245 93.4166 18.4949C100.066 19.1276 104.648 25.0231 103.597 31.1864C103.955 31.0514 104.338 30.9993 104.718 31.0341C105.098 31.0689 105.466 31.1897 105.793 31.3873C107.019 32.1774 107.195 34.0036 106.184 35.4699C105.174 36.9363 103.363 37.4786 102.138 36.6919C101.972 36.5839 101.822 36.4538 101.691 36.3052C100.983 38.8144 99.3651 40.9694 97.1537 42.3495C94.9424 43.7296 92.2962 44.2357 89.7318 43.7691C87.222 43.3107 84.9706 41.9393 83.4116 39.9191C83.2988 39.7902 83.1926 39.6556 83.0936 39.5157C82.6201 38.8432 82.2364 38.1116 81.9524 37.3397V37.3397Z" fill="#FFC0BB"/>
<path d="M92.3594 29.4723C92.8619 29.2949 93.3837 29.178 93.9139 29.1242C94.4316 29.0729 94.9541 29.1045 95.4618 29.2179C95.7141 29.2738 95.9607 29.3534 96.1981 29.4556C96.3185 29.5025 96.4323 29.5627 96.5478 29.623C96.6064 29.6514 96.6616 29.6866 96.7151 29.7167C96.7687 29.7469 96.8306 29.7787 96.8825 29.8155C97.3261 30.1058 97.7403 30.4388 98.1191 30.8098C97.8465 30.3371 97.4851 29.9216 97.0548 29.5862C96.6116 29.2383 96.0975 28.992 95.5488 28.8647C94.9984 28.7414 94.4282 28.7356 93.8754 28.848C93.604 28.9014 93.3384 28.981 93.0823 29.0857C92.8264 29.1844 92.5836 29.3143 92.3594 29.4723Z" fill="#333333"/>
<path d="M88.119 28.9049C87.9475 28.6932 87.7508 28.5032 87.5333 28.3391C87.3136 28.1712 87.0783 28.0249 86.8305 27.9022C86.3249 27.6475 85.7712 27.5026 85.2057 27.4771C84.9221 27.4639 84.638 27.4835 84.359 27.5356C84.0832 27.5847 83.8138 27.6645 83.5558 27.7733C83.0518 27.9827 82.5936 28.2886 82.207 28.6739C82.6697 28.4156 83.1568 28.2036 83.6612 28.0412C83.7233 28.0211 83.7864 28.0043 83.8503 27.9909C83.9122 27.9759 83.9741 27.9558 84.0377 27.9441C84.1665 27.919 84.292 27.8905 84.4209 27.8771C84.6763 27.8412 84.9346 27.8294 85.1923 27.842C85.7124 27.8672 86.2252 27.9745 86.7117 28.16C87.2085 28.352 87.6809 28.602 88.119 28.9049V28.9049Z" fill="#333333"/>
<path d="M103.598 31.1898C103.598 31.1898 96.3738 27.2092 92.925 22.1641C92.925 22.1641 92.684 24.6432 93.427 25.6241C93.1342 25.7596 88.1392 23.0412 87.4397 19.0055C86.7403 14.9697 93.7466 17.427 93.7466 17.427C93.7466 17.427 97.93 17.3265 98.0973 17.437C98.2647 17.5475 100.965 19.6282 101.084 19.7805C101.203 19.9328 104.337 25.6793 104.337 25.6793L105.057 27.76L105.795 31.3957L103.598 31.1898Z" fill="#333333"/>
<path d="M89.7904 29.8104C89.8437 30.4208 89.8105 31.0356 89.6917 31.6366C89.6351 31.9443 89.5494 32.2458 89.4357 32.5372C89.3176 32.857 89.1321 33.1475 88.8919 33.3892L88.7797 33.4779L88.6793 33.5549C88.6312 33.5855 88.5858 33.6202 88.5438 33.6587C88.4642 33.729 88.4018 33.8166 88.3614 33.9148C88.3228 34.0222 88.307 34.1365 88.3151 34.2504C88.3232 34.3642 88.3549 34.4751 88.4083 34.576C88.6258 35.0447 89.1228 35.3962 89.6683 35.654C89.3449 35.6509 89.0268 35.5721 88.7394 35.4238C88.452 35.2756 88.2034 35.062 88.0133 34.8003C87.9078 34.6463 87.8381 34.4706 87.8091 34.2861C87.7802 34.1016 87.7928 33.913 87.846 33.734C87.8732 33.6405 87.915 33.5518 87.9698 33.4712C88.0197 33.3891 88.0799 33.3137 88.1489 33.2469C88.2153 33.1819 88.2876 33.1231 88.3648 33.0712C88.3917 33.0528 88.4174 33.0327 88.4417 33.0109L88.5053 32.9607C88.6842 32.7722 88.8301 32.5549 88.937 32.3179C89.0589 32.058 89.1662 31.7914 89.2583 31.5195C89.4441 30.9671 89.6097 30.3929 89.7904 29.8104Z" fill="#F99893"/>
<path d="M35.0402 80.3873C32.3277 74.8768 29.9867 69.1822 27.7126 63.4809C28.31 65.2804 28.9592 67.0647 29.6202 68.8374C30.9974 72.5501 32.4766 76.2327 34.1383 79.8266C34.918 81.5005 35.7045 83.2262 36.6483 84.8231C36.9294 85.2974 37.2083 85.7711 37.485 86.2443C37.6523 86.5288 37.8514 86.7983 38.0372 87.0812L38.243 87.3809L37.6607 87.7993C37.0638 88.239 36.4737 88.6904 35.8903 89.1535C33.5498 91.0137 31.3209 93.0102 29.2152 95.1327C28.1426 96.2123 27.0667 97.3221 26.0827 98.4805C24.744 100.067 23.4656 101.681 22.2491 103.365C20.9439 101.117 19.6292 98.8744 18.305 96.6358C17.8498 95.8558 17.3813 95.0841 16.9194 94.3075C18.662 97.5928 20.4223 100.869 22.2005 104.135C22.5988 103.614 22.9987 103.094 23.3953 102.571C24.6185 100.96 25.9606 99.4329 27.3377 97.9498C30.9164 94.0866 34.8762 90.595 39.1566 87.5282C37.5419 85.2935 36.2567 82.858 35.0402 80.3873Z" fill="white"/>
<path d="M92.8529 31.7187C92.8204 31.9143 92.8466 32.1153 92.9282 32.2961C93.0097 32.4769 93.1429 32.6295 93.3111 32.7347C93.4792 32.8399 93.6747 32.8929 93.8729 32.887C94.0711 32.8812 94.2632 32.8168 94.4248 32.7019C94.5865 32.587 94.7105 32.4268 94.7813 32.2415C94.852 32.0562 94.8664 31.8541 94.8225 31.6607C94.7785 31.4672 94.6783 31.2912 94.5345 31.1546C94.3907 31.0181 94.2096 30.9272 94.0142 30.8934C93.8838 30.8709 93.7501 30.8744 93.621 30.9037C93.4919 30.9331 93.3699 30.9876 93.2619 31.0643C93.154 31.141 93.0623 31.2383 92.9921 31.3506C92.9219 31.4629 92.8746 31.588 92.8529 31.7187V31.7187Z" fill="#333333"/>
<path d="M84.8092 30.5553C84.7765 30.7509 84.8024 30.9519 84.8836 31.1328C84.9649 31.3137 85.0979 31.4665 85.2658 31.5719C85.4338 31.6773 85.6292 31.7306 85.8274 31.7251C86.0256 31.7196 86.2177 31.6555 86.3796 31.5409C86.5414 31.4263 86.6657 31.2663 86.7367 31.0811C86.8078 30.896 86.8225 30.6939 86.7789 30.5004C86.7354 30.307 86.6355 30.1307 86.4919 29.9939C86.3484 29.8571 86.1675 29.7659 85.9722 29.7318C85.8417 29.709 85.708 29.7122 85.5788 29.7413C85.4496 29.7705 85.3274 29.8249 85.2193 29.9014C85.1112 29.978 85.0193 30.0751 84.9489 30.1874C84.8785 30.2996 84.8311 30.4247 84.8092 30.5553Z" fill="#333333"/>
<path d="M86.4541 36.7036C86.6415 37.723 87.7677 38.5599 89.1817 38.657C90.5957 38.7541 91.8256 38.0745 92.1485 37.0902L86.4541 36.7036Z" fill="white"/>
<path d="M161.966 71.9108C161.966 71.9108 163.234 83.8708 165.411 87.2688C165.411 87.2688 159.053 95.8057 150.632 90.6467C150.632 90.6467 149.555 80.4795 148.104 78.2147C146.653 75.9499 161.966 71.9108 161.966 71.9108Z" fill="#FFC0BB"/>
<path d="M161.966 71.9108C161.966 71.9108 162.247 74.5539 162.769 77.7092C161.631 79.2028 160.201 80.4489 158.566 81.3716C156.931 82.2942 155.126 82.874 153.259 83.0757C152.008 83.2079 150.744 83.1663 149.504 82.9518C149.108 80.9063 148.631 79.0382 148.104 78.2147C146.653 75.9482 161.966 71.9108 161.966 71.9108Z" fill="#F99893"/>
<path d="M138.084 58.7438C138.852 60.8311 138.121 63.0189 136.45 63.6332C134.78 64.2476 132.801 63.0541 132.033 60.9684C131.265 58.8827 131.996 56.6933 133.666 56.0789C135.336 55.4646 137.314 56.6581 138.084 58.7438Z" fill="#F99893"/>
<path d="M138.259 70.8059C137.773 69.8924 137.373 68.9359 137.063 67.9486C136.169 65.2703 135.768 62.4415 135.614 59.9825C135.58 59.4552 135.517 58.9296 135.446 58.4074C135.12 56.0456 135.288 53.6419 135.94 51.3484C136.591 49.055 137.711 46.9218 139.229 45.084C140.747 43.2461 142.63 41.7437 144.759 40.6718C146.888 39.5999 149.217 38.982 151.597 38.8571C153.977 38.7322 156.357 39.103 158.586 39.9462C160.816 40.7894 162.846 42.0864 164.548 43.7553C166.25 45.4241 167.587 47.4284 168.474 49.6411C169.362 51.8538 169.78 54.2267 169.703 56.6096C170.799 56.0488 172.013 55.9534 173.062 56.464C175.07 57.4449 175.706 60.2754 174.477 62.7846C173.249 65.2938 170.629 66.5341 168.621 65.5532C168.347 65.4181 168.094 65.2457 167.868 65.041C166.72 73.4239 159.593 79.6826 151.32 79.2692C147.405 79.0633 143.715 77.3778 140.995 74.5538C140.798 74.3753 140.61 74.1865 140.433 73.988C139.574 73.0258 138.843 71.9562 138.259 70.8059V70.8059Z" fill="#FFC0BB"/>
<path opacity="0.3" d="M154.55 53.0124L159.991 59.6075L158.171 61.3835L152.729 54.0167L154.55 53.0124Z" fill="white"/>
<path opacity="0.3" d="M152.329 54.6611C152.329 54.6611 157.63 61.5827 157.658 61.6714L157.304 62.0213L151.862 55.1131L152.329 54.6611Z" fill="white"/>
<path opacity="0.3" d="M151.452 57.6072C151.451 58.4822 151.709 59.338 152.194 60.0662C152.679 60.7944 153.369 61.3622 154.177 61.6979C154.985 62.0336 155.874 62.1221 156.732 61.952C157.59 61.782 158.379 61.3612 158.997 60.7428C159.616 60.1244 160.038 59.3363 160.209 58.4781C160.38 57.62 160.292 56.7304 159.958 55.9219C159.623 55.1134 159.056 54.4225 158.329 53.9364C157.601 53.4504 156.746 53.1911 155.871 53.1915C155.291 53.191 154.717 53.3049 154.181 53.5266C153.645 53.7483 153.158 54.0735 152.747 54.4835C152.337 54.8936 152.011 55.3805 151.789 55.9165C151.567 56.4524 151.452 57.027 151.452 57.6072V57.6072Z" fill="#DAEEF7"/>
<path d="M152.555 57.7495C152.539 58.0473 152.611 58.3433 152.763 58.5999C152.916 58.8564 153.14 59.062 153.409 59.1906C153.678 59.3193 153.98 59.3651 154.275 59.3223C154.57 59.2795 154.846 59.1501 155.067 58.9504C155.289 58.7507 155.446 58.4897 155.519 58.2005C155.592 57.9113 155.578 57.6069 155.477 57.3259C155.377 57.0449 155.196 56.8 154.957 56.6221C154.718 56.4442 154.431 56.3414 154.133 56.3267C153.735 56.3071 153.346 56.4457 153.05 56.7124C152.755 56.979 152.577 57.3519 152.555 57.7495V57.7495Z" fill="#333333"/>
<path d="M141.268 57.7495C141.252 58.0474 141.324 58.3435 141.476 58.6001C141.629 58.8567 141.853 59.0623 142.123 59.1909C142.392 59.3195 142.693 59.3652 142.988 59.3223C143.283 59.2794 143.559 59.1498 143.781 58.9499C144.002 58.7501 144.159 58.4889 144.232 58.1996C144.305 57.9103 144.29 57.6058 144.19 57.3248C144.09 57.0439 143.908 56.799 143.669 56.6213C143.429 56.4436 143.142 56.3411 142.844 56.3267C142.447 56.3075 142.058 56.4464 141.763 56.713C141.467 56.9796 141.289 57.3522 141.268 57.7495V57.7495Z" fill="#333333"/>
<path d="M152.54 52.7278C153.255 52.4897 153.986 52.3029 154.728 52.1687C155.416 52.0474 156.117 52.0203 156.812 52.0884C157.502 52.1562 158.179 52.3254 158.82 52.5906L159.076 52.6809C159.161 52.7111 159.243 52.7596 159.322 52.7964C159.489 52.8768 159.656 52.9538 159.824 53.0291C160.158 53.1965 160.483 53.3974 160.866 53.5547C160.671 53.2032 160.442 52.8714 160.183 52.5638C160.043 52.4198 159.897 52.2759 159.747 52.1369C159.6 51.9926 159.436 51.8662 159.26 51.7603C158.567 51.2753 157.759 50.9799 156.917 50.9033C156.077 50.8212 155.23 50.95 154.452 51.2782C153.698 51.5836 153.038 52.0839 152.54 52.7278V52.7278Z" fill="#DAEEF7"/>
<path d="M146.484 52.7278C145.985 52.0796 145.321 51.5763 144.563 51.2698C143.786 50.9388 142.939 50.807 142.098 50.8865C141.256 50.9631 140.448 51.2586 139.755 51.7436C139.579 51.8494 139.415 51.9759 139.268 52.1202C139.118 52.2591 138.972 52.4031 138.832 52.547C138.573 52.8546 138.344 53.1865 138.149 53.538C138.532 53.3806 138.85 53.1731 139.191 53.0124C139.359 52.9371 139.534 52.8601 139.693 52.7797C139.777 52.7429 139.861 52.6943 139.939 52.6642L140.195 52.5738C140.836 52.3086 141.513 52.1394 142.203 52.0716C142.898 52.0036 143.599 52.0306 144.287 52.152C145.032 52.2914 145.766 52.4839 146.484 52.7278V52.7278Z" fill="#DAEEF7"/>
<path d="M168.688 60.5566C169.708 55.2336 166.576 54.3532 165.589 55.632C164.601 56.9109 165.888 67.3008 160.758 66.8806C157.536 66.6161 153.627 64.8167 147.362 65.4829C142.23 66.0269 138.1 68.4775 136.101 63.6851C136.101 63.6851 133.37 80.0793 151.096 80.1245C169.044 80.1697 168.688 60.5566 168.688 60.5566V60.5566Z" fill="#DAEEF7"/>
<path d="M153.977 67.7227C153.63 67.975 153.266 68.2016 152.886 68.4006C152.513 68.6049 152.126 68.7822 151.728 68.9312C150.939 69.2337 150.106 69.4034 149.261 69.4334C148.419 69.4506 147.582 69.3045 146.795 69.0032C146.004 68.6811 145.263 68.2495 144.593 67.721C144.896 68.0272 145.225 68.3072 145.575 68.558C145.931 68.8097 146.31 69.0277 146.706 69.2091C147.107 69.388 147.526 69.5227 147.956 69.6108C148.389 69.693 148.829 69.7312 149.27 69.7247C150.148 69.6952 151.012 69.4951 151.813 69.1355C152.611 68.7938 153.343 68.3157 153.977 67.7227V67.7227Z" fill="#F99893"/>
<path d="M150.851 57.6072C150.852 58.5285 151.115 59.4305 151.608 60.2086C152.101 60.9867 152.804 61.6088 153.637 62.0029C154.469 62.3969 155.397 62.5466 156.311 62.4346C157.225 62.3226 158.088 61.9535 158.801 61.3701C158.85 61.5266 158.942 61.6659 159.067 61.7718C159.192 61.8777 159.344 61.9458 159.507 61.9681C159.669 61.9904 159.834 61.966 159.983 61.8978C160.132 61.8295 160.258 61.7202 160.347 61.5827C161.602 62.3008 162.775 62.6641 163.861 62.6641C164.469 62.6671 165.071 62.5452 165.63 62.3059C168.719 60.9785 169.981 56.6498 170.011 56.4589L169.706 56.6029C169.696 56.6481 168.455 60.7659 165.51 62.0313C164.071 62.649 162.379 62.4046 160.475 61.3099C160.487 61.2593 160.495 61.2078 160.498 61.1559C160.508 60.9486 160.443 60.7447 160.315 60.5815C160.186 60.4182 160.004 60.3066 159.8 60.267C160.321 59.4779 160.599 58.553 160.598 57.6072C160.598 56.3153 160.085 55.0764 159.172 54.1629C158.259 53.2494 157.02 52.7362 155.729 52.7362C154.437 52.7362 153.199 53.2494 152.286 54.1629C151.372 55.0764 150.859 56.3153 150.859 57.6072H150.851ZM151.452 57.6072C151.45 56.7619 151.699 55.9351 152.168 55.2315C152.636 54.5279 153.302 53.979 154.083 53.6545C154.863 53.3299 155.722 53.2442 156.551 53.4082C157.38 53.5723 158.141 53.9786 158.739 54.5759C159.337 55.1731 159.745 55.9344 159.91 56.7634C160.075 57.5924 159.991 58.4518 159.668 59.2328C159.345 60.0138 158.797 60.6814 158.094 61.1509C157.392 61.6205 156.566 61.871 155.721 61.8706C154.59 61.8702 153.505 61.4211 152.705 60.6218C151.905 59.8226 151.454 58.7384 151.452 57.6072V57.6072Z" fill="#07085B"/>
<path d="M148.945 53.014C149.054 54.2734 148.986 55.5418 148.741 56.782C148.622 57.418 148.444 58.0417 148.21 58.645C147.967 59.3047 147.584 59.9042 147.088 60.4026L146.853 60.5868L146.646 60.7441C146.547 60.8074 146.454 60.8797 146.368 60.96C146.203 61.1045 146.073 61.2856 145.99 61.489C145.801 61.8807 145.885 62.3778 146.087 62.8515C146.535 63.8207 147.565 64.5455 148.692 65.0795C147.451 65.0209 146.084 64.5271 145.272 63.3152C145.052 62.9988 144.905 62.637 144.842 62.2563C144.78 61.8757 144.804 61.4859 144.912 61.1157C144.971 60.922 145.058 60.7381 145.17 60.57C145.274 60.4008 145.398 60.2456 145.541 60.108C145.678 59.9737 145.827 59.8526 145.987 59.7465C146.045 59.7083 146.101 59.6658 146.154 59.6192L146.284 59.5171C146.655 59.1289 146.956 58.6799 147.175 58.1897C147.429 57.6538 147.652 57.1039 147.844 56.5426C148.229 55.406 148.572 54.2159 148.945 53.014Z" fill="#F99893"/>
<path d="M151.104 44.5675C140.304 44.3566 140.363 37.805 140.363 37.805L140.652 38.0929C141.454 38.6235 143.162 38.7625 143.162 38.7625C141.3 34.1157 146.884 33.1867 146.884 33.1867C146.884 33.1867 143.162 36.9028 151.536 36.9028C159.909 36.9028 161.772 39.6915 161.772 39.6915C161.874 39.9223 161.927 40.1721 161.926 40.4246V40.4246C161.982 40.7632 161.944 41.1108 161.815 41.429C161.637 41.9192 161.372 42.3729 161.032 42.7681C160.608 43.2687 160.113 43.7041 159.563 44.0604C158.462 44.7694 157.239 45.2678 155.957 45.53C155.643 45.6033 155.325 45.6591 155.005 45.6974C154.685 45.7393 154.367 45.7928 154.047 45.823L153.087 45.8665C152.768 45.8899 152.448 45.895 152.128 45.8816C151.491 45.8498 150.853 45.8313 150.222 45.7543C149.591 45.6773 148.964 45.5669 148.343 45.4346C148.981 45.3677 149.608 45.3426 150.236 45.3124C150.549 45.3124 150.861 45.2672 151.171 45.2455C151.481 45.2237 151.793 45.202 152.105 45.1802C152.724 45.125 153.336 45.0429 153.945 44.9777L154.856 44.822C155.159 44.7825 155.46 44.7266 155.758 44.6546L156.651 44.4504L157.521 44.1759C157.745 44.1113 157.964 44.0308 158.176 43.9348C156.581 44.3583 154.315 44.6312 151.104 44.5675Z" fill="#DAEEF7"/>
<path d="M134.243 177.959C144.335 188.596 165.274 177.838 165.274 177.838L161.837 227.496L153.136 304.409C153.136 304.409 145.037 305.95 140.408 303.446C140.408 303.446 133.586 207.815 134.243 177.959Z" fill="#446284"/>
<path d="M188.827 181.116C188.216 178.011 187.675 175.625 187.488 175.625C186.969 175.625 165.681 172.686 164.469 172.858C163.258 173.031 133.909 179.003 133.909 179.003C133.909 179.003 151.879 198.953 166.829 203.442C168.274 243.228 172.57 303.438 172.57 303.438C177.198 305.948 185.297 304.4 185.297 304.4L193.999 227.488L197.436 177.83C194.669 179.179 191.788 180.279 188.827 181.116V181.116Z" fill="#55769F"/>
<path d="M142.816 86.0887H174.374C174.374 86.0887 167.503 112.961 156.168 110.739C144.832 108.516 141.849 92.493 141.849 92.493L142.816 86.0887Z" fill="#DAEEF7"/>
<g style="mix-blend-mode:multiply">
<path d="M163.875 97.3842L156.512 91.8285L148.982 97.3842L155.369 107.885C155.369 107.885 159.102 107.885 159.174 107.382C159.246 106.88 163.876 97.7055 163.876 97.7055L163.875 97.3842Z" fill="#DAEEF7"/>
</g>
<path d="M160.932 105.303L157.3 95.5546H155.284L152.068 106.097L155.835 113.261L160.932 105.303Z" fill="#446284"/>
<path d="M174.374 86.0887H169.75C169.75 86.0887 162.833 101.792 156.23 107.24C156.23 107.24 149.626 99.346 146.039 86.0887H142.816V108.673C142.816 108.673 148.766 122.15 152.642 119.999C156.517 117.848 161.111 118.994 163.686 112.831C166.261 106.668 169.051 105.662 169.742 101.505C170.433 97.349 171.181 95.6266 172.242 92.7592C173.303 89.8918 174.374 86.0887 174.374 86.0887Z" fill="#05AD99"/>
<path d="M142.816 86.0887C142.816 86.0887 128.656 96.9992 130.266 117.203C131.875 137.407 135.1 170.311 133.482 177.181C131.963 183.664 161.646 187.644 192.533 181.283C194.124 180.955 195.566 180.122 196.646 178.908C197.726 177.694 198.385 176.165 198.527 174.546L199.866 159.231C199.866 159.231 201.079 143.497 199.866 134.792C198.652 126.088 190.965 110.734 189.75 103.055C188.535 95.3772 174.375 86.0837 174.375 86.0837C174.375 86.0837 163.855 105.889 156.168 110.739C156.168 110.739 146.862 106.293 142.816 86.0887Z" fill="#02CCC0"/>
<path d="M169.75 86.0887L166.683 82.843C166.683 82.843 155.91 88.8272 148.868 84.2474L146.039 86.0887L149.621 89.3193C149.621 89.3193 164.124 90.4659 164.317 90.0843C164.509 89.7026 169.75 86.0887 169.75 86.0887Z" fill="#DAEEF7"/>
<path d="M159.931 94.408L156.517 91.8302L153.236 94.2406L154.978 96.2125C155.311 96.5885 155.78 96.8171 156.282 96.8485C156.784 96.8798 157.277 96.7114 157.655 96.3798L159.931 94.408Z" fill="#55769F"/>
<path d="M171.854 313.747H177.99V190.572C177.99 187.616 179.071 184.728 181.131 182.604C182.171 181.525 183.419 180.668 184.799 180.084C186.18 179.5 187.664 179.201 189.163 179.206H197.337C197.74 179.206 198.138 179.127 198.51 178.973C198.882 178.819 199.22 178.594 199.505 178.309C199.79 178.024 200.016 177.686 200.17 177.314C200.325 176.942 200.404 176.544 200.404 176.141V176.141C200.404 175.738 200.325 175.34 200.17 174.968C200.016 174.596 199.79 174.258 199.505 173.973C199.22 173.688 198.882 173.463 198.51 173.309C198.138 173.155 197.74 173.076 197.337 173.076H189.444C184.713 173.076 180.12 174.887 176.807 178.265C173.624 181.487 171.845 185.837 171.857 190.366L171.854 313.747Z" fill="#333333"/>
<path opacity="0.3" d="M132.557 142.114L132.322 141.881C132.346 142.189 132.371 142.497 132.396 142.807L132.563 142.64L138.704 148.793L133.236 154.256C133.281 154.936 133.323 155.608 133.365 156.274L138.619 161.521L133.857 166.277C133.892 167.403 133.915 168.473 133.927 169.476L138.971 174.514L145.386 168.108L151.8 174.514L158.214 168.108L164.63 174.514L171.044 168.108L177.458 174.514L183.873 168.108L190.287 174.514L196.599 168.21L198.88 170.488L199.382 164.69L196.594 167.474L190.634 161.521L196.594 155.569L199.891 158.853C199.963 157.849 200.163 154.856 200.291 151.143L196.599 154.826L190.553 148.786L196.599 142.748L200.394 146.54C200.421 143.808 200.383 140.971 200.215 138.4L196.599 142.012L190.287 135.708L183.873 142.114L177.458 135.708L171.044 142.114L164.63 135.708L158.214 142.114L151.8 135.708L145.386 142.114L138.971 135.708L132.557 142.114ZM177.809 161.514L183.873 155.458L189.936 161.514L183.873 167.571L177.809 161.514ZM177.724 148.793L183.873 142.653L190.021 148.793L183.873 154.934L177.724 148.793ZM164.981 161.514L171.044 155.458L177.106 161.514L171.044 167.571L164.981 161.514ZM164.894 148.793L171.044 142.653L177.192 148.793L171.044 154.934L164.894 148.793ZM152.152 161.514L158.214 155.458L164.277 161.514L158.214 167.571L152.152 161.514ZM152.066 148.793L158.214 142.653L164.364 148.793L158.214 154.934L152.066 148.793ZM139.322 161.514L145.386 155.458L151.449 161.514L145.386 167.571L139.322 161.514ZM139.237 148.793L145.386 142.653L151.534 148.793L145.386 154.934L139.237 148.793Z" fill="#05AD99"/>
<path d="M177.736 171.846C182.19 169.4 187.759 169.584 192.277 170.401L192.935 170.559C196.474 171.431 196.268 173.371 195.974 174.241C195.924 174.373 195.834 174.487 195.718 174.566C195.601 174.645 195.462 174.686 195.321 174.683C194.765 174.683 194.056 174.703 193.094 174.78C187.491 175.222 192.886 181.836 190.704 181.866C187.946 181.904 188.673 175.9 187.234 176.007C184.526 176.213 187.787 181.549 185.997 181.866C184.037 182.201 185.641 175.766 182.528 175.955C180.855 176.057 182.966 181.954 181.022 181.533C178.971 181.089 180.702 175.892 178.805 175.985C175.997 176.124 179.474 181.285 177.404 181.566C176.149 181.739 174.58 173.583 177.736 171.846Z" fill="#FFC0BB"/>
<path d="M174.373 86.0887C174.373 86.0887 191.974 90.1295 202.29 106.795C212.606 123.46 215.811 137.707 200.402 171.347C200.402 171.347 185.602 173.468 182.263 169.841L192.687 136.195L172.25 112.258L174.373 86.0887Z" fill="#02CCC0"/>
<path d="M176.674 118.889C179.017 121.463 181.392 124.009 183.838 126.482C186.284 128.954 188.798 131.358 191.452 133.597C192.776 134.719 194.162 135.766 195.602 136.734C197.042 137.693 198.572 138.549 200.254 139.029C199.396 138.853 198.56 138.58 197.764 138.216L197.163 137.946C196.967 137.851 196.775 137.744 196.581 137.643L195.998 137.335L195.433 137C194.614 136.498 193.82 135.978 193.043 135.422C192.846 136.379 192.638 137.333 192.404 138.283C192.196 139.181 191.986 140.079 191.748 140.961C191.51 141.843 191.296 142.749 191.055 143.639C190.573 145.419 190.066 147.19 189.534 148.954C188.473 152.484 187.38 156.004 186.187 159.499C185.016 162.921 183.825 166.329 182.566 169.71C183.842 170.403 185.212 170.906 186.632 171.205C188.131 171.531 189.654 171.729 191.186 171.796C192.722 171.874 194.262 171.874 195.799 171.796C197.335 171.714 198.873 171.571 200.399 171.345C198.882 171.638 197.351 171.848 195.811 171.973C194.269 172.112 192.72 172.16 191.172 172.117C189.619 172.081 188.071 171.913 186.545 171.615C185.002 171.328 183.513 170.799 182.134 170.048L181.955 169.946L182.027 169.747C183.286 166.29 184.484 162.809 185.645 159.317C186.807 155.825 187.963 152.325 189.034 148.81C190.105 145.295 191.144 141.761 192.061 138.199C192.308 137.213 192.551 136.226 192.787 135.236C192.226 134.831 191.674 134.416 191.132 133.986C189.76 132.901 188.445 131.746 187.15 130.573C185.854 129.399 184.613 128.169 183.379 126.934C182.146 125.698 180.953 124.423 179.77 123.137C178.587 121.852 177.427 120.546 176.298 119.219C174.022 116.576 171.839 113.856 169.75 111.06C172.026 113.702 174.334 116.312 176.674 118.889Z" fill="#DAEEF7"/>
</g>
<defs>
<clipPath id="clip0_562_5326">
<rect width="211" height="314" fill="white"/>
</clipPath>
</defs>
</svg>
