<svg width="448" height="53" viewBox="0 0 448 53" fill="none" xmlns="http://www.w3.org/2000/svg">
<path d="M447.5 0H0V52.5H447.5V0Z" fill="#F9E000"/>
<path d="M29.2554 16C22.6586 16 17.3125 20.2505 17.3125 25.4931C17.3125 28.7422 19.3672 31.6103 22.4987 33.3265L21.6336 37.9532C21.5912 38.1836 21.8451 38.3529 22.0426 38.226L27.1724 34.8453C27.1724 34.8453 28.5454 34.991 29.2554 34.991C35.8521 34.991 41.1982 30.7405 41.1982 25.4978C41.1982 20.2505 35.8521 16 29.2554 16Z" fill="#3C1E1E"/>
<path d="M24.4216 22.8447H20.9798C20.6554 22.8447 20.3921 23.108 20.3921 23.4325C20.3921 23.7569 20.6554 24.0249 20.9798 24.0249H22.0989V28.1814C22.0989 28.3318 22.16 28.4824 22.2682 28.5858C22.3716 28.6939 22.5221 28.7551 22.6725 28.7551H22.7995C22.9499 28.7551 23.0957 28.6939 23.1991 28.5858C23.3073 28.4777 23.3684 28.3318 23.3684 28.1767V24.0202H24.4263C24.7508 24.0202 25.0141 23.7569 25.0141 23.4278C25.0047 23.1127 24.7414 22.8447 24.4216 22.8447Z" fill="#F9E000"/>
<path d="M32.4761 27.646H30.8774V23.4002C30.8774 23.0476 30.5906 22.7607 30.2427 22.7607C29.89 22.7607 29.6079 23.0476 29.6079 23.4002V27.9751C29.6079 28.0081 29.6079 28.1444 29.6079 28.182C29.6079 28.4782 29.8477 28.718 30.1392 28.718H32.4761C32.7723 28.718 33.0074 28.4782 33.0074 28.182C33.0074 27.8905 32.7676 27.646 32.4761 27.646Z" fill="#F9E000"/>
<path d="M37.6103 27.8437L35.8282 25.4833L37.441 23.8564C37.6573 23.6355 37.6573 23.2781 37.441 23.0618C37.2247 22.8409 36.8674 22.8409 36.6511 23.0618L34.6575 25.0742V23.4051C34.6575 23.0524 34.3706 22.7656 34.0227 22.7656C33.6701 22.7656 33.3879 23.0524 33.3879 23.4051V28.1211C33.3879 28.4737 33.6748 28.7606 34.0227 28.7606C34.3753 28.7606 34.6575 28.4737 34.6575 28.1211V26.6682L35.0195 26.3014L36.7075 28.5348C36.8956 28.7887 37.2529 28.8404 37.5021 28.6477C37.7513 28.4549 37.7983 28.0976 37.6103 27.8437Z" fill="#F9E000"/>
<path d="M29.2221 27.994L27.5059 23.2638L27.5012 23.2591C27.3931 22.9723 27.0733 22.7607 26.6972 22.7607C26.6032 22.7607 26.5091 22.7748 26.4198 22.7983C26.3351 22.8218 26.2552 22.8595 26.18 22.9065C26.1094 22.9535 26.0483 23.0052 25.9966 23.071C25.9637 23.1133 25.9308 23.1604 25.9073 23.2121C25.8885 23.2544 25.8038 23.4989 25.7756 23.5742C25.7662 23.6024 25.7568 23.6258 25.7474 23.6541C25.738 23.687 25.7239 23.7152 25.7145 23.7481C25.7004 23.7857 25.6863 23.8187 25.6722 23.8563C25.6581 23.8986 25.644 23.9362 25.6252 23.9785C25.6063 24.0208 25.5922 24.0679 25.5734 24.1102C25.5546 24.1572 25.5358 24.2042 25.5217 24.2559C25.5029 24.3076 25.4841 24.3594 25.4653 24.4111C25.4465 24.4675 25.423 24.5193 25.4042 24.5757C25.3854 24.6321 25.3618 24.6885 25.343 24.7449C25.3195 24.8014 25.3007 24.8625 25.2772 24.9189C25.2537 24.98 25.2349 25.0412 25.2114 25.0976C25.1879 25.1587 25.1644 25.2198 25.1409 25.281C25.1173 25.3421 25.0938 25.4079 25.0703 25.469C25.0468 25.5302 25.0233 25.596 24.9998 25.6571C24.9763 25.7182 24.9528 25.784 24.9293 25.8452C24.9058 25.9063 24.8823 25.9721 24.8587 26.0333C24.8352 26.0944 24.8117 26.1555 24.7882 26.2213C24.7647 26.2825 24.7412 26.3436 24.7224 26.4047C24.6989 26.4659 24.6801 26.5223 24.6566 26.5834C24.6331 26.6398 24.6142 26.7009 24.5907 26.7574C24.5719 26.8138 24.5484 26.8702 24.5296 26.9219C24.5108 26.9736 24.492 27.0301 24.4685 27.0818C24.4497 27.1335 24.4309 27.1805 24.4121 27.2323C24.3933 27.2793 24.3791 27.3263 24.3603 27.3733C24.3462 27.4156 24.3274 27.4579 24.3133 27.5003C24.2992 27.5379 24.2851 27.5802 24.271 27.6178C24.2569 27.6507 24.2475 27.6883 24.2334 27.7212C24.224 27.7494 24.2099 27.7824 24.2005 27.8106C24.1911 27.8341 24.1817 27.8576 24.1723 27.8811C24.1676 27.8999 24.1582 27.9187 24.1535 27.9376C24.1488 27.9517 24.1441 27.961 24.1393 27.9751C24.1393 27.9799 24.1346 27.9893 24.1299 27.994C24.0265 28.2949 24.1817 28.6193 24.4779 28.7227C24.7741 28.8262 25.0985 28.671 25.202 28.3701L25.4935 27.5285H27.8398L28.1313 28.3701C28.2347 28.671 28.5591 28.8262 28.8554 28.7227C29.1704 28.624 29.3303 28.2949 29.2221 27.994ZM25.8838 26.4659L26.6737 24.1995C26.6831 24.1995 26.6925 24.2042 26.6972 24.2042L27.4871 26.4706H25.8838V26.4659Z" fill="#F9E000"/>
<path opacity="0.1" d="M57.5282 4H55.5393V49.524H57.5282V4Z" fill="black"/>
<path d="M175.624 28.96C176.324 28.58 176.934 28.235 177.454 27.925C177.984 27.605 178.434 27.31 178.804 27.04C179.174 26.76 179.469 26.495 179.689 26.245C179.919 25.995 180.094 25.745 180.214 25.495L175.639 25.615L175.579 23.995L180.409 23.92V22.045H175.894V20.425H182.269V23.875C182.269 24.595 182.189 25.225 182.029 25.765C181.879 26.295 181.594 26.805 181.174 27.295C180.754 27.775 180.169 28.27 179.419 28.78C178.679 29.28 177.719 29.855 176.539 30.505L175.624 28.96ZM186.319 24.22H188.239V25.87H186.319V33.16H184.414V19.21H186.319V24.22ZM189.277 28.96C189.977 28.58 190.587 28.235 191.107 27.925C191.637 27.605 192.087 27.31 192.457 27.04C192.827 26.76 193.122 26.495 193.342 26.245C193.572 25.995 193.747 25.745 193.867 25.495L189.292 25.615L189.232 23.995L194.062 23.92V22.045H189.547V20.425H195.922V23.875C195.922 24.595 195.842 25.225 195.682 25.765C195.532 26.295 195.247 26.805 194.827 27.295C194.407 27.775 193.822 28.27 193.072 28.78C192.332 29.28 191.372 29.855 190.192 30.505L189.277 28.96ZM199.972 24.22H201.892V25.87H199.972V33.16H198.067V19.21H199.972V24.22ZM207.999 29.8V27.58C207.439 27.51 206.924 27.375 206.454 27.175C205.984 26.975 205.579 26.725 205.239 26.425C204.899 26.125 204.634 25.78 204.444 25.39C204.254 25 204.159 24.57 204.159 24.1V23.41C204.159 22.88 204.279 22.4 204.519 21.97C204.759 21.53 205.094 21.155 205.524 20.845C205.954 20.535 206.459 20.295 207.039 20.125C207.629 19.955 208.264 19.87 208.944 19.87C209.624 19.87 210.254 19.955 210.834 20.125C211.424 20.295 211.929 20.535 212.349 20.845C212.779 21.155 213.114 21.53 213.354 21.97C213.604 22.4 213.729 22.88 213.729 23.41V24.1C213.729 24.57 213.634 25 213.444 25.39C213.254 25.78 212.989 26.125 212.649 26.425C212.309 26.725 211.904 26.975 211.434 27.175C210.964 27.375 210.449 27.51 209.889 27.58V29.8H215.334V31.405H202.554V29.8H207.999ZM208.944 21.505C208.544 21.505 208.164 21.555 207.804 21.655C207.454 21.745 207.144 21.88 206.874 22.06C206.614 22.23 206.404 22.44 206.244 22.69C206.094 22.94 206.019 23.215 206.019 23.515V23.995C206.019 24.295 206.094 24.57 206.244 24.82C206.404 25.07 206.614 25.285 206.874 25.465C207.144 25.635 207.454 25.77 207.804 25.87C208.164 25.96 208.544 26.005 208.944 26.005C209.344 26.005 209.719 25.96 210.069 25.87C210.429 25.77 210.739 25.635 210.999 25.465C211.269 25.285 211.479 25.07 211.629 24.82C211.789 24.57 211.869 24.295 211.869 23.995V23.515C211.869 23.215 211.789 22.94 211.629 22.69C211.479 22.44 211.269 22.23 210.999 22.06C210.739 21.88 210.429 21.745 210.069 21.655C209.719 21.555 209.344 21.505 208.944 21.505ZM221.651 26.5V25.54H217.961V19.6H227.096V21.1H219.821V21.835H226.976V23.305H219.821V24.04H227.246V25.54H223.541V26.5H228.986V28.015H216.206V26.5H221.651ZM217.871 28.855H227.261V33.34H225.371V30.385H217.871V28.855ZM242.639 29.8V31.405H229.859V29.8H242.639ZM236.249 27.715C235.569 27.715 234.934 27.63 234.344 27.46C233.764 27.29 233.259 27.05 232.829 26.74C232.399 26.43 232.064 26.06 231.824 25.63C231.584 25.19 231.464 24.7 231.464 24.16V23.47C231.464 22.93 231.584 22.445 231.824 22.015C232.064 21.575 232.399 21.2 232.829 20.89C233.259 20.58 233.764 20.34 234.344 20.17C234.934 20 235.569 19.915 236.249 19.915C236.929 19.915 237.559 20 238.139 20.17C238.729 20.34 239.234 20.58 239.654 20.89C240.084 21.2 240.419 21.575 240.659 22.015C240.909 22.445 241.034 22.93 241.034 23.47V24.16C241.034 24.7 240.909 25.19 240.659 25.63C240.419 26.06 240.084 26.43 239.654 26.74C239.234 27.05 238.729 27.29 238.139 27.46C237.559 27.63 236.929 27.715 236.249 27.715ZM236.249 21.55C235.849 21.55 235.469 21.6 235.109 21.7C234.759 21.79 234.449 21.925 234.179 22.105C233.919 22.275 233.709 22.485 233.549 22.735C233.399 22.985 233.324 23.265 233.324 23.575V24.055C233.324 24.365 233.399 24.645 233.549 24.895C233.709 25.145 233.919 25.36 234.179 25.54C234.449 25.71 234.759 25.845 235.109 25.945C235.469 26.035 235.849 26.08 236.249 26.08C236.649 26.08 237.024 26.035 237.374 25.945C237.734 25.845 238.044 25.71 238.304 25.54C238.574 25.36 238.784 25.145 238.934 24.895C239.094 24.645 239.174 24.365 239.174 24.055V23.575C239.174 23.265 239.094 22.985 238.934 22.735C238.784 22.485 238.574 22.275 238.304 22.105C238.044 21.925 237.734 21.79 237.374 21.7C237.024 21.6 236.649 21.55 236.249 21.55ZM250.846 27.925V29.815H256.291V31.405H243.511V29.815H248.956V27.925H245.221V23.275H252.616V21.79H245.176V20.2H254.506V24.85H247.111V26.335H254.821V27.925H250.846ZM268.249 27.925V29.815H273.694V31.405H260.914V29.815H266.359V27.925H262.624V23.275H270.019V21.79H262.579V20.2H271.909V24.85H264.514V26.335H272.224V27.925H268.249ZM287.346 29.8V31.405H274.566V29.8H287.346ZM283.116 28.54C283.206 28.06 283.281 27.6 283.341 27.16C283.411 26.71 283.461 26.275 283.491 25.855C283.531 25.435 283.556 25.02 283.566 24.61C283.586 24.19 283.596 23.765 283.596 23.335V22.12H276.096V20.455H285.486V22.84C285.486 23.55 285.476 24.175 285.456 24.715C285.436 25.245 285.406 25.735 285.366 26.185C285.326 26.635 285.271 27.065 285.201 27.475C285.141 27.885 285.071 28.315 284.991 28.765L283.116 28.54ZM292.838 31.39H300.038V33.01H290.933V28.33H292.838V31.39ZM299.813 29.14H297.923V19.21H299.813V29.14ZM292.253 27.01C291.693 27.01 291.188 26.925 290.738 26.755C290.298 26.575 289.923 26.335 289.613 26.035C289.303 25.735 289.063 25.39 288.893 25C288.733 24.61 288.653 24.205 288.653 23.785V22.945C288.653 22.525 288.733 22.12 288.893 21.73C289.063 21.34 289.303 20.995 289.613 20.695C289.923 20.395 290.298 20.16 290.738 19.99C291.188 19.81 291.693 19.72 292.253 19.72C292.813 19.72 293.313 19.81 293.753 19.99C294.203 20.16 294.583 20.395 294.893 20.695C295.203 20.995 295.438 21.34 295.598 21.73C295.768 22.12 295.853 22.525 295.853 22.945V23.785C295.853 24.205 295.768 24.61 295.598 25C295.438 25.39 295.203 25.735 294.893 26.035C294.583 26.335 294.203 26.575 293.753 26.755C293.313 26.925 292.813 27.01 292.253 27.01ZM292.253 21.355C291.973 21.355 291.718 21.405 291.488 21.505C291.268 21.595 291.078 21.72 290.918 21.88C290.768 22.04 290.648 22.225 290.558 22.435C290.478 22.645 290.438 22.86 290.438 23.08V23.65C290.438 23.88 290.478 24.1 290.558 24.31C290.648 24.51 290.768 24.69 290.918 24.85C291.078 25.01 291.268 25.14 291.488 25.24C291.718 25.33 291.973 25.375 292.253 25.375C292.533 25.375 292.783 25.33 293.003 25.24C293.233 25.14 293.423 25.01 293.573 24.85C293.733 24.69 293.853 24.51 293.933 24.31C294.023 24.1 294.068 23.88 294.068 23.65V23.08C294.068 22.86 294.023 22.645 293.933 22.435C293.853 22.225 293.733 22.04 293.573 21.88C293.423 21.72 293.233 21.595 293.003 21.505C292.783 21.405 292.533 21.355 292.253 21.355Z" fill="#3C1E1E"/>
</svg>
