<svg width="29" height="32" viewBox="0 0 29 32" fill="none" xmlns="http://www.w3.org/2000/svg">
<path fill-rule="evenodd" clip-rule="evenodd" d="M21.8527 0.858098C22.3889 0.308658 23.116 0 23.8742 0C24.6324 0 25.3595 0.308658 25.8958 0.858098L28.1632 3.18222C28.6992 3.73183 29.0004 4.47715 29.0004 5.2543C29.0004 6.03144 28.6992 6.77676 28.1632 7.32637L26.6115 8.91682C26.2191 9.31905 25.5724 9.31905 25.18 8.91682L20.2665 3.88055C19.8876 3.49211 19.8876 2.87233 20.2665 2.4839L21.8527 0.858098ZM18.2795 5.98797C17.8871 5.58574 17.2403 5.58574 16.8479 5.98797L10.4154 12.5813C9.87915 13.1308 9.5778 13.8761 9.57764 14.6534V16.9775C9.57764 17.7548 9.87889 18.5002 10.4151 19.0499C10.9513 19.5995 11.6786 19.9083 12.437 19.9083H14.7044C15.4627 19.9081 16.1898 19.5992 16.7259 19.0496L23.1929 12.4209C23.5719 12.0325 23.5719 11.4127 23.1929 11.0242L18.2795 5.98797Z" fill="#112233"/>
<path d="M5.28897 18.4429H3.85932C3.10098 18.4429 2.3737 18.7517 1.83747 19.3013C1.30125 19.8509 1 20.5964 1 21.3737V21.3737C1 22.151 1.30125 22.8964 1.83747 23.4461C2.3737 23.9957 3.10098 24.3045 3.85932 24.3045H23.8745C24.6329 24.3045 25.3601 24.6132 25.8964 25.1629C26.4326 25.7125 26.7338 26.458 26.7338 27.2353C26.7338 28.0126 26.4326 28.758 25.8964 29.3077C25.3601 29.8573 24.6329 30.1661 23.8745 30.1661H18.1559" stroke="#112233" stroke-width="2" stroke-linecap="round" stroke-linejoin="round"/>
</svg>
